solid OpenSCAD_Model
  facet normal -0.99863 -0.0523362 0
    outer loop
      vertex 12.1537 0 2
      vertex 12.0872 1.27041 21
      vertex 12.0872 1.27041 2
    endloop
  endfacet
  facet normal -0.99863 -0.0523362 0
    outer loop
      vertex 12.0872 1.27041 21
      vertex 12.1537 0 2
      vertex 12.1537 0 21
    endloop
  endfacet
  facet normal 0.99863 -0.0523362 0
    outer loop
      vertex -12.1537 0 21
      vertex -12.0872 1.27041 2
      vertex -12.0872 1.27041 21
    endloop
  endfacet
  facet normal 0.99863 -0.0523362 0
    outer loop
      vertex -12.0872 1.27041 2
      vertex -12.1537 0 21
      vertex -12.1537 0 2
    endloop
  endfacet
  facet normal -0.0523362 -0.99863 0
    outer loop
      vertex 0 12.1537 2
      vertex 1.27041 12.0872 21
      vertex 0 12.1537 21
    endloop
  endfacet
  facet normal -0.0523362 -0.99863 -0
    outer loop
      vertex 1.27041 12.0872 21
      vertex 0 12.1537 2
      vertex 1.27041 12.0872 2
    endloop
  endfacet
  facet normal 0.0523362 0.99863 -0
    outer loop
      vertex 0 -12.1537 2
      vertex -1.27041 -12.0872 21
      vertex 0 -12.1537 21
    endloop
  endfacet
  facet normal 0.0523362 0.99863 0
    outer loop
      vertex -1.27041 -12.0872 21
      vertex 0 -12.1537 2
      vertex -1.27041 -12.0872 2
    endloop
  endfacet
  facet normal -0.707107 -0.707107 0
    outer loop
      vertex 9.032 8.13245 2
      vertex 8.13245 9.032 21
      vertex 8.13245 9.032 2
    endloop
  endfacet
  facet normal -0.707107 -0.707107 0
    outer loop
      vertex 8.13245 9.032 21
      vertex 9.032 8.13245 2
      vertex 9.032 8.13245 21
    endloop
  endfacet
  facet normal 0.629321 -0.777146 0
    outer loop
      vertex -8.13245 9.032 2
      vertex -7.14379 9.83259 21
      vertex -8.13245 9.032 21
    endloop
  endfacet
  facet normal 0.629321 -0.777146 0
    outer loop
      vertex -7.14379 9.83259 21
      vertex -8.13245 9.032 2
      vertex -7.14379 9.83259 2
    endloop
  endfacet
  facet normal 0.358368 -0.93358 0
    outer loop
      vertex -4.94338 11.103 2
      vertex -3.75571 11.5589 21
      vertex -4.94338 11.103 21
    endloop
  endfacet
  facet normal 0.358368 -0.93358 0
    outer loop
      vertex -3.75571 11.5589 21
      vertex -4.94338 11.103 2
      vertex -3.75571 11.5589 2
    endloop
  endfacet
  facet normal 0.93358 0.358368 0
    outer loop
      vertex -11.103 -4.94338 21
      vertex -11.5589 -3.75571 2
      vertex -11.5589 -3.75571 21
    endloop
  endfacet
  facet normal 0.93358 0.358368 0
    outer loop
      vertex -11.5589 -3.75571 2
      vertex -11.103 -4.94338 21
      vertex -11.103 -4.94338 2
    endloop
  endfacet
  facet normal -0.93358 -0.358368 0
    outer loop
      vertex 11.5589 3.75571 2
      vertex 11.103 4.94338 21
      vertex 11.103 4.94338 2
    endloop
  endfacet
  facet normal -0.93358 -0.358368 0
    outer loop
      vertex 11.103 4.94338 21
      vertex 11.5589 3.75571 2
      vertex 11.5589 3.75571 21
    endloop
  endfacet
  facet normal -0.453991 -0.891006 0
    outer loop
      vertex 4.94338 11.103 2
      vertex 6.07687 10.5255 21
      vertex 4.94338 11.103 21
    endloop
  endfacet
  facet normal -0.453991 -0.891006 -0
    outer loop
      vertex 6.07687 10.5255 21
      vertex 4.94338 11.103 2
      vertex 6.07687 10.5255 2
    endloop
  endfacet
  facet normal -0.629321 -0.777146 0
    outer loop
      vertex 7.14379 9.83259 2
      vertex 8.13245 9.032 21
      vertex 7.14379 9.83259 21
    endloop
  endfacet
  facet normal -0.629321 -0.777146 -0
    outer loop
      vertex 8.13245 9.032 21
      vertex 7.14379 9.83259 2
      vertex 8.13245 9.032 2
    endloop
  endfacet
  facet normal 0.891006 -0.453991 0
    outer loop
      vertex -11.103 4.94338 21
      vertex -10.5255 6.07687 2
      vertex -10.5255 6.07687 21
    endloop
  endfacet
  facet normal 0.891006 -0.453991 0
    outer loop
      vertex -10.5255 6.07687 2
      vertex -11.103 4.94338 21
      vertex -11.103 4.94338 2
    endloop
  endfacet
  facet normal 0.156434 -0.987688 0
    outer loop
      vertex -2.52691 11.8882 2
      vertex -1.27041 12.0872 21
      vertex -2.52691 11.8882 21
    endloop
  endfacet
  facet normal 0.156434 -0.987688 0
    outer loop
      vertex -1.27041 12.0872 21
      vertex -2.52691 11.8882 2
      vertex -1.27041 12.0872 2
    endloop
  endfacet
  facet normal -0.93358 0.358368 0
    outer loop
      vertex 11.103 -4.94338 2
      vertex 11.5589 -3.75571 21
      vertex 11.5589 -3.75571 2
    endloop
  endfacet
  facet normal -0.93358 0.358368 0
    outer loop
      vertex 11.5589 -3.75571 21
      vertex 11.103 -4.94338 2
      vertex 11.103 -4.94338 21
    endloop
  endfacet
  facet normal 0 0 1
    outer loop
      vertex 12.0872 1.27041 2
      vertex 12.0872 -1.27041 2
      vertex 12.1537 0 2
    endloop
  endfacet
  facet normal 0 0 1
    outer loop
      vertex 11.8882 2.52691 2
      vertex 12.0872 -1.27041 2
      vertex 12.0872 1.27041 2
    endloop
  endfacet
  facet normal 0 0 1
    outer loop
      vertex 11.8882 2.52691 2
      vertex 11.8882 -2.52691 2
      vertex 12.0872 -1.27041 2
    endloop
  endfacet
  facet normal 0 0 1
    outer loop
      vertex 11.5589 3.75571 2
      vertex 11.8882 -2.52691 2
      vertex 11.8882 2.52691 2
    endloop
  endfacet
  facet normal 0 0 1
    outer loop
      vertex 11.5589 3.75571 2
      vertex 11.5589 -3.75571 2
      vertex 11.8882 -2.52691 2
    endloop
  endfacet
  facet normal 0 0 1
    outer loop
      vertex 11.103 4.94338 2
      vertex 11.5589 -3.75571 2
      vertex 11.5589 3.75571 2
    endloop
  endfacet
  facet normal 0 0 1
    outer loop
      vertex 11.103 4.94338 2
      vertex 11.103 -4.94338 2
      vertex 11.5589 -3.75571 2
    endloop
  endfacet
  facet normal 0 0 1
    outer loop
      vertex 10.5255 6.07687 2
      vertex 11.103 -4.94338 2
      vertex 11.103 4.94338 2
    endloop
  endfacet
  facet normal 0 0 1
    outer loop
      vertex 10.5255 6.07687 2
      vertex 10.5255 -6.07687 2
      vertex 11.103 -4.94338 2
    endloop
  endfacet
  facet normal 0 0 1
    outer loop
      vertex 9.83259 7.14379 2
      vertex 10.5255 -6.07687 2
      vertex 10.5255 6.07687 2
    endloop
  endfacet
  facet normal 0 0 1
    outer loop
      vertex 9.83259 7.14379 2
      vertex 9.83259 -7.14379 2
      vertex 10.5255 -6.07687 2
    endloop
  endfacet
  facet normal 0 0 1
    outer loop
      vertex 9.032 8.13245 2
      vertex 9.83259 -7.14379 2
      vertex 9.83259 7.14379 2
    endloop
  endfacet
  facet normal 0 0 1
    outer loop
      vertex 9.032 8.13245 2
      vertex 9.032 -8.13245 2
      vertex 9.83259 -7.14379 2
    endloop
  endfacet
  facet normal 0 0 1
    outer loop
      vertex 8.13245 9.032 2
      vertex 9.032 -8.13245 2
      vertex 9.032 8.13245 2
    endloop
  endfacet
  facet normal 0 0 1
    outer loop
      vertex 8.13245 9.032 2
      vertex 8.13245 -9.032 2
      vertex 9.032 -8.13245 2
    endloop
  endfacet
  facet normal 0 0 1
    outer loop
      vertex 7.14379 9.83259 2
      vertex 8.13245 -9.032 2
      vertex 8.13245 9.032 2
    endloop
  endfacet
  facet normal 0 0 1
    outer loop
      vertex 7.14379 9.83259 2
      vertex 7.14379 -9.83259 2
      vertex 8.13245 -9.032 2
    endloop
  endfacet
  facet normal 0 0 1
    outer loop
      vertex 6.07687 10.5255 2
      vertex 7.14379 -9.83259 2
      vertex 7.14379 9.83259 2
    endloop
  endfacet
  facet normal 0 0 1
    outer loop
      vertex 6.07687 10.5255 2
      vertex 6.07687 -10.5255 2
      vertex 7.14379 -9.83259 2
    endloop
  endfacet
  facet normal 0 0 1
    outer loop
      vertex 4.94338 11.103 2
      vertex 6.07687 -10.5255 2
      vertex 6.07687 10.5255 2
    endloop
  endfacet
  facet normal 0 0 1
    outer loop
      vertex 4.94338 11.103 2
      vertex 4.94338 -11.103 2
      vertex 6.07687 -10.5255 2
    endloop
  endfacet
  facet normal 0 0 1
    outer loop
      vertex 3.75571 11.5589 2
      vertex 4.94338 -11.103 2
      vertex 4.94338 11.103 2
    endloop
  endfacet
  facet normal 0 0 1
    outer loop
      vertex 3.75571 11.5589 2
      vertex 3.75571 -11.5589 2
      vertex 4.94338 -11.103 2
    endloop
  endfacet
  facet normal 0 0 1
    outer loop
      vertex 2.52691 11.8882 2
      vertex 3.75571 -11.5589 2
      vertex 3.75571 11.5589 2
    endloop
  endfacet
  facet normal 0 0 1
    outer loop
      vertex 2.52691 11.8882 2
      vertex 2.52691 -11.8882 2
      vertex 3.75571 -11.5589 2
    endloop
  endfacet
  facet normal 0 0 1
    outer loop
      vertex 1.27041 12.0872 2
      vertex 2.52691 -11.8882 2
      vertex 2.52691 11.8882 2
    endloop
  endfacet
  facet normal 0 0 1
    outer loop
      vertex 1.27041 12.0872 2
      vertex 1.27041 -12.0872 2
      vertex 2.52691 -11.8882 2
    endloop
  endfacet
  facet normal 0 0 1
    outer loop
      vertex 0 12.1537 2
      vertex 1.27041 -12.0872 2
      vertex 1.27041 12.0872 2
    endloop
  endfacet
  facet normal 0 0 1
    outer loop
      vertex 0 12.1537 2
      vertex 0 -12.1537 2
      vertex 1.27041 -12.0872 2
    endloop
  endfacet
  facet normal -0 0 1
    outer loop
      vertex -1.27041 12.0872 2
      vertex 0 -12.1537 2
      vertex 0 12.1537 2
    endloop
  endfacet
  facet normal 0 0 1
    outer loop
      vertex -1.27041 12.0872 2
      vertex -1.27041 -12.0872 2
      vertex 0 -12.1537 2
    endloop
  endfacet
  facet normal -0 0 1
    outer loop
      vertex -2.52691 11.8882 2
      vertex -1.27041 -12.0872 2
      vertex -1.27041 12.0872 2
    endloop
  endfacet
  facet normal 0 0 1
    outer loop
      vertex -2.52691 11.8882 2
      vertex -2.52691 -11.8882 2
      vertex -1.27041 -12.0872 2
    endloop
  endfacet
  facet normal -0 0 1
    outer loop
      vertex -3.75571 11.5589 2
      vertex -2.52691 -11.8882 2
      vertex -2.52691 11.8882 2
    endloop
  endfacet
  facet normal 0 0 1
    outer loop
      vertex -3.75571 11.5589 2
      vertex -3.75571 -11.5589 2
      vertex -2.52691 -11.8882 2
    endloop
  endfacet
  facet normal -0 0 1
    outer loop
      vertex -4.94338 11.103 2
      vertex -3.75571 -11.5589 2
      vertex -3.75571 11.5589 2
    endloop
  endfacet
  facet normal 0 0 1
    outer loop
      vertex -4.94338 11.103 2
      vertex -4.94338 -11.103 2
      vertex -3.75571 -11.5589 2
    endloop
  endfacet
  facet normal -0 0 1
    outer loop
      vertex -6.07687 10.5255 2
      vertex -4.94338 -11.103 2
      vertex -4.94338 11.103 2
    endloop
  endfacet
  facet normal 0 0 1
    outer loop
      vertex -6.07687 10.5255 2
      vertex -6.07687 -10.5255 2
      vertex -4.94338 -11.103 2
    endloop
  endfacet
  facet normal -0 0 1
    outer loop
      vertex -7.14379 9.83259 2
      vertex -6.07687 -10.5255 2
      vertex -6.07687 10.5255 2
    endloop
  endfacet
  facet normal 0 0 1
    outer loop
      vertex -7.14379 9.83259 2
      vertex -7.14379 -9.83259 2
      vertex -6.07687 -10.5255 2
    endloop
  endfacet
  facet normal -0 0 1
    outer loop
      vertex -8.13245 9.032 2
      vertex -7.14379 -9.83259 2
      vertex -7.14379 9.83259 2
    endloop
  endfacet
  facet normal 0 0 1
    outer loop
      vertex -8.13245 9.032 2
      vertex -8.13245 -9.032 2
      vertex -7.14379 -9.83259 2
    endloop
  endfacet
  facet normal -0 0 1
    outer loop
      vertex -9.032 8.13245 2
      vertex -8.13245 -9.032 2
      vertex -8.13245 9.032 2
    endloop
  endfacet
  facet normal 0 0 1
    outer loop
      vertex -9.032 8.13245 2
      vertex -9.032 -8.13245 2
      vertex -8.13245 -9.032 2
    endloop
  endfacet
  facet normal -0 0 1
    outer loop
      vertex -9.83259 7.14379 2
      vertex -9.032 -8.13245 2
      vertex -9.032 8.13245 2
    endloop
  endfacet
  facet normal 0 0 1
    outer loop
      vertex -9.83259 7.14379 2
      vertex -9.83259 -7.14379 2
      vertex -9.032 -8.13245 2
    endloop
  endfacet
  facet normal -0 0 1
    outer loop
      vertex -10.5255 6.07687 2
      vertex -9.83259 -7.14379 2
      vertex -9.83259 7.14379 2
    endloop
  endfacet
  facet normal 0 0 1
    outer loop
      vertex -10.5255 6.07687 2
      vertex -10.5255 -6.07687 2
      vertex -9.83259 -7.14379 2
    endloop
  endfacet
  facet normal -0 0 1
    outer loop
      vertex -11.103 4.94338 2
      vertex -10.5255 -6.07687 2
      vertex -10.5255 6.07687 2
    endloop
  endfacet
  facet normal 0 0 1
    outer loop
      vertex -11.103 4.94338 2
      vertex -11.103 -4.94338 2
      vertex -10.5255 -6.07687 2
    endloop
  endfacet
  facet normal -0 0 1
    outer loop
      vertex -11.5589 3.75571 2
      vertex -11.103 -4.94338 2
      vertex -11.103 4.94338 2
    endloop
  endfacet
  facet normal 0 0 1
    outer loop
      vertex -11.5589 3.75571 2
      vertex -11.5589 -3.75571 2
      vertex -11.103 -4.94338 2
    endloop
  endfacet
  facet normal -0 0 1
    outer loop
      vertex -11.8882 2.52691 2
      vertex -11.5589 -3.75571 2
      vertex -11.5589 3.75571 2
    endloop
  endfacet
  facet normal 0 0 1
    outer loop
      vertex -11.8882 2.52691 2
      vertex -11.8882 -2.52691 2
      vertex -11.5589 -3.75571 2
    endloop
  endfacet
  facet normal -0 0 1
    outer loop
      vertex -12.0872 1.27041 2
      vertex -11.8882 -2.52691 2
      vertex -11.8882 2.52691 2
    endloop
  endfacet
  facet normal 0 0 1
    outer loop
      vertex -12.0872 1.27041 2
      vertex -12.0872 -1.27041 2
      vertex -11.8882 -2.52691 2
    endloop
  endfacet
  facet normal 0 -0 1
    outer loop
      vertex -12.0872 -1.27041 2
      vertex -12.0872 1.27041 2
      vertex -12.1537 0 2
    endloop
  endfacet
  facet normal -0.965926 -0.258819 0
    outer loop
      vertex 11.8882 2.52691 2
      vertex 11.5589 3.75571 21
      vertex 11.5589 3.75571 2
    endloop
  endfacet
  facet normal -0.965926 -0.258819 0
    outer loop
      vertex 11.5589 3.75571 21
      vertex 11.8882 2.52691 2
      vertex 11.8882 2.52691 21
    endloop
  endfacet
  facet normal -0.987688 -0.156434 0
    outer loop
      vertex 12.0872 1.27041 2
      vertex 11.8882 2.52691 21
      vertex 11.8882 2.52691 2
    endloop
  endfacet
  facet normal -0.987688 -0.156434 0
    outer loop
      vertex 11.8882 2.52691 21
      vertex 12.0872 1.27041 2
      vertex 12.0872 1.27041 21
    endloop
  endfacet
  facet normal -0.838671 -0.544639 0
    outer loop
      vertex 10.5255 6.07687 2
      vertex 9.83259 7.14379 21
      vertex 9.83259 7.14379 2
    endloop
  endfacet
  facet normal -0.838671 -0.544639 0
    outer loop
      vertex 9.83259 7.14379 21
      vertex 10.5255 6.07687 2
      vertex 10.5255 6.07687 21
    endloop
  endfacet
  facet normal -0.777146 -0.629321 0
    outer loop
      vertex 9.83259 7.14379 2
      vertex 9.032 8.13245 21
      vertex 9.032 8.13245 2
    endloop
  endfacet
  facet normal -0.777146 -0.629321 0
    outer loop
      vertex 9.032 8.13245 21
      vertex 9.83259 7.14379 2
      vertex 9.83259 7.14379 21
    endloop
  endfacet
  facet normal -0.891006 -0.453991 0
    outer loop
      vertex 11.103 4.94338 2
      vertex 10.5255 6.07687 21
      vertex 10.5255 6.07687 2
    endloop
  endfacet
  facet normal -0.891006 -0.453991 0
    outer loop
      vertex 10.5255 6.07687 21
      vertex 11.103 4.94338 2
      vertex 11.103 4.94338 21
    endloop
  endfacet
  facet normal -0.258819 -0.965926 0
    outer loop
      vertex 2.52691 11.8882 2
      vertex 3.75571 11.5589 21
      vertex 2.52691 11.8882 21
    endloop
  endfacet
  facet normal -0.258819 -0.965926 -0
    outer loop
      vertex 3.75571 11.5589 21
      vertex 2.52691 11.8882 2
      vertex 3.75571 11.5589 2
    endloop
  endfacet
  facet normal -0.358368 -0.93358 0
    outer loop
      vertex 3.75571 11.5589 2
      vertex 4.94338 11.103 21
      vertex 3.75571 11.5589 21
    endloop
  endfacet
  facet normal -0.358368 -0.93358 -0
    outer loop
      vertex 4.94338 11.103 21
      vertex 3.75571 11.5589 2
      vertex 4.94338 11.103 2
    endloop
  endfacet
  facet normal -0.156434 -0.987688 0
    outer loop
      vertex 1.27041 12.0872 2
      vertex 2.52691 11.8882 21
      vertex 1.27041 12.0872 21
    endloop
  endfacet
  facet normal -0.156434 -0.987688 -0
    outer loop
      vertex 2.52691 11.8882 21
      vertex 1.27041 12.0872 2
      vertex 2.52691 11.8882 2
    endloop
  endfacet
  facet normal -0.544639 -0.838671 0
    outer loop
      vertex 6.07687 10.5255 2
      vertex 7.14379 9.83259 21
      vertex 6.07687 10.5255 21
    endloop
  endfacet
  facet normal -0.544639 -0.838671 -0
    outer loop
      vertex 7.14379 9.83259 21
      vertex 6.07687 10.5255 2
      vertex 7.14379 9.83259 2
    endloop
  endfacet
  facet normal 0.965926 -0.258819 0
    outer loop
      vertex -11.8882 2.52691 21
      vertex -11.5589 3.75571 2
      vertex -11.5589 3.75571 21
    endloop
  endfacet
  facet normal 0.965926 -0.258819 0
    outer loop
      vertex -11.5589 3.75571 2
      vertex -11.8882 2.52691 21
      vertex -11.8882 2.52691 2
    endloop
  endfacet
  facet normal 0.777146 -0.629321 0
    outer loop
      vertex -9.83259 7.14379 21
      vertex -9.032 8.13245 2
      vertex -9.032 8.13245 21
    endloop
  endfacet
  facet normal 0.777146 -0.629321 0
    outer loop
      vertex -9.032 8.13245 2
      vertex -9.83259 7.14379 21
      vertex -9.83259 7.14379 2
    endloop
  endfacet
  facet normal 0.707107 -0.707107 0
    outer loop
      vertex -9.032 8.13245 21
      vertex -8.13245 9.032 2
      vertex -8.13245 9.032 21
    endloop
  endfacet
  facet normal 0.707107 -0.707107 0
    outer loop
      vertex -8.13245 9.032 2
      vertex -9.032 8.13245 21
      vertex -9.032 8.13245 2
    endloop
  endfacet
  facet normal 0.838671 -0.544639 0
    outer loop
      vertex -10.5255 6.07687 21
      vertex -9.83259 7.14379 2
      vertex -9.83259 7.14379 21
    endloop
  endfacet
  facet normal 0.838671 -0.544639 0
    outer loop
      vertex -9.83259 7.14379 2
      vertex -10.5255 6.07687 21
      vertex -10.5255 6.07687 2
    endloop
  endfacet
  facet normal 0.93358 -0.358368 0
    outer loop
      vertex -11.5589 3.75571 21
      vertex -11.103 4.94338 2
      vertex -11.103 4.94338 21
    endloop
  endfacet
  facet normal 0.93358 -0.358368 0
    outer loop
      vertex -11.103 4.94338 2
      vertex -11.5589 3.75571 21
      vertex -11.5589 3.75571 2
    endloop
  endfacet
  facet normal 0.987688 -0.156434 0
    outer loop
      vertex -12.0872 1.27041 21
      vertex -11.8882 2.52691 2
      vertex -11.8882 2.52691 21
    endloop
  endfacet
  facet normal 0.987688 -0.156434 0
    outer loop
      vertex -11.8882 2.52691 2
      vertex -12.0872 1.27041 21
      vertex -12.0872 1.27041 2
    endloop
  endfacet
  facet normal 0.453991 -0.891006 0
    outer loop
      vertex -6.07687 10.5255 2
      vertex -4.94338 11.103 21
      vertex -6.07687 10.5255 21
    endloop
  endfacet
  facet normal 0.453991 -0.891006 0
    outer loop
      vertex -4.94338 11.103 21
      vertex -6.07687 10.5255 2
      vertex -4.94338 11.103 2
    endloop
  endfacet
  facet normal 0.544639 -0.838671 0
    outer loop
      vertex -7.14379 9.83259 2
      vertex -6.07687 10.5255 21
      vertex -7.14379 9.83259 21
    endloop
  endfacet
  facet normal 0.544639 -0.838671 0
    outer loop
      vertex -6.07687 10.5255 21
      vertex -7.14379 9.83259 2
      vertex -6.07687 10.5255 2
    endloop
  endfacet
  facet normal 0.258819 -0.965926 0
    outer loop
      vertex -3.75571 11.5589 2
      vertex -2.52691 11.8882 21
      vertex -3.75571 11.5589 21
    endloop
  endfacet
  facet normal 0.258819 -0.965926 0
    outer loop
      vertex -2.52691 11.8882 21
      vertex -3.75571 11.5589 2
      vertex -2.52691 11.8882 2
    endloop
  endfacet
  facet normal 0.0523362 -0.99863 0
    outer loop
      vertex -1.27041 12.0872 2
      vertex 0 12.1537 21
      vertex -1.27041 12.0872 21
    endloop
  endfacet
  facet normal 0.0523362 -0.99863 0
    outer loop
      vertex 0 12.1537 21
      vertex -1.27041 12.0872 2
      vertex 0 12.1537 2
    endloop
  endfacet
  facet normal -0.99863 0.0523362 0
    outer loop
      vertex 12.0872 -1.27041 2
      vertex 12.1537 0 21
      vertex 12.1537 0 2
    endloop
  endfacet
  facet normal -0.99863 0.0523362 0
    outer loop
      vertex 12.1537 0 21
      vertex 12.0872 -1.27041 2
      vertex 12.0872 -1.27041 21
    endloop
  endfacet
  facet normal -0.0523362 0.99863 0
    outer loop
      vertex 1.27041 -12.0872 2
      vertex 0 -12.1537 21
      vertex 1.27041 -12.0872 21
    endloop
  endfacet
  facet normal -0.0523362 0.99863 0
    outer loop
      vertex 0 -12.1537 21
      vertex 1.27041 -12.0872 2
      vertex 0 -12.1537 2
    endloop
  endfacet
  facet normal -0.258819 0.965926 0
    outer loop
      vertex 3.75571 -11.5589 2
      vertex 2.52691 -11.8882 21
      vertex 3.75571 -11.5589 21
    endloop
  endfacet
  facet normal -0.258819 0.965926 0
    outer loop
      vertex 2.52691 -11.8882 21
      vertex 3.75571 -11.5589 2
      vertex 2.52691 -11.8882 2
    endloop
  endfacet
  facet normal -0.629321 0.777146 0
    outer loop
      vertex 8.13245 -9.032 2
      vertex 7.14379 -9.83259 21
      vertex 8.13245 -9.032 21
    endloop
  endfacet
  facet normal -0.629321 0.777146 0
    outer loop
      vertex 7.14379 -9.83259 21
      vertex 8.13245 -9.032 2
      vertex 7.14379 -9.83259 2
    endloop
  endfacet
  facet normal -0.453991 0.891006 0
    outer loop
      vertex 6.07687 -10.5255 2
      vertex 4.94338 -11.103 21
      vertex 6.07687 -10.5255 21
    endloop
  endfacet
  facet normal -0.453991 0.891006 0
    outer loop
      vertex 4.94338 -11.103 21
      vertex 6.07687 -10.5255 2
      vertex 4.94338 -11.103 2
    endloop
  endfacet
  facet normal -0.777146 0.629321 0
    outer loop
      vertex 9.032 -8.13245 2
      vertex 9.83259 -7.14379 21
      vertex 9.83259 -7.14379 2
    endloop
  endfacet
  facet normal -0.777146 0.629321 0
    outer loop
      vertex 9.83259 -7.14379 21
      vertex 9.032 -8.13245 2
      vertex 9.032 -8.13245 21
    endloop
  endfacet
  facet normal -0.891006 0.453991 0
    outer loop
      vertex 10.5255 -6.07687 2
      vertex 11.103 -4.94338 21
      vertex 11.103 -4.94338 2
    endloop
  endfacet
  facet normal -0.891006 0.453991 0
    outer loop
      vertex 11.103 -4.94338 21
      vertex 10.5255 -6.07687 2
      vertex 10.5255 -6.07687 21
    endloop
  endfacet
  facet normal 0.707107 0.707107 0
    outer loop
      vertex -8.13245 -9.032 21
      vertex -9.032 -8.13245 2
      vertex -9.032 -8.13245 21
    endloop
  endfacet
  facet normal 0.707107 0.707107 0
    outer loop
      vertex -9.032 -8.13245 2
      vertex -8.13245 -9.032 21
      vertex -8.13245 -9.032 2
    endloop
  endfacet
  facet normal 0.544639 0.838671 -0
    outer loop
      vertex -6.07687 -10.5255 2
      vertex -7.14379 -9.83259 21
      vertex -6.07687 -10.5255 21
    endloop
  endfacet
  facet normal 0.544639 0.838671 0
    outer loop
      vertex -7.14379 -9.83259 21
      vertex -6.07687 -10.5255 2
      vertex -7.14379 -9.83259 2
    endloop
  endfacet
  facet normal 0.358368 0.93358 -0
    outer loop
      vertex -3.75571 -11.5589 2
      vertex -4.94338 -11.103 21
      vertex -3.75571 -11.5589 21
    endloop
  endfacet
  facet normal 0.358368 0.93358 0
    outer loop
      vertex -4.94338 -11.103 21
      vertex -3.75571 -11.5589 2
      vertex -4.94338 -11.103 2
    endloop
  endfacet
  facet normal 0.156434 0.987688 -0
    outer loop
      vertex -1.27041 -12.0872 2
      vertex -2.52691 -11.8882 21
      vertex -1.27041 -12.0872 21
    endloop
  endfacet
  facet normal 0.156434 0.987688 0
    outer loop
      vertex -2.52691 -11.8882 21
      vertex -1.27041 -12.0872 2
      vertex -2.52691 -11.8882 2
    endloop
  endfacet
  facet normal 0.891006 0.453991 0
    outer loop
      vertex -10.5255 -6.07687 21
      vertex -11.103 -4.94338 2
      vertex -11.103 -4.94338 21
    endloop
  endfacet
  facet normal 0.891006 0.453991 0
    outer loop
      vertex -11.103 -4.94338 2
      vertex -10.5255 -6.07687 21
      vertex -10.5255 -6.07687 2
    endloop
  endfacet
  facet normal 0.777146 0.629321 0
    outer loop
      vertex -9.032 -8.13245 21
      vertex -9.83259 -7.14379 2
      vertex -9.83259 -7.14379 21
    endloop
  endfacet
  facet normal 0.777146 0.629321 0
    outer loop
      vertex -9.83259 -7.14379 2
      vertex -9.032 -8.13245 21
      vertex -9.032 -8.13245 2
    endloop
  endfacet
  facet normal 0.965926 0.258819 0
    outer loop
      vertex -11.5589 -3.75571 21
      vertex -11.8882 -2.52691 2
      vertex -11.8882 -2.52691 21
    endloop
  endfacet
  facet normal 0.965926 0.258819 0
    outer loop
      vertex -11.8882 -2.52691 2
      vertex -11.5589 -3.75571 21
      vertex -11.5589 -3.75571 2
    endloop
  endfacet
  facet normal 0.99863 0.0523362 0
    outer loop
      vertex -12.0872 -1.27041 21
      vertex -12.1537 0 2
      vertex -12.1537 0 21
    endloop
  endfacet
  facet normal 0.99863 0.0523362 0
    outer loop
      vertex -12.1537 0 2
      vertex -12.0872 -1.27041 21
      vertex -12.0872 -1.27041 2
    endloop
  endfacet
  facet normal -0.156434 0.987688 0
    outer loop
      vertex 2.52691 -11.8882 2
      vertex 1.27041 -12.0872 21
      vertex 2.52691 -11.8882 21
    endloop
  endfacet
  facet normal -0.156434 0.987688 0
    outer loop
      vertex 1.27041 -12.0872 21
      vertex 2.52691 -11.8882 2
      vertex 1.27041 -12.0872 2
    endloop
  endfacet
  facet normal -0.358368 0.93358 0
    outer loop
      vertex 4.94338 -11.103 2
      vertex 3.75571 -11.5589 21
      vertex 4.94338 -11.103 21
    endloop
  endfacet
  facet normal -0.358368 0.93358 0
    outer loop
      vertex 3.75571 -11.5589 21
      vertex 4.94338 -11.103 2
      vertex 3.75571 -11.5589 2
    endloop
  endfacet
  facet normal -0.707107 0.707107 0
    outer loop
      vertex 8.13245 -9.032 2
      vertex 9.032 -8.13245 21
      vertex 9.032 -8.13245 2
    endloop
  endfacet
  facet normal -0.707107 0.707107 0
    outer loop
      vertex 9.032 -8.13245 21
      vertex 8.13245 -9.032 2
      vertex 8.13245 -9.032 21
    endloop
  endfacet
  facet normal -0.544639 0.838671 0
    outer loop
      vertex 7.14379 -9.83259 2
      vertex 6.07687 -10.5255 21
      vertex 7.14379 -9.83259 21
    endloop
  endfacet
  facet normal -0.544639 0.838671 0
    outer loop
      vertex 6.07687 -10.5255 21
      vertex 7.14379 -9.83259 2
      vertex 6.07687 -10.5255 2
    endloop
  endfacet
  facet normal -0.838671 0.544639 0
    outer loop
      vertex 9.83259 -7.14379 2
      vertex 10.5255 -6.07687 21
      vertex 10.5255 -6.07687 2
    endloop
  endfacet
  facet normal -0.838671 0.544639 0
    outer loop
      vertex 10.5255 -6.07687 21
      vertex 9.83259 -7.14379 2
      vertex 9.83259 -7.14379 21
    endloop
  endfacet
  facet normal -0.987688 0.156434 0
    outer loop
      vertex 11.8882 -2.52691 2
      vertex 12.0872 -1.27041 21
      vertex 12.0872 -1.27041 2
    endloop
  endfacet
  facet normal -0.987688 0.156434 0
    outer loop
      vertex 12.0872 -1.27041 21
      vertex 11.8882 -2.52691 2
      vertex 11.8882 -2.52691 21
    endloop
  endfacet
  facet normal -0.965926 0.258819 0
    outer loop
      vertex 11.5589 -3.75571 2
      vertex 11.8882 -2.52691 21
      vertex 11.8882 -2.52691 2
    endloop
  endfacet
  facet normal -0.965926 0.258819 0
    outer loop
      vertex 11.8882 -2.52691 21
      vertex 11.5589 -3.75571 2
      vertex 11.5589 -3.75571 21
    endloop
  endfacet
  facet normal 0.629321 0.777146 -0
    outer loop
      vertex -7.14379 -9.83259 2
      vertex -8.13245 -9.032 21
      vertex -7.14379 -9.83259 21
    endloop
  endfacet
  facet normal 0.629321 0.777146 0
    outer loop
      vertex -8.13245 -9.032 21
      vertex -7.14379 -9.83259 2
      vertex -8.13245 -9.032 2
    endloop
  endfacet
  facet normal 0.453991 0.891006 -0
    outer loop
      vertex -4.94338 -11.103 2
      vertex -6.07687 -10.5255 21
      vertex -4.94338 -11.103 21
    endloop
  endfacet
  facet normal 0.453991 0.891006 0
    outer loop
      vertex -6.07687 -10.5255 21
      vertex -4.94338 -11.103 2
      vertex -6.07687 -10.5255 2
    endloop
  endfacet
  facet normal 0.258819 0.965926 -0
    outer loop
      vertex -2.52691 -11.8882 2
      vertex -3.75571 -11.5589 21
      vertex -2.52691 -11.8882 21
    endloop
  endfacet
  facet normal 0.258819 0.965926 0
    outer loop
      vertex -3.75571 -11.5589 21
      vertex -2.52691 -11.8882 2
      vertex -3.75571 -11.5589 2
    endloop
  endfacet
  facet normal 0.838671 0.544639 0
    outer loop
      vertex -9.83259 -7.14379 21
      vertex -10.5255 -6.07687 2
      vertex -10.5255 -6.07687 21
    endloop
  endfacet
  facet normal 0.838671 0.544639 0
    outer loop
      vertex -10.5255 -6.07687 2
      vertex -9.83259 -7.14379 21
      vertex -9.83259 -7.14379 2
    endloop
  endfacet
  facet normal 0.987688 0.156434 0
    outer loop
      vertex -11.8882 -2.52691 21
      vertex -12.0872 -1.27041 2
      vertex -12.0872 -1.27041 21
    endloop
  endfacet
  facet normal 0.987688 0.156434 0
    outer loop
      vertex -12.0872 -1.27041 2
      vertex -11.8882 -2.52691 21
      vertex -11.8882 -2.52691 2
    endloop
  endfacet
  facet normal 0 0 1
    outer loop
      vertex 14.7 0 21
      vertex 16 0 21
      vertex 15.9123 1.67245 21
    endloop
  endfacet
  facet normal 0 0 1
    outer loop
      vertex 14.6195 1.53657 21
      vertex 15.9123 1.67245 21
      vertex 15.6504 3.32659 21
    endloop
  endfacet
  facet normal 0 0 1
    outer loop
      vertex 16 0 21
      vertex 14.7 0 21
      vertex 15.9123 -1.67245 21
    endloop
  endfacet
  facet normal 0 0 1
    outer loop
      vertex 14.3788 3.0563 21
      vertex 15.6504 3.32659 21
      vertex 15.2169 4.94427 21
    endloop
  endfacet
  facet normal -0 0 1
    outer loop
      vertex 14.6195 -1.53657 21
      vertex 15.9123 -1.67245 21
      vertex 14.7 0 21
    endloop
  endfacet
  facet normal 0 0 1
    outer loop
      vertex 15.9123 -1.67245 21
      vertex 14.6195 -1.53657 21
      vertex 15.6504 -3.32659 21
    endloop
  endfacet
  facet normal 0 0 1
    outer loop
      vertex 15.9123 1.67245 21
      vertex 14.6195 1.53657 21
      vertex 14.7 0 21
    endloop
  endfacet
  facet normal 0 0 1
    outer loop
      vertex 13.9805 4.54255 21
      vertex 15.2169 4.94427 21
      vertex 14.6167 6.50779 21
    endloop
  endfacet
  facet normal 0 0 1
    outer loop
      vertex 15.6504 3.32659 21
      vertex 14.3788 3.0563 21
      vertex 14.6195 1.53657 21
    endloop
  endfacet
  facet normal 0 0 1
    outer loop
      vertex 15.2169 4.94427 21
      vertex 13.9805 4.54255 21
      vertex 14.3788 3.0563 21
    endloop
  endfacet
  facet normal 0 0 1
    outer loop
      vertex 13.4291 5.97903 21
      vertex 14.6167 6.50779 21
      vertex 13.8564 8 21
    endloop
  endfacet
  facet normal 0 0 1
    outer loop
      vertex 14.6167 6.50779 21
      vertex 13.4291 5.97903 21
      vertex 13.9805 4.54255 21
    endloop
  endfacet
  facet normal 0 0 1
    outer loop
      vertex 12.7306 7.35 21
      vertex 13.8564 8 21
      vertex 12.9443 9.40456 21
    endloop
  endfacet
  facet normal 0 0 1
    outer loop
      vertex 13.8564 8 21
      vertex 12.7306 7.35 21
      vertex 13.4291 5.97903 21
    endloop
  endfacet
  facet normal 0 0 1
    outer loop
      vertex 12.9443 9.40456 21
      vertex 11.8925 8.64044 21
      vertex 12.7306 7.35 21
    endloop
  endfacet
  facet normal 0 0 1
    outer loop
      vertex 11.8903 10.7061 21
      vertex 11.8925 8.64044 21
      vertex 12.9443 9.40456 21
    endloop
  endfacet
  facet normal 0 0 1
    outer loop
      vertex 11.8903 10.7061 21
      vertex 10.9242 9.83622 21
      vertex 11.8925 8.64044 21
    endloop
  endfacet
  facet normal 0 0 1
    outer loop
      vertex 10.7061 11.8903 21
      vertex 10.9242 9.83622 21
      vertex 11.8903 10.7061 21
    endloop
  endfacet
  facet normal 0 0 1
    outer loop
      vertex 10.7061 11.8903 21
      vertex 9.83622 10.9242 21
      vertex 10.9242 9.83622 21
    endloop
  endfacet
  facet normal 0 0 1
    outer loop
      vertex 9.40456 12.9443 21
      vertex 9.83622 10.9242 21
      vertex 10.7061 11.8903 21
    endloop
  endfacet
  facet normal 0 0 1
    outer loop
      vertex 9.40456 12.9443 21
      vertex 8.64044 11.8925 21
      vertex 9.83622 10.9242 21
    endloop
  endfacet
  facet normal 0 0 1
    outer loop
      vertex 8 13.8564 21
      vertex 8.64044 11.8925 21
      vertex 9.40456 12.9443 21
    endloop
  endfacet
  facet normal 0 0 1
    outer loop
      vertex 8 13.8564 21
      vertex 7.35 12.7306 21
      vertex 8.64044 11.8925 21
    endloop
  endfacet
  facet normal 0 0 1
    outer loop
      vertex 6.50779 14.6167 21
      vertex 7.35 12.7306 21
      vertex 8 13.8564 21
    endloop
  endfacet
  facet normal 0 0 1
    outer loop
      vertex 6.50779 14.6167 21
      vertex 5.97903 13.4291 21
      vertex 7.35 12.7306 21
    endloop
  endfacet
  facet normal 0 0 1
    outer loop
      vertex 4.94427 15.2169 21
      vertex 5.97903 13.4291 21
      vertex 6.50779 14.6167 21
    endloop
  endfacet
  facet normal 0 0 1
    outer loop
      vertex 4.94427 15.2169 21
      vertex 4.54255 13.9805 21
      vertex 5.97903 13.4291 21
    endloop
  endfacet
  facet normal 0 0 1
    outer loop
      vertex 3.32659 15.6504 21
      vertex 4.54255 13.9805 21
      vertex 4.94427 15.2169 21
    endloop
  endfacet
  facet normal 0 0 1
    outer loop
      vertex 3.32659 15.6504 21
      vertex 3.0563 14.3788 21
      vertex 4.54255 13.9805 21
    endloop
  endfacet
  facet normal 0 0 1
    outer loop
      vertex 1.67245 15.9123 21
      vertex 3.0563 14.3788 21
      vertex 3.32659 15.6504 21
    endloop
  endfacet
  facet normal 0 0 1
    outer loop
      vertex 1.67245 15.9123 21
      vertex 1.53657 14.6195 21
      vertex 3.0563 14.3788 21
    endloop
  endfacet
  facet normal 0 0 1
    outer loop
      vertex 0 16 21
      vertex 1.53657 14.6195 21
      vertex 1.67245 15.9123 21
    endloop
  endfacet
  facet normal 0 0 1
    outer loop
      vertex 0 16 21
      vertex 0 14.7 21
      vertex 1.53657 14.6195 21
    endloop
  endfacet
  facet normal 0 0 1
    outer loop
      vertex 0 16 21
      vertex -1.53657 14.6195 21
      vertex 0 14.7 21
    endloop
  endfacet
  facet normal -0 0 1
    outer loop
      vertex -1.67245 15.9123 21
      vertex -1.53657 14.6195 21
      vertex 0 16 21
    endloop
  endfacet
  facet normal 0 0 1
    outer loop
      vertex -1.67245 15.9123 21
      vertex -3.0563 14.3788 21
      vertex -1.53657 14.6195 21
    endloop
  endfacet
  facet normal -0 0 1
    outer loop
      vertex -3.32659 15.6504 21
      vertex -3.0563 14.3788 21
      vertex -1.67245 15.9123 21
    endloop
  endfacet
  facet normal 0 0 1
    outer loop
      vertex -3.32659 15.6504 21
      vertex -4.54255 13.9805 21
      vertex -3.0563 14.3788 21
    endloop
  endfacet
  facet normal -0 0 1
    outer loop
      vertex -4.94427 15.2169 21
      vertex -4.54255 13.9805 21
      vertex -3.32659 15.6504 21
    endloop
  endfacet
  facet normal 0 0 1
    outer loop
      vertex -4.94427 15.2169 21
      vertex -5.97903 13.4291 21
      vertex -4.54255 13.9805 21
    endloop
  endfacet
  facet normal -0 0 1
    outer loop
      vertex -6.50779 14.6167 21
      vertex -5.97903 13.4291 21
      vertex -4.94427 15.2169 21
    endloop
  endfacet
  facet normal 0 0 1
    outer loop
      vertex -6.50779 14.6167 21
      vertex -7.35 12.7306 21
      vertex -5.97903 13.4291 21
    endloop
  endfacet
  facet normal -0 0 1
    outer loop
      vertex -8 13.8564 21
      vertex -7.35 12.7306 21
      vertex -6.50779 14.6167 21
    endloop
  endfacet
  facet normal 0 0 1
    outer loop
      vertex -8 13.8564 21
      vertex -8.64044 11.8925 21
      vertex -7.35 12.7306 21
    endloop
  endfacet
  facet normal -0 0 1
    outer loop
      vertex -9.40456 12.9443 21
      vertex -8.64044 11.8925 21
      vertex -8 13.8564 21
    endloop
  endfacet
  facet normal 0 0 1
    outer loop
      vertex -9.40456 12.9443 21
      vertex -9.83622 10.9242 21
      vertex -8.64044 11.8925 21
    endloop
  endfacet
  facet normal -0 0 1
    outer loop
      vertex -10.7061 11.8903 21
      vertex -9.83622 10.9242 21
      vertex -9.40456 12.9443 21
    endloop
  endfacet
  facet normal 0 0 1
    outer loop
      vertex -10.7061 11.8903 21
      vertex -10.9242 9.83622 21
      vertex -9.83622 10.9242 21
    endloop
  endfacet
  facet normal -0 0 1
    outer loop
      vertex -11.8903 10.7061 21
      vertex -10.9242 9.83622 21
      vertex -10.7061 11.8903 21
    endloop
  endfacet
  facet normal 0 0 1
    outer loop
      vertex -11.8903 10.7061 21
      vertex -11.8925 8.64044 21
      vertex -10.9242 9.83622 21
    endloop
  endfacet
  facet normal -0 0 1
    outer loop
      vertex -12.9443 9.40456 21
      vertex -11.8925 8.64044 21
      vertex -11.8903 10.7061 21
    endloop
  endfacet
  facet normal 0 0 1
    outer loop
      vertex -11.8925 8.64044 21
      vertex -12.9443 9.40456 21
      vertex -12.7306 7.35 21
    endloop
  endfacet
  facet normal -0 0 1
    outer loop
      vertex -13.8564 8 21
      vertex -12.7306 7.35 21
      vertex -12.9443 9.40456 21
    endloop
  endfacet
  facet normal 0 0 1
    outer loop
      vertex -12.7306 7.35 21
      vertex -13.8564 8 21
      vertex -13.4291 5.97903 21
    endloop
  endfacet
  facet normal -0 0 1
    outer loop
      vertex -14.6167 6.50779 21
      vertex -13.4291 5.97903 21
      vertex -13.8564 8 21
    endloop
  endfacet
  facet normal 0 0 1
    outer loop
      vertex -13.4291 5.97903 21
      vertex -14.6167 6.50779 21
      vertex -13.9805 4.54255 21
    endloop
  endfacet
  facet normal -0 0 1
    outer loop
      vertex -15.2169 4.94427 21
      vertex -13.9805 4.54255 21
      vertex -14.6167 6.50779 21
    endloop
  endfacet
  facet normal 0 0 1
    outer loop
      vertex -13.9805 4.54255 21
      vertex -15.2169 4.94427 21
      vertex -14.3788 3.0563 21
    endloop
  endfacet
  facet normal -0 0 1
    outer loop
      vertex -15.6504 3.32659 21
      vertex -14.3788 3.0563 21
      vertex -15.2169 4.94427 21
    endloop
  endfacet
  facet normal 0 0 1
    outer loop
      vertex -14.3788 3.0563 21
      vertex -15.6504 3.32659 21
      vertex -14.6195 1.53657 21
    endloop
  endfacet
  facet normal -0 0 1
    outer loop
      vertex 14.3788 -3.0563 21
      vertex 15.6504 -3.32659 21
      vertex 14.6195 -1.53657 21
    endloop
  endfacet
  facet normal 0 0 1
    outer loop
      vertex 15.6504 -3.32659 21
      vertex 14.3788 -3.0563 21
      vertex 15.2169 -4.94427 21
    endloop
  endfacet
  facet normal -0 0 1
    outer loop
      vertex 13.9805 -4.54255 21
      vertex 15.2169 -4.94427 21
      vertex 14.3788 -3.0563 21
    endloop
  endfacet
  facet normal 0 0 1
    outer loop
      vertex 15.2169 -4.94427 21
      vertex 13.9805 -4.54255 21
      vertex 14.6167 -6.50779 21
    endloop
  endfacet
  facet normal -0 0 1
    outer loop
      vertex 13.4291 -5.97903 21
      vertex 14.6167 -6.50779 21
      vertex 13.9805 -4.54255 21
    endloop
  endfacet
  facet normal 0 0 1
    outer loop
      vertex 14.6167 -6.50779 21
      vertex 13.4291 -5.97903 21
      vertex 13.8564 -8 21
    endloop
  endfacet
  facet normal -0 0 1
    outer loop
      vertex 12.7306 -7.35 21
      vertex 13.8564 -8 21
      vertex 13.4291 -5.97903 21
    endloop
  endfacet
  facet normal 0 0 1
    outer loop
      vertex 13.8564 -8 21
      vertex 12.7306 -7.35 21
      vertex 12.9443 -9.40456 21
    endloop
  endfacet
  facet normal -0 0 1
    outer loop
      vertex 11.8925 -8.64044 21
      vertex 12.9443 -9.40456 21
      vertex 12.7306 -7.35 21
    endloop
  endfacet
  facet normal 0 0 1
    outer loop
      vertex 11.8925 -8.64044 21
      vertex 11.8903 -10.7061 21
      vertex 12.9443 -9.40456 21
    endloop
  endfacet
  facet normal -0 0 1
    outer loop
      vertex 10.9242 -9.83622 21
      vertex 11.8903 -10.7061 21
      vertex 11.8925 -8.64044 21
    endloop
  endfacet
  facet normal 0 0 1
    outer loop
      vertex 10.9242 -9.83622 21
      vertex 10.7061 -11.8903 21
      vertex 11.8903 -10.7061 21
    endloop
  endfacet
  facet normal -0 0 1
    outer loop
      vertex 9.83622 -10.9242 21
      vertex 10.7061 -11.8903 21
      vertex 10.9242 -9.83622 21
    endloop
  endfacet
  facet normal 0 0 1
    outer loop
      vertex 9.83622 -10.9242 21
      vertex 9.40456 -12.9443 21
      vertex 10.7061 -11.8903 21
    endloop
  endfacet
  facet normal -0 0 1
    outer loop
      vertex 8.64044 -11.8925 21
      vertex 9.40456 -12.9443 21
      vertex 9.83622 -10.9242 21
    endloop
  endfacet
  facet normal 0 0 1
    outer loop
      vertex 8.64044 -11.8925 21
      vertex 8 -13.8564 21
      vertex 9.40456 -12.9443 21
    endloop
  endfacet
  facet normal -0 0 1
    outer loop
      vertex 7.35 -12.7306 21
      vertex 8 -13.8564 21
      vertex 8.64044 -11.8925 21
    endloop
  endfacet
  facet normal 0 0 1
    outer loop
      vertex 7.35 -12.7306 21
      vertex 6.50779 -14.6167 21
      vertex 8 -13.8564 21
    endloop
  endfacet
  facet normal -0 0 1
    outer loop
      vertex 5.97903 -13.4291 21
      vertex 6.50779 -14.6167 21
      vertex 7.35 -12.7306 21
    endloop
  endfacet
  facet normal 0 0 1
    outer loop
      vertex 5.97903 -13.4291 21
      vertex 4.94427 -15.2169 21
      vertex 6.50779 -14.6167 21
    endloop
  endfacet
  facet normal -0 0 1
    outer loop
      vertex 4.54255 -13.9805 21
      vertex 4.94427 -15.2169 21
      vertex 5.97903 -13.4291 21
    endloop
  endfacet
  facet normal 0 0 1
    outer loop
      vertex 4.54255 -13.9805 21
      vertex 3.32659 -15.6504 21
      vertex 4.94427 -15.2169 21
    endloop
  endfacet
  facet normal -0 0 1
    outer loop
      vertex 3.0563 -14.3788 21
      vertex 3.32659 -15.6504 21
      vertex 4.54255 -13.9805 21
    endloop
  endfacet
  facet normal 0 0 1
    outer loop
      vertex 3.0563 -14.3788 21
      vertex 1.67245 -15.9123 21
      vertex 3.32659 -15.6504 21
    endloop
  endfacet
  facet normal -0 0 1
    outer loop
      vertex 1.53657 -14.6195 21
      vertex 1.67245 -15.9123 21
      vertex 3.0563 -14.3788 21
    endloop
  endfacet
  facet normal -0 0 1
    outer loop
      vertex 0 -14.7 21
      vertex 1.67245 -15.9123 21
      vertex 1.53657 -14.6195 21
    endloop
  endfacet
  facet normal 0 0 1
    outer loop
      vertex 0 -14.7 21
      vertex 0 -16 21
      vertex 1.67245 -15.9123 21
    endloop
  endfacet
  facet normal 0 0 1
    outer loop
      vertex -1.53657 -14.6195 21
      vertex 0 -16 21
      vertex 0 -14.7 21
    endloop
  endfacet
  facet normal 0 0 1
    outer loop
      vertex -1.53657 -14.6195 21
      vertex -1.67245 -15.9123 21
      vertex 0 -16 21
    endloop
  endfacet
  facet normal 0 0 1
    outer loop
      vertex -3.0563 -14.3788 21
      vertex -1.67245 -15.9123 21
      vertex -1.53657 -14.6195 21
    endloop
  endfacet
  facet normal 0 0 1
    outer loop
      vertex -3.0563 -14.3788 21
      vertex -3.32659 -15.6504 21
      vertex -1.67245 -15.9123 21
    endloop
  endfacet
  facet normal 0 0 1
    outer loop
      vertex -4.54255 -13.9805 21
      vertex -3.32659 -15.6504 21
      vertex -3.0563 -14.3788 21
    endloop
  endfacet
  facet normal 0 0 1
    outer loop
      vertex -4.54255 -13.9805 21
      vertex -4.94427 -15.2169 21
      vertex -3.32659 -15.6504 21
    endloop
  endfacet
  facet normal 0 0 1
    outer loop
      vertex -5.97903 -13.4291 21
      vertex -4.94427 -15.2169 21
      vertex -4.54255 -13.9805 21
    endloop
  endfacet
  facet normal 0 0 1
    outer loop
      vertex -5.97903 -13.4291 21
      vertex -6.50779 -14.6167 21
      vertex -4.94427 -15.2169 21
    endloop
  endfacet
  facet normal 0 0 1
    outer loop
      vertex -7.35 -12.7306 21
      vertex -6.50779 -14.6167 21
      vertex -5.97903 -13.4291 21
    endloop
  endfacet
  facet normal 0 0 1
    outer loop
      vertex -7.35 -12.7306 21
      vertex -8 -13.8564 21
      vertex -6.50779 -14.6167 21
    endloop
  endfacet
  facet normal 0 0 1
    outer loop
      vertex -8.64044 -11.8925 21
      vertex -8 -13.8564 21
      vertex -7.35 -12.7306 21
    endloop
  endfacet
  facet normal 0 0 1
    outer loop
      vertex -8.64044 -11.8925 21
      vertex -9.40456 -12.9443 21
      vertex -8 -13.8564 21
    endloop
  endfacet
  facet normal 0 0 1
    outer loop
      vertex -9.83622 -10.9242 21
      vertex -9.40456 -12.9443 21
      vertex -8.64044 -11.8925 21
    endloop
  endfacet
  facet normal 0 0 1
    outer loop
      vertex -9.83622 -10.9242 21
      vertex -10.7061 -11.8903 21
      vertex -9.40456 -12.9443 21
    endloop
  endfacet
  facet normal 0 0 1
    outer loop
      vertex -10.9242 -9.83622 21
      vertex -10.7061 -11.8903 21
      vertex -9.83622 -10.9242 21
    endloop
  endfacet
  facet normal 0 0 1
    outer loop
      vertex -10.9242 -9.83622 21
      vertex -11.8903 -10.7061 21
      vertex -10.7061 -11.8903 21
    endloop
  endfacet
  facet normal 0 0 1
    outer loop
      vertex -11.8925 -8.64044 21
      vertex -11.8903 -10.7061 21
      vertex -10.9242 -9.83622 21
    endloop
  endfacet
  facet normal 0 0 1
    outer loop
      vertex -12.9443 -9.40456 21
      vertex -11.8925 -8.64044 21
      vertex -12.7306 -7.35 21
    endloop
  endfacet
  facet normal 0 0 1
    outer loop
      vertex -11.8925 -8.64044 21
      vertex -12.9443 -9.40456 21
      vertex -11.8903 -10.7061 21
    endloop
  endfacet
  facet normal 0 0 1
    outer loop
      vertex -13.8564 -8 21
      vertex -12.7306 -7.35 21
      vertex -13.4291 -5.97903 21
    endloop
  endfacet
  facet normal 0 0 1
    outer loop
      vertex -12.7306 -7.35 21
      vertex -13.8564 -8 21
      vertex -12.9443 -9.40456 21
    endloop
  endfacet
  facet normal 0 0 1
    outer loop
      vertex -14.6167 -6.50779 21
      vertex -13.4291 -5.97903 21
      vertex -13.9805 -4.54255 21
    endloop
  endfacet
  facet normal 0 0 1
    outer loop
      vertex -15.2169 -4.94427 21
      vertex -13.9805 -4.54255 21
      vertex -14.3788 -3.0563 21
    endloop
  endfacet
  facet normal 0 0 1
    outer loop
      vertex -13.4291 -5.97903 21
      vertex -14.6167 -6.50779 21
      vertex -13.8564 -8 21
    endloop
  endfacet
  facet normal 0 0 1
    outer loop
      vertex -15.6504 -3.32659 21
      vertex -14.3788 -3.0563 21
      vertex -14.6195 -1.53657 21
    endloop
  endfacet
  facet normal 0 0 1
    outer loop
      vertex -15.9123 -1.67245 21
      vertex -14.6195 -1.53657 21
      vertex -14.7 0 21
    endloop
  endfacet
  facet normal -0 0 1
    outer loop
      vertex -15.9123 1.67245 21
      vertex -14.6195 1.53657 21
      vertex -15.6504 3.32659 21
    endloop
  endfacet
  facet normal 0 0 1
    outer loop
      vertex -13.9805 -4.54255 21
      vertex -15.2169 -4.94427 21
      vertex -14.6167 -6.50779 21
    endloop
  endfacet
  facet normal 0 0 1
    outer loop
      vertex -14.6195 1.53657 21
      vertex -15.9123 1.67245 21
      vertex -14.7 0 21
    endloop
  endfacet
  facet normal 0 0 1
    outer loop
      vertex -14.3788 -3.0563 21
      vertex -15.6504 -3.32659 21
      vertex -15.2169 -4.94427 21
    endloop
  endfacet
  facet normal 0 0 1
    outer loop
      vertex -16 0 21
      vertex -14.7 0 21
      vertex -15.9123 1.67245 21
    endloop
  endfacet
  facet normal 0 0 1
    outer loop
      vertex -14.6195 -1.53657 21
      vertex -15.9123 -1.67245 21
      vertex -15.6504 -3.32659 21
    endloop
  endfacet
  facet normal 0 0 1
    outer loop
      vertex -14.7 0 21
      vertex -16 0 21
      vertex -15.9123 -1.67245 21
    endloop
  endfacet
  facet normal 0 0 1
    outer loop
      vertex 12.1537 0 21
      vertex 14.7 0 21
      vertex 14.6195 1.53657 21
    endloop
  endfacet
  facet normal 0 0 1
    outer loop
      vertex 12.0872 1.27041 21
      vertex 14.6195 1.53657 21
      vertex 14.3788 3.0563 21
    endloop
  endfacet
  facet normal 0 0 1
    outer loop
      vertex 14.7 0 21
      vertex 12.1537 0 21
      vertex 14.6195 -1.53657 21
    endloop
  endfacet
  facet normal 0 0 1
    outer loop
      vertex 11.8882 2.52691 21
      vertex 14.3788 3.0563 21
      vertex 13.9805 4.54255 21
    endloop
  endfacet
  facet normal -0 0 1
    outer loop
      vertex 12.0872 -1.27041 21
      vertex 14.6195 -1.53657 21
      vertex 12.1537 0 21
    endloop
  endfacet
  facet normal 0 0 1
    outer loop
      vertex 11.5589 3.75571 21
      vertex 13.9805 4.54255 21
      vertex 13.4291 5.97903 21
    endloop
  endfacet
  facet normal 0 0 1
    outer loop
      vertex 14.6195 -1.53657 21
      vertex 12.0872 -1.27041 21
      vertex 14.3788 -3.0563 21
    endloop
  endfacet
  facet normal 0 0 1
    outer loop
      vertex 11.103 4.94338 21
      vertex 13.4291 5.97903 21
      vertex 12.7306 7.35 21
    endloop
  endfacet
  facet normal -0 0 1
    outer loop
      vertex 11.8882 -2.52691 21
      vertex 14.3788 -3.0563 21
      vertex 12.0872 -1.27041 21
    endloop
  endfacet
  facet normal 0 0 1
    outer loop
      vertex 14.3788 -3.0563 21
      vertex 11.8882 -2.52691 21
      vertex 13.9805 -4.54255 21
    endloop
  endfacet
  facet normal 0 0 1
    outer loop
      vertex 14.6195 1.53657 21
      vertex 12.0872 1.27041 21
      vertex 12.1537 0 21
    endloop
  endfacet
  facet normal 0 0 1
    outer loop
      vertex 10.5255 6.07687 21
      vertex 12.7306 7.35 21
      vertex 11.8925 8.64044 21
    endloop
  endfacet
  facet normal 0 0 1
    outer loop
      vertex 14.3788 3.0563 21
      vertex 11.8882 2.52691 21
      vertex 12.0872 1.27041 21
    endloop
  endfacet
  facet normal 0 0 1
    outer loop
      vertex 13.9805 4.54255 21
      vertex 11.5589 3.75571 21
      vertex 11.8882 2.52691 21
    endloop
  endfacet
  facet normal 0 0 1
    outer loop
      vertex 13.4291 5.97903 21
      vertex 11.103 4.94338 21
      vertex 11.5589 3.75571 21
    endloop
  endfacet
  facet normal 0 0 1
    outer loop
      vertex 9.83259 7.14379 21
      vertex 11.8925 8.64044 21
      vertex 10.9242 9.83622 21
    endloop
  endfacet
  facet normal 0 0 1
    outer loop
      vertex 12.7306 7.35 21
      vertex 10.5255 6.07687 21
      vertex 11.103 4.94338 21
    endloop
  endfacet
  facet normal 0 0 1
    outer loop
      vertex 9.032 8.13245 21
      vertex 10.9242 9.83622 21
      vertex 9.83622 10.9242 21
    endloop
  endfacet
  facet normal 0 0 1
    outer loop
      vertex 11.8925 8.64044 21
      vertex 9.83259 7.14379 21
      vertex 10.5255 6.07687 21
    endloop
  endfacet
  facet normal 0 0 1
    outer loop
      vertex 10.9242 9.83622 21
      vertex 9.032 8.13245 21
      vertex 9.83259 7.14379 21
    endloop
  endfacet
  facet normal 0 0 1
    outer loop
      vertex 8.13245 9.032 21
      vertex 9.83622 10.9242 21
      vertex 8.64044 11.8925 21
    endloop
  endfacet
  facet normal 0 0 1
    outer loop
      vertex 9.83622 10.9242 21
      vertex 8.13245 9.032 21
      vertex 9.032 8.13245 21
    endloop
  endfacet
  facet normal 0 0 1
    outer loop
      vertex 7.14379 9.83259 21
      vertex 8.64044 11.8925 21
      vertex 7.35 12.7306 21
    endloop
  endfacet
  facet normal 0 0 1
    outer loop
      vertex 8.64044 11.8925 21
      vertex 7.14379 9.83259 21
      vertex 8.13245 9.032 21
    endloop
  endfacet
  facet normal 0 0 1
    outer loop
      vertex 7.35 12.7306 21
      vertex 6.07687 10.5255 21
      vertex 7.14379 9.83259 21
    endloop
  endfacet
  facet normal 0 0 1
    outer loop
      vertex 5.97903 13.4291 21
      vertex 6.07687 10.5255 21
      vertex 7.35 12.7306 21
    endloop
  endfacet
  facet normal 0 0 1
    outer loop
      vertex 5.97903 13.4291 21
      vertex 4.94338 11.103 21
      vertex 6.07687 10.5255 21
    endloop
  endfacet
  facet normal 0 0 1
    outer loop
      vertex 4.54255 13.9805 21
      vertex 4.94338 11.103 21
      vertex 5.97903 13.4291 21
    endloop
  endfacet
  facet normal 0 0 1
    outer loop
      vertex 4.54255 13.9805 21
      vertex 3.75571 11.5589 21
      vertex 4.94338 11.103 21
    endloop
  endfacet
  facet normal 0 0 1
    outer loop
      vertex 3.0563 14.3788 21
      vertex 3.75571 11.5589 21
      vertex 4.54255 13.9805 21
    endloop
  endfacet
  facet normal 0 0 1
    outer loop
      vertex 3.0563 14.3788 21
      vertex 2.52691 11.8882 21
      vertex 3.75571 11.5589 21
    endloop
  endfacet
  facet normal 0 0 1
    outer loop
      vertex 1.53657 14.6195 21
      vertex 2.52691 11.8882 21
      vertex 3.0563 14.3788 21
    endloop
  endfacet
  facet normal 0 0 1
    outer loop
      vertex 1.53657 14.6195 21
      vertex 1.27041 12.0872 21
      vertex 2.52691 11.8882 21
    endloop
  endfacet
  facet normal 0 0 1
    outer loop
      vertex 0 14.7 21
      vertex 1.27041 12.0872 21
      vertex 1.53657 14.6195 21
    endloop
  endfacet
  facet normal 0 0 1
    outer loop
      vertex 0 14.7 21
      vertex 0 12.1537 21
      vertex 1.27041 12.0872 21
    endloop
  endfacet
  facet normal 0 0 1
    outer loop
      vertex 0 14.7 21
      vertex -1.27041 12.0872 21
      vertex 0 12.1537 21
    endloop
  endfacet
  facet normal -0 0 1
    outer loop
      vertex -1.53657 14.6195 21
      vertex -1.27041 12.0872 21
      vertex 0 14.7 21
    endloop
  endfacet
  facet normal 0 0 1
    outer loop
      vertex -1.53657 14.6195 21
      vertex -2.52691 11.8882 21
      vertex -1.27041 12.0872 21
    endloop
  endfacet
  facet normal -0 0 1
    outer loop
      vertex -3.0563 14.3788 21
      vertex -2.52691 11.8882 21
      vertex -1.53657 14.6195 21
    endloop
  endfacet
  facet normal 0 0 1
    outer loop
      vertex -3.0563 14.3788 21
      vertex -3.75571 11.5589 21
      vertex -2.52691 11.8882 21
    endloop
  endfacet
  facet normal -0 0 1
    outer loop
      vertex -4.54255 13.9805 21
      vertex -3.75571 11.5589 21
      vertex -3.0563 14.3788 21
    endloop
  endfacet
  facet normal 0 0 1
    outer loop
      vertex -4.54255 13.9805 21
      vertex -4.94338 11.103 21
      vertex -3.75571 11.5589 21
    endloop
  endfacet
  facet normal -0 0 1
    outer loop
      vertex -5.97903 13.4291 21
      vertex -4.94338 11.103 21
      vertex -4.54255 13.9805 21
    endloop
  endfacet
  facet normal 0 0 1
    outer loop
      vertex -5.97903 13.4291 21
      vertex -6.07687 10.5255 21
      vertex -4.94338 11.103 21
    endloop
  endfacet
  facet normal -0 0 1
    outer loop
      vertex -7.35 12.7306 21
      vertex -6.07687 10.5255 21
      vertex -5.97903 13.4291 21
    endloop
  endfacet
  facet normal 0 0 1
    outer loop
      vertex -6.07687 10.5255 21
      vertex -7.35 12.7306 21
      vertex -7.14379 9.83259 21
    endloop
  endfacet
  facet normal -0 0 1
    outer loop
      vertex -8.64044 11.8925 21
      vertex -7.14379 9.83259 21
      vertex -7.35 12.7306 21
    endloop
  endfacet
  facet normal 0 0 1
    outer loop
      vertex -7.14379 9.83259 21
      vertex -8.64044 11.8925 21
      vertex -8.13245 9.032 21
    endloop
  endfacet
  facet normal -0 0 1
    outer loop
      vertex -9.83622 10.9242 21
      vertex -8.13245 9.032 21
      vertex -8.64044 11.8925 21
    endloop
  endfacet
  facet normal 0 0 1
    outer loop
      vertex -8.13245 9.032 21
      vertex -9.83622 10.9242 21
      vertex -9.032 8.13245 21
    endloop
  endfacet
  facet normal -0 0 1
    outer loop
      vertex -10.9242 9.83622 21
      vertex -9.032 8.13245 21
      vertex -9.83622 10.9242 21
    endloop
  endfacet
  facet normal 0 0 1
    outer loop
      vertex -9.032 8.13245 21
      vertex -10.9242 9.83622 21
      vertex -9.83259 7.14379 21
    endloop
  endfacet
  facet normal -0 0 1
    outer loop
      vertex -11.8925 8.64044 21
      vertex -9.83259 7.14379 21
      vertex -10.9242 9.83622 21
    endloop
  endfacet
  facet normal 0 0 1
    outer loop
      vertex -9.83259 7.14379 21
      vertex -11.8925 8.64044 21
      vertex -10.5255 6.07687 21
    endloop
  endfacet
  facet normal -0 0 1
    outer loop
      vertex -12.7306 7.35 21
      vertex -10.5255 6.07687 21
      vertex -11.8925 8.64044 21
    endloop
  endfacet
  facet normal 0 0 1
    outer loop
      vertex -10.5255 6.07687 21
      vertex -12.7306 7.35 21
      vertex -11.103 4.94338 21
    endloop
  endfacet
  facet normal -0 0 1
    outer loop
      vertex -13.4291 5.97903 21
      vertex -11.103 4.94338 21
      vertex -12.7306 7.35 21
    endloop
  endfacet
  facet normal 0 0 1
    outer loop
      vertex -11.103 4.94338 21
      vertex -13.4291 5.97903 21
      vertex -11.5589 3.75571 21
    endloop
  endfacet
  facet normal -0 0 1
    outer loop
      vertex -13.9805 4.54255 21
      vertex -11.5589 3.75571 21
      vertex -13.4291 5.97903 21
    endloop
  endfacet
  facet normal 0 0 1
    outer loop
      vertex -11.5589 3.75571 21
      vertex -13.9805 4.54255 21
      vertex -11.8882 2.52691 21
    endloop
  endfacet
  facet normal -0 0 1
    outer loop
      vertex 11.5589 -3.75571 21
      vertex 13.9805 -4.54255 21
      vertex 11.8882 -2.52691 21
    endloop
  endfacet
  facet normal 0 0 1
    outer loop
      vertex 13.9805 -4.54255 21
      vertex 11.5589 -3.75571 21
      vertex 13.4291 -5.97903 21
    endloop
  endfacet
  facet normal -0 0 1
    outer loop
      vertex 11.103 -4.94338 21
      vertex 13.4291 -5.97903 21
      vertex 11.5589 -3.75571 21
    endloop
  endfacet
  facet normal 0 0 1
    outer loop
      vertex 13.4291 -5.97903 21
      vertex 11.103 -4.94338 21
      vertex 12.7306 -7.35 21
    endloop
  endfacet
  facet normal -0 0 1
    outer loop
      vertex 10.5255 -6.07687 21
      vertex 12.7306 -7.35 21
      vertex 11.103 -4.94338 21
    endloop
  endfacet
  facet normal 0 0 1
    outer loop
      vertex 12.7306 -7.35 21
      vertex 10.5255 -6.07687 21
      vertex 11.8925 -8.64044 21
    endloop
  endfacet
  facet normal -0 0 1
    outer loop
      vertex 9.83259 -7.14379 21
      vertex 11.8925 -8.64044 21
      vertex 10.5255 -6.07687 21
    endloop
  endfacet
  facet normal 0 0 1
    outer loop
      vertex 11.8925 -8.64044 21
      vertex 9.83259 -7.14379 21
      vertex 10.9242 -9.83622 21
    endloop
  endfacet
  facet normal -0 0 1
    outer loop
      vertex 9.032 -8.13245 21
      vertex 10.9242 -9.83622 21
      vertex 9.83259 -7.14379 21
    endloop
  endfacet
  facet normal 0 0 1
    outer loop
      vertex 10.9242 -9.83622 21
      vertex 9.032 -8.13245 21
      vertex 9.83622 -10.9242 21
    endloop
  endfacet
  facet normal -0 0 1
    outer loop
      vertex 8.13245 -9.032 21
      vertex 9.83622 -10.9242 21
      vertex 9.032 -8.13245 21
    endloop
  endfacet
  facet normal 0 0 1
    outer loop
      vertex 9.83622 -10.9242 21
      vertex 8.13245 -9.032 21
      vertex 8.64044 -11.8925 21
    endloop
  endfacet
  facet normal -0 0 1
    outer loop
      vertex 7.14379 -9.83259 21
      vertex 8.64044 -11.8925 21
      vertex 8.13245 -9.032 21
    endloop
  endfacet
  facet normal 0 0 1
    outer loop
      vertex 8.64044 -11.8925 21
      vertex 7.14379 -9.83259 21
      vertex 7.35 -12.7306 21
    endloop
  endfacet
  facet normal -0 0 1
    outer loop
      vertex 6.07687 -10.5255 21
      vertex 7.35 -12.7306 21
      vertex 7.14379 -9.83259 21
    endloop
  endfacet
  facet normal 0 0 1
    outer loop
      vertex 6.07687 -10.5255 21
      vertex 5.97903 -13.4291 21
      vertex 7.35 -12.7306 21
    endloop
  endfacet
  facet normal -0 0 1
    outer loop
      vertex 4.94338 -11.103 21
      vertex 5.97903 -13.4291 21
      vertex 6.07687 -10.5255 21
    endloop
  endfacet
  facet normal 0 0 1
    outer loop
      vertex 4.94338 -11.103 21
      vertex 4.54255 -13.9805 21
      vertex 5.97903 -13.4291 21
    endloop
  endfacet
  facet normal -0 0 1
    outer loop
      vertex 3.75571 -11.5589 21
      vertex 4.54255 -13.9805 21
      vertex 4.94338 -11.103 21
    endloop
  endfacet
  facet normal 0 0 1
    outer loop
      vertex 3.75571 -11.5589 21
      vertex 3.0563 -14.3788 21
      vertex 4.54255 -13.9805 21
    endloop
  endfacet
  facet normal -0 0 1
    outer loop
      vertex 2.52691 -11.8882 21
      vertex 3.0563 -14.3788 21
      vertex 3.75571 -11.5589 21
    endloop
  endfacet
  facet normal 0 0 1
    outer loop
      vertex 2.52691 -11.8882 21
      vertex 1.53657 -14.6195 21
      vertex 3.0563 -14.3788 21
    endloop
  endfacet
  facet normal -0 0 1
    outer loop
      vertex 1.27041 -12.0872 21
      vertex 1.53657 -14.6195 21
      vertex 2.52691 -11.8882 21
    endloop
  endfacet
  facet normal -0 0 1
    outer loop
      vertex 0 -12.1537 21
      vertex 1.53657 -14.6195 21
      vertex 1.27041 -12.0872 21
    endloop
  endfacet
  facet normal 0 0 1
    outer loop
      vertex 0 -12.1537 21
      vertex 0 -14.7 21
      vertex 1.53657 -14.6195 21
    endloop
  endfacet
  facet normal 0 0 1
    outer loop
      vertex -1.27041 -12.0872 21
      vertex 0 -14.7 21
      vertex 0 -12.1537 21
    endloop
  endfacet
  facet normal 0 0 1
    outer loop
      vertex -1.27041 -12.0872 21
      vertex -1.53657 -14.6195 21
      vertex 0 -14.7 21
    endloop
  endfacet
  facet normal 0 0 1
    outer loop
      vertex -2.52691 -11.8882 21
      vertex -1.53657 -14.6195 21
      vertex -1.27041 -12.0872 21
    endloop
  endfacet
  facet normal 0 0 1
    outer loop
      vertex -2.52691 -11.8882 21
      vertex -3.0563 -14.3788 21
      vertex -1.53657 -14.6195 21
    endloop
  endfacet
  facet normal 0 0 1
    outer loop
      vertex -3.75571 -11.5589 21
      vertex -3.0563 -14.3788 21
      vertex -2.52691 -11.8882 21
    endloop
  endfacet
  facet normal 0 0 1
    outer loop
      vertex -3.75571 -11.5589 21
      vertex -4.54255 -13.9805 21
      vertex -3.0563 -14.3788 21
    endloop
  endfacet
  facet normal 0 0 1
    outer loop
      vertex -4.94338 -11.103 21
      vertex -4.54255 -13.9805 21
      vertex -3.75571 -11.5589 21
    endloop
  endfacet
  facet normal 0 0 1
    outer loop
      vertex -4.94338 -11.103 21
      vertex -5.97903 -13.4291 21
      vertex -4.54255 -13.9805 21
    endloop
  endfacet
  facet normal 0 0 1
    outer loop
      vertex -6.07687 -10.5255 21
      vertex -5.97903 -13.4291 21
      vertex -4.94338 -11.103 21
    endloop
  endfacet
  facet normal 0 0 1
    outer loop
      vertex -7.35 -12.7306 21
      vertex -6.07687 -10.5255 21
      vertex -7.14379 -9.83259 21
    endloop
  endfacet
  facet normal 0 0 1
    outer loop
      vertex -6.07687 -10.5255 21
      vertex -7.35 -12.7306 21
      vertex -5.97903 -13.4291 21
    endloop
  endfacet
  facet normal 0 0 1
    outer loop
      vertex -8.64044 -11.8925 21
      vertex -7.14379 -9.83259 21
      vertex -8.13245 -9.032 21
    endloop
  endfacet
  facet normal 0 0 1
    outer loop
      vertex -7.14379 -9.83259 21
      vertex -8.64044 -11.8925 21
      vertex -7.35 -12.7306 21
    endloop
  endfacet
  facet normal 0 0 1
    outer loop
      vertex -9.83622 -10.9242 21
      vertex -8.13245 -9.032 21
      vertex -9.032 -8.13245 21
    endloop
  endfacet
  facet normal 0 0 1
    outer loop
      vertex -10.9242 -9.83622 21
      vertex -9.032 -8.13245 21
      vertex -9.83259 -7.14379 21
    endloop
  endfacet
  facet normal 0 0 1
    outer loop
      vertex -8.13245 -9.032 21
      vertex -9.83622 -10.9242 21
      vertex -8.64044 -11.8925 21
    endloop
  endfacet
  facet normal 0 0 1
    outer loop
      vertex -11.8925 -8.64044 21
      vertex -9.83259 -7.14379 21
      vertex -10.5255 -6.07687 21
    endloop
  endfacet
  facet normal 0 0 1
    outer loop
      vertex -9.032 -8.13245 21
      vertex -10.9242 -9.83622 21
      vertex -9.83622 -10.9242 21
    endloop
  endfacet
  facet normal 0 0 1
    outer loop
      vertex -12.7306 -7.35 21
      vertex -10.5255 -6.07687 21
      vertex -11.103 -4.94338 21
    endloop
  endfacet
  facet normal 0 0 1
    outer loop
      vertex -13.4291 -5.97903 21
      vertex -11.103 -4.94338 21
      vertex -11.5589 -3.75571 21
    endloop
  endfacet
  facet normal 0 0 1
    outer loop
      vertex -13.9805 -4.54255 21
      vertex -11.5589 -3.75571 21
      vertex -11.8882 -2.52691 21
    endloop
  endfacet
  facet normal 0 0 1
    outer loop
      vertex -9.83259 -7.14379 21
      vertex -11.8925 -8.64044 21
      vertex -10.9242 -9.83622 21
    endloop
  endfacet
  facet normal 0 0 1
    outer loop
      vertex -14.3788 -3.0563 21
      vertex -11.8882 -2.52691 21
      vertex -12.0872 -1.27041 21
    endloop
  endfacet
  facet normal 0 0 1
    outer loop
      vertex -14.6195 -1.53657 21
      vertex -12.0872 -1.27041 21
      vertex -12.1537 0 21
    endloop
  endfacet
  facet normal -0 0 1
    outer loop
      vertex -14.3788 3.0563 21
      vertex -11.8882 2.52691 21
      vertex -13.9805 4.54255 21
    endloop
  endfacet
  facet normal 0 0 1
    outer loop
      vertex -10.5255 -6.07687 21
      vertex -12.7306 -7.35 21
      vertex -11.8925 -8.64044 21
    endloop
  endfacet
  facet normal 0 0 1
    outer loop
      vertex -11.8882 2.52691 21
      vertex -14.3788 3.0563 21
      vertex -12.0872 1.27041 21
    endloop
  endfacet
  facet normal 0 0 1
    outer loop
      vertex -11.103 -4.94338 21
      vertex -13.4291 -5.97903 21
      vertex -12.7306 -7.35 21
    endloop
  endfacet
  facet normal -0 0 1
    outer loop
      vertex -14.6195 1.53657 21
      vertex -12.0872 1.27041 21
      vertex -14.3788 3.0563 21
    endloop
  endfacet
  facet normal 0 0 1
    outer loop
      vertex -11.5589 -3.75571 21
      vertex -13.9805 -4.54255 21
      vertex -13.4291 -5.97903 21
    endloop
  endfacet
  facet normal 0 0 1
    outer loop
      vertex -12.0872 1.27041 21
      vertex -14.6195 1.53657 21
      vertex -12.1537 0 21
    endloop
  endfacet
  facet normal 0 0 1
    outer loop
      vertex -11.8882 -2.52691 21
      vertex -14.3788 -3.0563 21
      vertex -13.9805 -4.54255 21
    endloop
  endfacet
  facet normal 0 0 1
    outer loop
      vertex -14.7 0 21
      vertex -12.1537 0 21
      vertex -14.6195 1.53657 21
    endloop
  endfacet
  facet normal 0 0 1
    outer loop
      vertex -12.0872 -1.27041 21
      vertex -14.6195 -1.53657 21
      vertex -14.3788 -3.0563 21
    endloop
  endfacet
  facet normal 0 0 1
    outer loop
      vertex -12.1537 0 21
      vertex -14.7 0 21
      vertex -14.6195 -1.53657 21
    endloop
  endfacet
  facet normal 0.99863 0.0523363 0
    outer loop
      vertex 16 0 21
      vertex 15.9123 1.67245 0
      vertex 15.9123 1.67245 21
    endloop
  endfacet
  facet normal 0.99863 0.0523363 0
    outer loop
      vertex 15.9123 1.67245 0
      vertex 16 0 21
      vertex 16 0 0
    endloop
  endfacet
  facet normal -0.99863 0.0523363 0
    outer loop
      vertex -16 0 0
      vertex -15.9123 1.67245 21
      vertex -15.9123 1.67245 0
    endloop
  endfacet
  facet normal -0.99863 0.0523363 0
    outer loop
      vertex -15.9123 1.67245 21
      vertex -16 0 0
      vertex -16 0 21
    endloop
  endfacet
  facet normal 0.0523363 0.99863 -0
    outer loop
      vertex 1.67245 15.9123 0
      vertex 0 16 21
      vertex 1.67245 15.9123 21
    endloop
  endfacet
  facet normal 0.0523363 0.99863 0
    outer loop
      vertex 0 16 21
      vertex 1.67245 15.9123 0
      vertex 0 16 0
    endloop
  endfacet
  facet normal -0.0523363 -0.99863 0
    outer loop
      vertex -1.67245 -15.9123 0
      vertex 0 -16 21
      vertex -1.67245 -15.9123 21
    endloop
  endfacet
  facet normal -0.0523363 -0.99863 -0
    outer loop
      vertex 0 -16 21
      vertex -1.67245 -15.9123 0
      vertex 0 -16 0
    endloop
  endfacet
  facet normal 0.707107 0.707107 0
    outer loop
      vertex 11.8903 10.7061 21
      vertex 10.7061 11.8903 0
      vertex 10.7061 11.8903 21
    endloop
  endfacet
  facet normal 0.707107 0.707107 0
    outer loop
      vertex 10.7061 11.8903 0
      vertex 11.8903 10.7061 21
      vertex 11.8903 10.7061 0
    endloop
  endfacet
  facet normal -0.62932 0.777146 0
    outer loop
      vertex -9.40456 12.9443 0
      vertex -10.7061 11.8903 21
      vertex -9.40456 12.9443 21
    endloop
  endfacet
  facet normal -0.62932 0.777146 0
    outer loop
      vertex -10.7061 11.8903 21
      vertex -9.40456 12.9443 0
      vertex -10.7061 11.8903 0
    endloop
  endfacet
  facet normal -0.358368 0.93358 0
    outer loop
      vertex -4.94427 15.2169 0
      vertex -6.50779 14.6167 21
      vertex -4.94427 15.2169 21
    endloop
  endfacet
  facet normal -0.358368 0.93358 0
    outer loop
      vertex -6.50779 14.6167 21
      vertex -4.94427 15.2169 0
      vertex -6.50779 14.6167 0
    endloop
  endfacet
  facet normal -0.965926 -0.258819 0
    outer loop
      vertex -15.2169 -4.94427 0
      vertex -15.6504 -3.32659 21
      vertex -15.6504 -3.32659 0
    endloop
  endfacet
  facet normal -0.965926 -0.258819 0
    outer loop
      vertex -15.6504 -3.32659 21
      vertex -15.2169 -4.94427 0
      vertex -15.2169 -4.94427 21
    endloop
  endfacet
  facet normal 0.93358 0.358368 0
    outer loop
      vertex 15.2169 4.94427 21
      vertex 14.6167 6.50779 0
      vertex 14.6167 6.50779 21
    endloop
  endfacet
  facet normal 0.93358 0.358368 0
    outer loop
      vertex 14.6167 6.50779 0
      vertex 15.2169 4.94427 21
      vertex 15.2169 4.94427 0
    endloop
  endfacet
  facet normal 0.987688 0.156434 0
    outer loop
      vertex 15.9123 1.67245 21
      vertex 15.6504 3.32659 0
      vertex 15.6504 3.32659 21
    endloop
  endfacet
  facet normal 0.987688 0.156434 0
    outer loop
      vertex 15.6504 3.32659 0
      vertex 15.9123 1.67245 21
      vertex 15.9123 1.67245 0
    endloop
  endfacet
  facet normal 0.45399 0.891007 -0
    outer loop
      vertex 8 13.8564 0
      vertex 6.50779 14.6167 21
      vertex 8 13.8564 21
    endloop
  endfacet
  facet normal 0.45399 0.891007 0
    outer loop
      vertex 6.50779 14.6167 21
      vertex 8 13.8564 0
      vertex 6.50779 14.6167 0
    endloop
  endfacet
  facet normal 0.544639 0.83867 -0
    outer loop
      vertex 9.40456 12.9443 0
      vertex 8 13.8564 21
      vertex 9.40456 12.9443 21
    endloop
  endfacet
  facet normal 0.544639 0.83867 0
    outer loop
      vertex 8 13.8564 21
      vertex 9.40456 12.9443 0
      vertex 8 13.8564 0
    endloop
  endfacet
  facet normal -0.838671 0.544639 0
    outer loop
      vertex -13.8564 8 0
      vertex -12.9443 9.40456 21
      vertex -12.9443 9.40456 0
    endloop
  endfacet
  facet normal -0.838671 0.544639 0
    outer loop
      vertex -12.9443 9.40456 21
      vertex -13.8564 8 0
      vertex -13.8564 8 21
    endloop
  endfacet
  facet normal -0.777146 0.62932 0
    outer loop
      vertex -12.9443 9.40456 0
      vertex -11.8903 10.7061 21
      vertex -11.8903 10.7061 0
    endloop
  endfacet
  facet normal -0.777146 0.62932 0
    outer loop
      vertex -11.8903 10.7061 21
      vertex -12.9443 9.40456 0
      vertex -12.9443 9.40456 21
    endloop
  endfacet
  facet normal -0.453991 0.891007 0
    outer loop
      vertex -6.50779 14.6167 0
      vertex -8 13.8564 21
      vertex -6.50779 14.6167 21
    endloop
  endfacet
  facet normal -0.453991 0.891007 0
    outer loop
      vertex -8 13.8564 21
      vertex -6.50779 14.6167 0
      vertex -8 13.8564 0
    endloop
  endfacet
  facet normal -0.156434 0.987688 0
    outer loop
      vertex -1.67245 15.9123 0
      vertex -3.32659 15.6504 21
      vertex -1.67245 15.9123 21
    endloop
  endfacet
  facet normal -0.156434 0.987688 0
    outer loop
      vertex -3.32659 15.6504 21
      vertex -1.67245 15.9123 0
      vertex -3.32659 15.6504 0
    endloop
  endfacet
  facet normal 0.891007 -0.453991 0
    outer loop
      vertex 13.8564 -8 21
      vertex 14.6167 -6.50779 0
      vertex 14.6167 -6.50779 21
    endloop
  endfacet
  facet normal 0.891007 -0.453991 0
    outer loop
      vertex 14.6167 -6.50779 0
      vertex 13.8564 -8 21
      vertex 13.8564 -8 0
    endloop
  endfacet
  facet normal 0.258819 -0.965926 0
    outer loop
      vertex 3.32659 -15.6504 0
      vertex 4.94427 -15.2169 21
      vertex 3.32659 -15.6504 21
    endloop
  endfacet
  facet normal 0.258819 -0.965926 0
    outer loop
      vertex 4.94427 -15.2169 21
      vertex 3.32659 -15.6504 0
      vertex 4.94427 -15.2169 0
    endloop
  endfacet
  facet normal 0.707107 -0.707107 0
    outer loop
      vertex 10.7061 -11.8903 21
      vertex 11.8903 -10.7061 0
      vertex 11.8903 -10.7061 21
    endloop
  endfacet
  facet normal 0.707107 -0.707107 0
    outer loop
      vertex 11.8903 -10.7061 0
      vertex 10.7061 -11.8903 21
      vertex 10.7061 -11.8903 0
    endloop
  endfacet
  facet normal 0.965926 -0.258819 0
    outer loop
      vertex 15.2169 -4.94427 21
      vertex 15.6504 -3.32659 0
      vertex 15.6504 -3.32659 21
    endloop
  endfacet
  facet normal 0.965926 -0.258819 0
    outer loop
      vertex 15.6504 -3.32659 0
      vertex 15.2169 -4.94427 21
      vertex 15.2169 -4.94427 0
    endloop
  endfacet
  facet normal -0.358368 -0.93358 0
    outer loop
      vertex -6.50779 -14.6167 0
      vertex -4.94427 -15.2169 21
      vertex -6.50779 -14.6167 21
    endloop
  endfacet
  facet normal -0.358368 -0.93358 -0
    outer loop
      vertex -4.94427 -15.2169 21
      vertex -6.50779 -14.6167 0
      vertex -4.94427 -15.2169 0
    endloop
  endfacet
  facet normal -0.891007 -0.453991 0
    outer loop
      vertex -13.8564 -8 0
      vertex -14.6167 -6.50779 21
      vertex -14.6167 -6.50779 0
    endloop
  endfacet
  facet normal -0.891007 -0.453991 0
    outer loop
      vertex -14.6167 -6.50779 21
      vertex -13.8564 -8 0
      vertex -13.8564 -8 21
    endloop
  endfacet
  facet normal -0.838671 -0.544639 0
    outer loop
      vertex -12.9443 -9.40456 0
      vertex -13.8564 -8 21
      vertex -13.8564 -8 0
    endloop
  endfacet
  facet normal -0.838671 -0.544639 0
    outer loop
      vertex -13.8564 -8 21
      vertex -12.9443 -9.40456 0
      vertex -12.9443 -9.40456 21
    endloop
  endfacet
  facet normal 0 0 -1
    outer loop
      vertex 15.9123 -1.67245 0
      vertex 15.9123 1.67245 0
      vertex 16 0 0
    endloop
  endfacet
  facet normal 0 0 -1
    outer loop
      vertex 15.6504 -3.32659 0
      vertex 15.9123 1.67245 0
      vertex 15.9123 -1.67245 0
    endloop
  endfacet
  facet normal 0 0 -1
    outer loop
      vertex 15.6504 -3.32659 0
      vertex 15.6504 3.32659 0
      vertex 15.9123 1.67245 0
    endloop
  endfacet
  facet normal 0 0 -1
    outer loop
      vertex 15.2169 -4.94427 0
      vertex 15.6504 3.32659 0
      vertex 15.6504 -3.32659 0
    endloop
  endfacet
  facet normal 0 0 -1
    outer loop
      vertex 15.2169 -4.94427 0
      vertex 15.2169 4.94427 0
      vertex 15.6504 3.32659 0
    endloop
  endfacet
  facet normal 0 0 -1
    outer loop
      vertex 14.6167 -6.50779 0
      vertex 15.2169 4.94427 0
      vertex 15.2169 -4.94427 0
    endloop
  endfacet
  facet normal 0 0 -1
    outer loop
      vertex 14.6167 -6.50779 0
      vertex 14.6167 6.50779 0
      vertex 15.2169 4.94427 0
    endloop
  endfacet
  facet normal 0 0 -1
    outer loop
      vertex 13.8564 -8 0
      vertex 14.6167 6.50779 0
      vertex 14.6167 -6.50779 0
    endloop
  endfacet
  facet normal 0 0 -1
    outer loop
      vertex 13.8564 -8 0
      vertex 13.8564 8 0
      vertex 14.6167 6.50779 0
    endloop
  endfacet
  facet normal 0 0 -1
    outer loop
      vertex 12.9443 -9.40456 0
      vertex 13.8564 8 0
      vertex 13.8564 -8 0
    endloop
  endfacet
  facet normal 0 0 -1
    outer loop
      vertex 12.9443 -9.40456 0
      vertex 12.9443 9.40456 0
      vertex 13.8564 8 0
    endloop
  endfacet
  facet normal 0 0 -1
    outer loop
      vertex 11.8903 -10.7061 0
      vertex 12.9443 9.40456 0
      vertex 12.9443 -9.40456 0
    endloop
  endfacet
  facet normal 0 0 -1
    outer loop
      vertex 11.8903 -10.7061 0
      vertex 11.8903 10.7061 0
      vertex 12.9443 9.40456 0
    endloop
  endfacet
  facet normal 0 0 -1
    outer loop
      vertex 10.7061 -11.8903 0
      vertex 11.8903 10.7061 0
      vertex 11.8903 -10.7061 0
    endloop
  endfacet
  facet normal 0 0 -1
    outer loop
      vertex 10.7061 -11.8903 0
      vertex 10.7061 11.8903 0
      vertex 11.8903 10.7061 0
    endloop
  endfacet
  facet normal 0 0 -1
    outer loop
      vertex 9.40456 -12.9443 0
      vertex 10.7061 11.8903 0
      vertex 10.7061 -11.8903 0
    endloop
  endfacet
  facet normal 0 0 -1
    outer loop
      vertex 9.40456 -12.9443 0
      vertex 9.40456 12.9443 0
      vertex 10.7061 11.8903 0
    endloop
  endfacet
  facet normal 0 0 -1
    outer loop
      vertex 8 -13.8564 0
      vertex 9.40456 12.9443 0
      vertex 9.40456 -12.9443 0
    endloop
  endfacet
  facet normal 0 0 -1
    outer loop
      vertex 8 -13.8564 0
      vertex 8 13.8564 0
      vertex 9.40456 12.9443 0
    endloop
  endfacet
  facet normal 0 0 -1
    outer loop
      vertex 6.50779 -14.6167 0
      vertex 8 13.8564 0
      vertex 8 -13.8564 0
    endloop
  endfacet
  facet normal 0 0 -1
    outer loop
      vertex 6.50779 -14.6167 0
      vertex 6.50779 14.6167 0
      vertex 8 13.8564 0
    endloop
  endfacet
  facet normal 0 0 -1
    outer loop
      vertex 4.94427 -15.2169 0
      vertex 6.50779 14.6167 0
      vertex 6.50779 -14.6167 0
    endloop
  endfacet
  facet normal 0 0 -1
    outer loop
      vertex 4.94427 -15.2169 0
      vertex 4.94427 15.2169 0
      vertex 6.50779 14.6167 0
    endloop
  endfacet
  facet normal 0 0 -1
    outer loop
      vertex 3.32659 -15.6504 0
      vertex 4.94427 15.2169 0
      vertex 4.94427 -15.2169 0
    endloop
  endfacet
  facet normal 0 0 -1
    outer loop
      vertex 3.32659 -15.6504 0
      vertex 3.32659 15.6504 0
      vertex 4.94427 15.2169 0
    endloop
  endfacet
  facet normal 0 0 -1
    outer loop
      vertex 1.67245 -15.9123 0
      vertex 3.32659 15.6504 0
      vertex 3.32659 -15.6504 0
    endloop
  endfacet
  facet normal 0 0 -1
    outer loop
      vertex 1.67245 -15.9123 0
      vertex 1.67245 15.9123 0
      vertex 3.32659 15.6504 0
    endloop
  endfacet
  facet normal 0 0 -1
    outer loop
      vertex 0 -16 0
      vertex 1.67245 15.9123 0
      vertex 1.67245 -15.9123 0
    endloop
  endfacet
  facet normal 0 0 -1
    outer loop
      vertex 0 -16 0
      vertex 0 16 0
      vertex 1.67245 15.9123 0
    endloop
  endfacet
  facet normal 0 0 -1
    outer loop
      vertex -1.67245 -15.9123 0
      vertex 0 16 0
      vertex 0 -16 0
    endloop
  endfacet
  facet normal 0 0 -1
    outer loop
      vertex -1.67245 -15.9123 0
      vertex -1.67245 15.9123 0
      vertex 0 16 0
    endloop
  endfacet
  facet normal 0 0 -1
    outer loop
      vertex -3.32659 -15.6504 0
      vertex -1.67245 15.9123 0
      vertex -1.67245 -15.9123 0
    endloop
  endfacet
  facet normal 0 0 -1
    outer loop
      vertex -3.32659 -15.6504 0
      vertex -3.32659 15.6504 0
      vertex -1.67245 15.9123 0
    endloop
  endfacet
  facet normal 0 0 -1
    outer loop
      vertex -4.94427 -15.2169 0
      vertex -3.32659 15.6504 0
      vertex -3.32659 -15.6504 0
    endloop
  endfacet
  facet normal 0 0 -1
    outer loop
      vertex -4.94427 -15.2169 0
      vertex -4.94427 15.2169 0
      vertex -3.32659 15.6504 0
    endloop
  endfacet
  facet normal 0 0 -1
    outer loop
      vertex -6.50779 -14.6167 0
      vertex -4.94427 15.2169 0
      vertex -4.94427 -15.2169 0
    endloop
  endfacet
  facet normal 0 0 -1
    outer loop
      vertex -6.50779 -14.6167 0
      vertex -6.50779 14.6167 0
      vertex -4.94427 15.2169 0
    endloop
  endfacet
  facet normal 0 0 -1
    outer loop
      vertex -6.50779 -14.6167 0
      vertex -8 13.8564 0
      vertex -6.50779 14.6167 0
    endloop
  endfacet
  facet normal 0 0 -1
    outer loop
      vertex -8 -13.8564 0
      vertex -8 13.8564 0
      vertex -6.50779 -14.6167 0
    endloop
  endfacet
  facet normal 0 0 -1
    outer loop
      vertex -9.40456 -12.9443 0
      vertex -8 13.8564 0
      vertex -8 -13.8564 0
    endloop
  endfacet
  facet normal 0 0 -1
    outer loop
      vertex -9.40456 -12.9443 0
      vertex -9.40456 12.9443 0
      vertex -8 13.8564 0
    endloop
  endfacet
  facet normal 0 0 -1
    outer loop
      vertex -10.7061 -11.8903 0
      vertex -9.40456 12.9443 0
      vertex -9.40456 -12.9443 0
    endloop
  endfacet
  facet normal 0 0 -1
    outer loop
      vertex -10.7061 -11.8903 0
      vertex -10.7061 11.8903 0
      vertex -9.40456 12.9443 0
    endloop
  endfacet
  facet normal 0 0 -1
    outer loop
      vertex -11.8903 -10.7061 0
      vertex -10.7061 11.8903 0
      vertex -10.7061 -11.8903 0
    endloop
  endfacet
  facet normal 0 0 -1
    outer loop
      vertex -11.8903 -10.7061 0
      vertex -11.8903 10.7061 0
      vertex -10.7061 11.8903 0
    endloop
  endfacet
  facet normal 0 0 -1
    outer loop
      vertex -12.9443 -9.40456 0
      vertex -11.8903 10.7061 0
      vertex -11.8903 -10.7061 0
    endloop
  endfacet
  facet normal 0 0 -1
    outer loop
      vertex -12.9443 -9.40456 0
      vertex -12.9443 9.40456 0
      vertex -11.8903 10.7061 0
    endloop
  endfacet
  facet normal 0 0 -1
    outer loop
      vertex -13.8564 -8 0
      vertex -12.9443 9.40456 0
      vertex -12.9443 -9.40456 0
    endloop
  endfacet
  facet normal 0 0 -1
    outer loop
      vertex -13.8564 -8 0
      vertex -13.8564 8 0
      vertex -12.9443 9.40456 0
    endloop
  endfacet
  facet normal 0 0 -1
    outer loop
      vertex -14.6167 -6.50779 0
      vertex -13.8564 8 0
      vertex -13.8564 -8 0
    endloop
  endfacet
  facet normal 0 0 -1
    outer loop
      vertex -14.6167 -6.50779 0
      vertex -14.6167 6.50779 0
      vertex -13.8564 8 0
    endloop
  endfacet
  facet normal 0 0 -1
    outer loop
      vertex -15.2169 -4.94427 0
      vertex -14.6167 6.50779 0
      vertex -14.6167 -6.50779 0
    endloop
  endfacet
  facet normal 0 0 -1
    outer loop
      vertex -15.2169 -4.94427 0
      vertex -15.2169 4.94427 0
      vertex -14.6167 6.50779 0
    endloop
  endfacet
  facet normal 0 0 -1
    outer loop
      vertex -15.6504 -3.32659 0
      vertex -15.2169 4.94427 0
      vertex -15.2169 -4.94427 0
    endloop
  endfacet
  facet normal 0 0 -1
    outer loop
      vertex -15.6504 -3.32659 0
      vertex -15.6504 3.32659 0
      vertex -15.2169 4.94427 0
    endloop
  endfacet
  facet normal 0 0 -1
    outer loop
      vertex -15.9123 -1.67245 0
      vertex -15.6504 3.32659 0
      vertex -15.6504 -3.32659 0
    endloop
  endfacet
  facet normal 0 0 -1
    outer loop
      vertex -15.9123 -1.67245 0
      vertex -15.9123 1.67245 0
      vertex -15.6504 3.32659 0
    endloop
  endfacet
  facet normal 0 -0 -1
    outer loop
      vertex -15.9123 1.67245 0
      vertex -15.9123 -1.67245 0
      vertex -16 0 0
    endloop
  endfacet
  facet normal 0.965926 0.258819 0
    outer loop
      vertex 15.6504 3.32659 21
      vertex 15.2169 4.94427 0
      vertex 15.2169 4.94427 21
    endloop
  endfacet
  facet normal 0.965926 0.258819 0
    outer loop
      vertex 15.2169 4.94427 0
      vertex 15.6504 3.32659 21
      vertex 15.6504 3.32659 0
    endloop
  endfacet
  facet normal 0.838671 0.544639 0
    outer loop
      vertex 13.8564 8 21
      vertex 12.9443 9.40456 0
      vertex 12.9443 9.40456 21
    endloop
  endfacet
  facet normal 0.838671 0.544639 0
    outer loop
      vertex 12.9443 9.40456 0
      vertex 13.8564 8 21
      vertex 13.8564 8 0
    endloop
  endfacet
  facet normal 0.777146 0.62932 0
    outer loop
      vertex 12.9443 9.40456 21
      vertex 11.8903 10.7061 0
      vertex 11.8903 10.7061 21
    endloop
  endfacet
  facet normal 0.777146 0.62932 0
    outer loop
      vertex 11.8903 10.7061 0
      vertex 12.9443 9.40456 21
      vertex 12.9443 9.40456 0
    endloop
  endfacet
  facet normal 0.891007 0.453991 0
    outer loop
      vertex 14.6167 6.50779 21
      vertex 13.8564 8 0
      vertex 13.8564 8 21
    endloop
  endfacet
  facet normal 0.891007 0.453991 0
    outer loop
      vertex 13.8564 8 0
      vertex 14.6167 6.50779 21
      vertex 14.6167 6.50779 0
    endloop
  endfacet
  facet normal 0.258819 0.965926 -0
    outer loop
      vertex 4.94427 15.2169 0
      vertex 3.32659 15.6504 21
      vertex 4.94427 15.2169 21
    endloop
  endfacet
  facet normal 0.258819 0.965926 0
    outer loop
      vertex 3.32659 15.6504 21
      vertex 4.94427 15.2169 0
      vertex 3.32659 15.6504 0
    endloop
  endfacet
  facet normal 0.156434 0.987688 -0
    outer loop
      vertex 3.32659 15.6504 0
      vertex 1.67245 15.9123 21
      vertex 3.32659 15.6504 21
    endloop
  endfacet
  facet normal 0.156434 0.987688 0
    outer loop
      vertex 1.67245 15.9123 21
      vertex 3.32659 15.6504 0
      vertex 1.67245 15.9123 0
    endloop
  endfacet
  facet normal 0.62932 0.777146 -0
    outer loop
      vertex 10.7061 11.8903 0
      vertex 9.40456 12.9443 21
      vertex 10.7061 11.8903 21
    endloop
  endfacet
  facet normal 0.62932 0.777146 0
    outer loop
      vertex 9.40456 12.9443 21
      vertex 10.7061 11.8903 0
      vertex 9.40456 12.9443 0
    endloop
  endfacet
  facet normal -0.965926 0.258819 0
    outer loop
      vertex -15.6504 3.32659 0
      vertex -15.2169 4.94427 21
      vertex -15.2169 4.94427 0
    endloop
  endfacet
  facet normal -0.965926 0.258819 0
    outer loop
      vertex -15.2169 4.94427 21
      vertex -15.6504 3.32659 0
      vertex -15.6504 3.32659 21
    endloop
  endfacet
  facet normal -0.891007 0.453991 0
    outer loop
      vertex -14.6167 6.50779 0
      vertex -13.8564 8 21
      vertex -13.8564 8 0
    endloop
  endfacet
  facet normal -0.891007 0.453991 0
    outer loop
      vertex -13.8564 8 21
      vertex -14.6167 6.50779 0
      vertex -14.6167 6.50779 21
    endloop
  endfacet
  facet normal -0.987688 0.156434 0
    outer loop
      vertex -15.9123 1.67245 0
      vertex -15.6504 3.32659 21
      vertex -15.6504 3.32659 0
    endloop
  endfacet
  facet normal -0.987688 0.156434 0
    outer loop
      vertex -15.6504 3.32659 21
      vertex -15.9123 1.67245 0
      vertex -15.9123 1.67245 21
    endloop
  endfacet
  facet normal -0.544639 0.838671 0
    outer loop
      vertex -8 13.8564 0
      vertex -9.40456 12.9443 21
      vertex -8 13.8564 21
    endloop
  endfacet
  facet normal -0.544639 0.838671 0
    outer loop
      vertex -9.40456 12.9443 21
      vertex -8 13.8564 0
      vertex -9.40456 12.9443 0
    endloop
  endfacet
  facet normal -0.258819 0.965926 0
    outer loop
      vertex -3.32659 15.6504 0
      vertex -4.94427 15.2169 21
      vertex -3.32659 15.6504 21
    endloop
  endfacet
  facet normal -0.258819 0.965926 0
    outer loop
      vertex -4.94427 15.2169 21
      vertex -3.32659 15.6504 0
      vertex -4.94427 15.2169 0
    endloop
  endfacet
  facet normal -0.0523363 0.99863 0
    outer loop
      vertex 0 16 0
      vertex -1.67245 15.9123 21
      vertex 0 16 21
    endloop
  endfacet
  facet normal -0.0523363 0.99863 0
    outer loop
      vertex -1.67245 15.9123 21
      vertex 0 16 0
      vertex -1.67245 15.9123 0
    endloop
  endfacet
  facet normal 0.0523363 -0.99863 0
    outer loop
      vertex 0 -16 0
      vertex 1.67245 -15.9123 21
      vertex 0 -16 21
    endloop
  endfacet
  facet normal 0.0523363 -0.99863 0
    outer loop
      vertex 1.67245 -15.9123 21
      vertex 0 -16 0
      vertex 1.67245 -15.9123 0
    endloop
  endfacet
  facet normal 0.45399 -0.891007 0
    outer loop
      vertex 6.50779 -14.6167 0
      vertex 8 -13.8564 21
      vertex 6.50779 -14.6167 21
    endloop
  endfacet
  facet normal 0.45399 -0.891007 0
    outer loop
      vertex 8 -13.8564 21
      vertex 6.50779 -14.6167 0
      vertex 8 -13.8564 0
    endloop
  endfacet
  facet normal 0.62932 -0.777146 0
    outer loop
      vertex 9.40456 -12.9443 0
      vertex 10.7061 -11.8903 21
      vertex 9.40456 -12.9443 21
    endloop
  endfacet
  facet normal 0.62932 -0.777146 0
    outer loop
      vertex 10.7061 -11.8903 21
      vertex 9.40456 -12.9443 0
      vertex 10.7061 -11.8903 0
    endloop
  endfacet
  facet normal 0.544639 -0.83867 0
    outer loop
      vertex 8 -13.8564 0
      vertex 9.40456 -12.9443 21
      vertex 8 -13.8564 21
    endloop
  endfacet
  facet normal 0.544639 -0.83867 0
    outer loop
      vertex 9.40456 -12.9443 21
      vertex 8 -13.8564 0
      vertex 9.40456 -12.9443 0
    endloop
  endfacet
  facet normal 0.777146 -0.62932 0
    outer loop
      vertex 11.8903 -10.7061 21
      vertex 12.9443 -9.40456 0
      vertex 12.9443 -9.40456 21
    endloop
  endfacet
  facet normal 0.777146 -0.62932 0
    outer loop
      vertex 12.9443 -9.40456 0
      vertex 11.8903 -10.7061 21
      vertex 11.8903 -10.7061 0
    endloop
  endfacet
  facet normal 0.838671 -0.544639 0
    outer loop
      vertex 12.9443 -9.40456 21
      vertex 13.8564 -8 0
      vertex 13.8564 -8 21
    endloop
  endfacet
  facet normal 0.838671 -0.544639 0
    outer loop
      vertex 13.8564 -8 0
      vertex 12.9443 -9.40456 21
      vertex 12.9443 -9.40456 0
    endloop
  endfacet
  facet normal -0.707107 -0.707107 0
    outer loop
      vertex -10.7061 -11.8903 0
      vertex -11.8903 -10.7061 21
      vertex -11.8903 -10.7061 0
    endloop
  endfacet
  facet normal -0.707107 -0.707107 0
    outer loop
      vertex -11.8903 -10.7061 21
      vertex -10.7061 -11.8903 0
      vertex -10.7061 -11.8903 21
    endloop
  endfacet
  facet normal -0.62932 -0.777146 0
    outer loop
      vertex -10.7061 -11.8903 0
      vertex -9.40456 -12.9443 21
      vertex -10.7061 -11.8903 21
    endloop
  endfacet
  facet normal -0.62932 -0.777146 -0
    outer loop
      vertex -9.40456 -12.9443 21
      vertex -10.7061 -11.8903 0
      vertex -9.40456 -12.9443 0
    endloop
  endfacet
  facet normal -0.544639 -0.83867 0
    outer loop
      vertex -9.40456 -12.9443 0
      vertex -8 -13.8564 21
      vertex -9.40456 -12.9443 21
    endloop
  endfacet
  facet normal -0.544639 -0.83867 -0
    outer loop
      vertex -8 -13.8564 21
      vertex -9.40456 -12.9443 0
      vertex -8 -13.8564 0
    endloop
  endfacet
  facet normal -0.156434 -0.987688 0
    outer loop
      vertex -3.32659 -15.6504 0
      vertex -1.67245 -15.9123 21
      vertex -3.32659 -15.6504 21
    endloop
  endfacet
  facet normal -0.156434 -0.987688 -0
    outer loop
      vertex -1.67245 -15.9123 21
      vertex -3.32659 -15.6504 0
      vertex -1.67245 -15.9123 0
    endloop
  endfacet
  facet normal -0.777146 -0.62932 0
    outer loop
      vertex -11.8903 -10.7061 0
      vertex -12.9443 -9.40456 21
      vertex -12.9443 -9.40456 0
    endloop
  endfacet
  facet normal -0.777146 -0.62932 0
    outer loop
      vertex -12.9443 -9.40456 21
      vertex -11.8903 -10.7061 0
      vertex -11.8903 -10.7061 21
    endloop
  endfacet
  facet normal -0.99863 -0.0523363 0
    outer loop
      vertex -15.9123 -1.67245 0
      vertex -16 0 21
      vertex -16 0 0
    endloop
  endfacet
  facet normal -0.99863 -0.0523363 0
    outer loop
      vertex -16 0 21
      vertex -15.9123 -1.67245 0
      vertex -15.9123 -1.67245 21
    endloop
  endfacet
  facet normal 0.358368 0.93358 -0
    outer loop
      vertex 6.50779 14.6167 0
      vertex 4.94427 15.2169 21
      vertex 6.50779 14.6167 21
    endloop
  endfacet
  facet normal 0.358368 0.93358 0
    outer loop
      vertex 4.94427 15.2169 21
      vertex 6.50779 14.6167 0
      vertex 4.94427 15.2169 0
    endloop
  endfacet
  facet normal -0.707107 0.707107 0
    outer loop
      vertex -11.8903 10.7061 0
      vertex -10.7061 11.8903 21
      vertex -10.7061 11.8903 0
    endloop
  endfacet
  facet normal -0.707107 0.707107 0
    outer loop
      vertex -10.7061 11.8903 21
      vertex -11.8903 10.7061 0
      vertex -11.8903 10.7061 21
    endloop
  endfacet
  facet normal -0.93358 0.358368 0
    outer loop
      vertex -15.2169 4.94427 0
      vertex -14.6167 6.50779 21
      vertex -14.6167 6.50779 0
    endloop
  endfacet
  facet normal -0.93358 0.358368 0
    outer loop
      vertex -14.6167 6.50779 21
      vertex -15.2169 4.94427 0
      vertex -15.2169 4.94427 21
    endloop
  endfacet
  facet normal 0.156434 -0.987688 0
    outer loop
      vertex 1.67245 -15.9123 0
      vertex 3.32659 -15.6504 21
      vertex 1.67245 -15.9123 21
    endloop
  endfacet
  facet normal 0.156434 -0.987688 0
    outer loop
      vertex 3.32659 -15.6504 21
      vertex 1.67245 -15.9123 0
      vertex 3.32659 -15.6504 0
    endloop
  endfacet
  facet normal 0.358368 -0.93358 0
    outer loop
      vertex 4.94427 -15.2169 0
      vertex 6.50779 -14.6167 21
      vertex 4.94427 -15.2169 21
    endloop
  endfacet
  facet normal 0.358368 -0.93358 0
    outer loop
      vertex 6.50779 -14.6167 21
      vertex 4.94427 -15.2169 0
      vertex 6.50779 -14.6167 0
    endloop
  endfacet
  facet normal 0.93358 -0.358368 0
    outer loop
      vertex 14.6167 -6.50779 21
      vertex 15.2169 -4.94427 0
      vertex 15.2169 -4.94427 21
    endloop
  endfacet
  facet normal 0.93358 -0.358368 0
    outer loop
      vertex 15.2169 -4.94427 0
      vertex 14.6167 -6.50779 21
      vertex 14.6167 -6.50779 0
    endloop
  endfacet
  facet normal 0.987688 -0.156434 0
    outer loop
      vertex 15.6504 -3.32659 21
      vertex 15.9123 -1.67245 0
      vertex 15.9123 -1.67245 21
    endloop
  endfacet
  facet normal 0.987688 -0.156434 0
    outer loop
      vertex 15.9123 -1.67245 0
      vertex 15.6504 -3.32659 21
      vertex 15.6504 -3.32659 0
    endloop
  endfacet
  facet normal 0.99863 -0.0523363 0
    outer loop
      vertex 15.9123 -1.67245 21
      vertex 16 0 0
      vertex 16 0 21
    endloop
  endfacet
  facet normal 0.99863 -0.0523363 0
    outer loop
      vertex 16 0 0
      vertex 15.9123 -1.67245 21
      vertex 15.9123 -1.67245 0
    endloop
  endfacet
  facet normal -0.45399 -0.891007 0
    outer loop
      vertex -8 -13.8564 0
      vertex -6.50779 -14.6167 21
      vertex -8 -13.8564 21
    endloop
  endfacet
  facet normal -0.45399 -0.891007 -0
    outer loop
      vertex -6.50779 -14.6167 21
      vertex -8 -13.8564 0
      vertex -6.50779 -14.6167 0
    endloop
  endfacet
  facet normal -0.258819 -0.965926 0
    outer loop
      vertex -4.94427 -15.2169 0
      vertex -3.32659 -15.6504 21
      vertex -4.94427 -15.2169 21
    endloop
  endfacet
  facet normal -0.258819 -0.965926 -0
    outer loop
      vertex -3.32659 -15.6504 21
      vertex -4.94427 -15.2169 0
      vertex -3.32659 -15.6504 0
    endloop
  endfacet
  facet normal -0.93358 -0.358368 0
    outer loop
      vertex -14.6167 -6.50779 0
      vertex -15.2169 -4.94427 21
      vertex -15.2169 -4.94427 0
    endloop
  endfacet
  facet normal -0.93358 -0.358368 0
    outer loop
      vertex -15.2169 -4.94427 21
      vertex -14.6167 -6.50779 0
      vertex -14.6167 -6.50779 21
    endloop
  endfacet
  facet normal -0.987688 -0.156434 0
    outer loop
      vertex -15.6504 -3.32659 0
      vertex -15.9123 -1.67245 21
      vertex -15.9123 -1.67245 0
    endloop
  endfacet
  facet normal -0.987688 -0.156434 0
    outer loop
      vertex -15.9123 -1.67245 21
      vertex -15.6504 -3.32659 0
      vertex -15.6504 -3.32659 21
    endloop
  endfacet
endsolid OpenSCAD_Model
