solid OpenSCAD_Model
  facet normal -0.99863 -0.0523366 0
    outer loop
      vertex 12.7325 0 2
      vertex 12.6627 1.33091 21
      vertex 12.6627 1.33091 2
    endloop
  endfacet
  facet normal -0.99863 -0.0523366 0
    outer loop
      vertex 12.6627 1.33091 21
      vertex 12.7325 0 2
      vertex 12.7325 0 21
    endloop
  endfacet
  facet normal 0.99863 -0.0523366 0
    outer loop
      vertex -12.7325 0 21
      vertex -12.6627 1.33091 2
      vertex -12.6627 1.33091 21
    endloop
  endfacet
  facet normal 0.99863 -0.0523366 0
    outer loop
      vertex -12.6627 1.33091 2
      vertex -12.7325 0 21
      vertex -12.7325 0 2
    endloop
  endfacet
  facet normal -0.0523366 -0.99863 0
    outer loop
      vertex 0 12.7325 2
      vertex 1.33091 12.6627 21
      vertex 0 12.7325 21
    endloop
  endfacet
  facet normal -0.0523366 -0.99863 -0
    outer loop
      vertex 1.33091 12.6627 21
      vertex 0 12.7325 2
      vertex 1.33091 12.6627 2
    endloop
  endfacet
  facet normal 0.0523366 0.99863 -0
    outer loop
      vertex 0 -12.7325 2
      vertex -1.33091 -12.6627 21
      vertex 0 -12.7325 21
    endloop
  endfacet
  facet normal 0.0523366 0.99863 0
    outer loop
      vertex -1.33091 -12.6627 21
      vertex 0 -12.7325 2
      vertex -1.33091 -12.6627 2
    endloop
  endfacet
  facet normal -0.707107 -0.707107 0
    outer loop
      vertex 9.46209 8.5197 2
      vertex 8.5197 9.46209 21
      vertex 8.5197 9.46209 2
    endloop
  endfacet
  facet normal -0.707107 -0.707107 0
    outer loop
      vertex 8.5197 9.46209 21
      vertex 9.46209 8.5197 2
      vertex 9.46209 8.5197 21
    endloop
  endfacet
  facet normal 0.62932 -0.777146 0
    outer loop
      vertex -8.5197 9.46209 2
      vertex -7.48397 10.3008 21
      vertex -8.5197 9.46209 21
    endloop
  endfacet
  facet normal 0.62932 -0.777146 0
    outer loop
      vertex -7.48397 10.3008 21
      vertex -8.5197 9.46209 2
      vertex -7.48397 10.3008 2
    endloop
  endfacet
  facet normal 0.358368 -0.93358 0
    outer loop
      vertex -5.17877 11.6317 2
      vertex -3.93456 12.1093 21
      vertex -5.17877 11.6317 21
    endloop
  endfacet
  facet normal 0.358368 -0.93358 0
    outer loop
      vertex -3.93456 12.1093 21
      vertex -5.17877 11.6317 2
      vertex -3.93456 12.1093 2
    endloop
  endfacet
  facet normal 0.965926 0.258818 0
    outer loop
      vertex -12.1093 -3.93456 21
      vertex -12.4543 -2.64723 2
      vertex -12.4543 -2.64723 21
    endloop
  endfacet
  facet normal 0.965926 0.258818 0
    outer loop
      vertex -12.4543 -2.64723 2
      vertex -12.1093 -3.93456 21
      vertex -12.1093 -3.93456 2
    endloop
  endfacet
  facet normal -0.93358 -0.358368 0
    outer loop
      vertex 12.1093 3.93456 2
      vertex 11.6317 5.17877 21
      vertex 11.6317 5.17877 2
    endloop
  endfacet
  facet normal -0.93358 -0.358368 0
    outer loop
      vertex 11.6317 5.17877 21
      vertex 12.1093 3.93456 2
      vertex 12.1093 3.93456 21
    endloop
  endfacet
  facet normal -0.453991 -0.891006 0
    outer loop
      vertex 5.17877 11.6317 2
      vertex 6.36625 11.0267 21
      vertex 5.17877 11.6317 21
    endloop
  endfacet
  facet normal -0.453991 -0.891006 -0
    outer loop
      vertex 6.36625 11.0267 21
      vertex 5.17877 11.6317 2
      vertex 6.36625 11.0267 2
    endloop
  endfacet
  facet normal -0.62932 -0.777146 0
    outer loop
      vertex 7.48397 10.3008 2
      vertex 8.5197 9.46209 21
      vertex 7.48397 10.3008 21
    endloop
  endfacet
  facet normal -0.62932 -0.777146 -0
    outer loop
      vertex 8.5197 9.46209 21
      vertex 7.48397 10.3008 2
      vertex 8.5197 9.46209 2
    endloop
  endfacet
  facet normal 0.83867 -0.544639 0
    outer loop
      vertex -11.0267 6.36625 21
      vertex -10.3008 7.48397 2
      vertex -10.3008 7.48397 21
    endloop
  endfacet
  facet normal 0.83867 -0.544639 0
    outer loop
      vertex -10.3008 7.48397 2
      vertex -11.0267 6.36625 21
      vertex -11.0267 6.36625 2
    endloop
  endfacet
  facet normal 0.777146 -0.62932 0
    outer loop
      vertex -10.3008 7.48397 21
      vertex -9.46209 8.5197 2
      vertex -9.46209 8.5197 21
    endloop
  endfacet
  facet normal 0.777146 -0.62932 0
    outer loop
      vertex -9.46209 8.5197 2
      vertex -10.3008 7.48397 21
      vertex -10.3008 7.48397 2
    endloop
  endfacet
  facet normal 0.544639 -0.83867 0
    outer loop
      vertex -7.48397 10.3008 2
      vertex -6.36625 11.0267 21
      vertex -7.48397 10.3008 21
    endloop
  endfacet
  facet normal 0.544639 -0.83867 0
    outer loop
      vertex -6.36625 11.0267 21
      vertex -7.48397 10.3008 2
      vertex -6.36625 11.0267 2
    endloop
  endfacet
  facet normal 0.156434 -0.987688 0
    outer loop
      vertex -2.64723 12.4543 2
      vertex -1.33091 12.6627 21
      vertex -2.64723 12.4543 21
    endloop
  endfacet
  facet normal 0.156434 -0.987688 0
    outer loop
      vertex -1.33091 12.6627 21
      vertex -2.64723 12.4543 2
      vertex -1.33091 12.6627 2
    endloop
  endfacet
  facet normal -0.891006 0.453991 0
    outer loop
      vertex 11.0267 -6.36625 2
      vertex 11.6317 -5.17877 21
      vertex 11.6317 -5.17877 2
    endloop
  endfacet
  facet normal -0.891006 0.453991 0
    outer loop
      vertex 11.6317 -5.17877 21
      vertex 11.0267 -6.36625 2
      vertex 11.0267 -6.36625 21
    endloop
  endfacet
  facet normal -0.258818 0.965926 0
    outer loop
      vertex 3.93456 -12.1093 2
      vertex 2.64723 -12.4543 21
      vertex 3.93456 -12.1093 21
    endloop
  endfacet
  facet normal -0.258818 0.965926 0
    outer loop
      vertex 2.64723 -12.4543 21
      vertex 3.93456 -12.1093 2
      vertex 2.64723 -12.4543 2
    endloop
  endfacet
  facet normal -0.707107 0.707107 0
    outer loop
      vertex 8.5197 -9.46209 2
      vertex 9.46209 -8.5197 21
      vertex 9.46209 -8.5197 2
    endloop
  endfacet
  facet normal -0.707107 0.707107 0
    outer loop
      vertex 9.46209 -8.5197 21
      vertex 8.5197 -9.46209 2
      vertex 8.5197 -9.46209 21
    endloop
  endfacet
  facet normal -0.965926 0.258818 0
    outer loop
      vertex 12.1093 -3.93456 2
      vertex 12.4543 -2.64723 21
      vertex 12.4543 -2.64723 2
    endloop
  endfacet
  facet normal -0.965926 0.258818 0
    outer loop
      vertex 12.4543 -2.64723 21
      vertex 12.1093 -3.93456 2
      vertex 12.1093 -3.93456 21
    endloop
  endfacet
  facet normal 0.358368 0.93358 -0
    outer loop
      vertex -3.93456 -12.1093 2
      vertex -5.17877 -11.6317 21
      vertex -3.93456 -12.1093 21
    endloop
  endfacet
  facet normal 0.358368 0.93358 0
    outer loop
      vertex -5.17877 -11.6317 21
      vertex -3.93456 -12.1093 2
      vertex -5.17877 -11.6317 2
    endloop
  endfacet
  facet normal 0.777146 0.62932 0
    outer loop
      vertex -9.46209 -8.5197 21
      vertex -10.3008 -7.48397 2
      vertex -10.3008 -7.48397 21
    endloop
  endfacet
  facet normal 0.777146 0.62932 0
    outer loop
      vertex -10.3008 -7.48397 2
      vertex -9.46209 -8.5197 21
      vertex -9.46209 -8.5197 2
    endloop
  endfacet
  facet normal 0 0 1
    outer loop
      vertex 12.6627 1.33091 2
      vertex 12.6627 -1.33091 2
      vertex 12.7325 0 2
    endloop
  endfacet
  facet normal 0 0 1
    outer loop
      vertex 12.4543 2.64723 2
      vertex 12.6627 -1.33091 2
      vertex 12.6627 1.33091 2
    endloop
  endfacet
  facet normal 0 0 1
    outer loop
      vertex 12.4543 2.64723 2
      vertex 12.4543 -2.64723 2
      vertex 12.6627 -1.33091 2
    endloop
  endfacet
  facet normal 0 0 1
    outer loop
      vertex 12.1093 3.93456 2
      vertex 12.4543 -2.64723 2
      vertex 12.4543 2.64723 2
    endloop
  endfacet
  facet normal 0 0 1
    outer loop
      vertex 12.1093 3.93456 2
      vertex 12.1093 -3.93456 2
      vertex 12.4543 -2.64723 2
    endloop
  endfacet
  facet normal 0 0 1
    outer loop
      vertex 11.6317 5.17877 2
      vertex 12.1093 -3.93456 2
      vertex 12.1093 3.93456 2
    endloop
  endfacet
  facet normal 0 0 1
    outer loop
      vertex 11.6317 5.17877 2
      vertex 11.6317 -5.17877 2
      vertex 12.1093 -3.93456 2
    endloop
  endfacet
  facet normal 0 0 1
    outer loop
      vertex 11.0267 6.36625 2
      vertex 11.6317 -5.17877 2
      vertex 11.6317 5.17877 2
    endloop
  endfacet
  facet normal 0 0 1
    outer loop
      vertex 11.0267 6.36625 2
      vertex 11.0267 -6.36625 2
      vertex 11.6317 -5.17877 2
    endloop
  endfacet
  facet normal 0 0 1
    outer loop
      vertex 10.3008 7.48397 2
      vertex 11.0267 -6.36625 2
      vertex 11.0267 6.36625 2
    endloop
  endfacet
  facet normal 0 0 1
    outer loop
      vertex 10.3008 7.48397 2
      vertex 10.3008 -7.48397 2
      vertex 11.0267 -6.36625 2
    endloop
  endfacet
  facet normal 0 0 1
    outer loop
      vertex 9.46209 8.5197 2
      vertex 10.3008 -7.48397 2
      vertex 10.3008 7.48397 2
    endloop
  endfacet
  facet normal 0 0 1
    outer loop
      vertex 9.46209 8.5197 2
      vertex 9.46209 -8.5197 2
      vertex 10.3008 -7.48397 2
    endloop
  endfacet
  facet normal 0 0 1
    outer loop
      vertex 8.5197 9.46209 2
      vertex 9.46209 -8.5197 2
      vertex 9.46209 8.5197 2
    endloop
  endfacet
  facet normal 0 0 1
    outer loop
      vertex 8.5197 9.46209 2
      vertex 8.5197 -9.46209 2
      vertex 9.46209 -8.5197 2
    endloop
  endfacet
  facet normal 0 0 1
    outer loop
      vertex 7.48397 10.3008 2
      vertex 8.5197 -9.46209 2
      vertex 8.5197 9.46209 2
    endloop
  endfacet
  facet normal 0 0 1
    outer loop
      vertex 7.48397 10.3008 2
      vertex 7.48397 -10.3008 2
      vertex 8.5197 -9.46209 2
    endloop
  endfacet
  facet normal 0 0 1
    outer loop
      vertex 6.36625 11.0267 2
      vertex 7.48397 -10.3008 2
      vertex 7.48397 10.3008 2
    endloop
  endfacet
  facet normal 0 0 1
    outer loop
      vertex 6.36625 11.0267 2
      vertex 6.36625 -11.0267 2
      vertex 7.48397 -10.3008 2
    endloop
  endfacet
  facet normal 0 0 1
    outer loop
      vertex 5.17877 11.6317 2
      vertex 6.36625 -11.0267 2
      vertex 6.36625 11.0267 2
    endloop
  endfacet
  facet normal 0 0 1
    outer loop
      vertex 5.17877 11.6317 2
      vertex 5.17877 -11.6317 2
      vertex 6.36625 -11.0267 2
    endloop
  endfacet
  facet normal 0 0 1
    outer loop
      vertex 3.93456 12.1093 2
      vertex 5.17877 -11.6317 2
      vertex 5.17877 11.6317 2
    endloop
  endfacet
  facet normal 0 0 1
    outer loop
      vertex 3.93456 12.1093 2
      vertex 3.93456 -12.1093 2
      vertex 5.17877 -11.6317 2
    endloop
  endfacet
  facet normal 0 0 1
    outer loop
      vertex 2.64723 12.4543 2
      vertex 3.93456 -12.1093 2
      vertex 3.93456 12.1093 2
    endloop
  endfacet
  facet normal 0 0 1
    outer loop
      vertex 2.64723 12.4543 2
      vertex 2.64723 -12.4543 2
      vertex 3.93456 -12.1093 2
    endloop
  endfacet
  facet normal 0 0 1
    outer loop
      vertex 1.33091 12.6627 2
      vertex 2.64723 -12.4543 2
      vertex 2.64723 12.4543 2
    endloop
  endfacet
  facet normal 0 0 1
    outer loop
      vertex 1.33091 12.6627 2
      vertex 1.33091 -12.6627 2
      vertex 2.64723 -12.4543 2
    endloop
  endfacet
  facet normal 0 0 1
    outer loop
      vertex 0 12.7325 2
      vertex 1.33091 -12.6627 2
      vertex 1.33091 12.6627 2
    endloop
  endfacet
  facet normal 0 0 1
    outer loop
      vertex 0 12.7325 2
      vertex 0 -12.7325 2
      vertex 1.33091 -12.6627 2
    endloop
  endfacet
  facet normal -0 0 1
    outer loop
      vertex -1.33091 12.6627 2
      vertex 0 -12.7325 2
      vertex 0 12.7325 2
    endloop
  endfacet
  facet normal 0 0 1
    outer loop
      vertex -1.33091 12.6627 2
      vertex -1.33091 -12.6627 2
      vertex 0 -12.7325 2
    endloop
  endfacet
  facet normal -0 0 1
    outer loop
      vertex -2.64723 12.4543 2
      vertex -1.33091 -12.6627 2
      vertex -1.33091 12.6627 2
    endloop
  endfacet
  facet normal 0 0 1
    outer loop
      vertex -2.64723 12.4543 2
      vertex -2.64723 -12.4543 2
      vertex -1.33091 -12.6627 2
    endloop
  endfacet
  facet normal -0 0 1
    outer loop
      vertex -3.93456 12.1093 2
      vertex -2.64723 -12.4543 2
      vertex -2.64723 12.4543 2
    endloop
  endfacet
  facet normal 0 0 1
    outer loop
      vertex -3.93456 12.1093 2
      vertex -3.93456 -12.1093 2
      vertex -2.64723 -12.4543 2
    endloop
  endfacet
  facet normal -0 0 1
    outer loop
      vertex -5.17877 11.6317 2
      vertex -3.93456 -12.1093 2
      vertex -3.93456 12.1093 2
    endloop
  endfacet
  facet normal 0 0 1
    outer loop
      vertex -5.17877 11.6317 2
      vertex -5.17877 -11.6317 2
      vertex -3.93456 -12.1093 2
    endloop
  endfacet
  facet normal -0 0 1
    outer loop
      vertex -6.36625 11.0267 2
      vertex -5.17877 -11.6317 2
      vertex -5.17877 11.6317 2
    endloop
  endfacet
  facet normal 0 0 1
    outer loop
      vertex -6.36625 11.0267 2
      vertex -6.36625 -11.0267 2
      vertex -5.17877 -11.6317 2
    endloop
  endfacet
  facet normal -0 0 1
    outer loop
      vertex -7.48397 10.3008 2
      vertex -6.36625 -11.0267 2
      vertex -6.36625 11.0267 2
    endloop
  endfacet
  facet normal 0 0 1
    outer loop
      vertex -7.48397 10.3008 2
      vertex -7.48397 -10.3008 2
      vertex -6.36625 -11.0267 2
    endloop
  endfacet
  facet normal -0 0 1
    outer loop
      vertex -8.5197 9.46209 2
      vertex -7.48397 -10.3008 2
      vertex -7.48397 10.3008 2
    endloop
  endfacet
  facet normal 0 0 1
    outer loop
      vertex -8.5197 9.46209 2
      vertex -8.5197 -9.46209 2
      vertex -7.48397 -10.3008 2
    endloop
  endfacet
  facet normal -0 0 1
    outer loop
      vertex -9.46209 8.5197 2
      vertex -8.5197 -9.46209 2
      vertex -8.5197 9.46209 2
    endloop
  endfacet
  facet normal 0 0 1
    outer loop
      vertex -9.46209 8.5197 2
      vertex -9.46209 -8.5197 2
      vertex -8.5197 -9.46209 2
    endloop
  endfacet
  facet normal -0 0 1
    outer loop
      vertex -10.3008 7.48397 2
      vertex -9.46209 -8.5197 2
      vertex -9.46209 8.5197 2
    endloop
  endfacet
  facet normal 0 0 1
    outer loop
      vertex -10.3008 7.48397 2
      vertex -10.3008 -7.48397 2
      vertex -9.46209 -8.5197 2
    endloop
  endfacet
  facet normal -0 0 1
    outer loop
      vertex -11.0267 6.36625 2
      vertex -10.3008 -7.48397 2
      vertex -10.3008 7.48397 2
    endloop
  endfacet
  facet normal 0 0 1
    outer loop
      vertex -11.0267 6.36625 2
      vertex -11.0267 -6.36625 2
      vertex -10.3008 -7.48397 2
    endloop
  endfacet
  facet normal -0 0 1
    outer loop
      vertex -11.6317 5.17877 2
      vertex -11.0267 -6.36625 2
      vertex -11.0267 6.36625 2
    endloop
  endfacet
  facet normal 0 0 1
    outer loop
      vertex -11.6317 5.17877 2
      vertex -11.6317 -5.17877 2
      vertex -11.0267 -6.36625 2
    endloop
  endfacet
  facet normal -0 0 1
    outer loop
      vertex -12.1093 3.93456 2
      vertex -11.6317 -5.17877 2
      vertex -11.6317 5.17877 2
    endloop
  endfacet
  facet normal 0 0 1
    outer loop
      vertex -12.1093 3.93456 2
      vertex -12.1093 -3.93456 2
      vertex -11.6317 -5.17877 2
    endloop
  endfacet
  facet normal -0 0 1
    outer loop
      vertex -12.4543 2.64723 2
      vertex -12.1093 -3.93456 2
      vertex -12.1093 3.93456 2
    endloop
  endfacet
  facet normal 0 0 1
    outer loop
      vertex -12.4543 2.64723 2
      vertex -12.4543 -2.64723 2
      vertex -12.1093 -3.93456 2
    endloop
  endfacet
  facet normal -0 0 1
    outer loop
      vertex -12.6627 1.33091 2
      vertex -12.4543 -2.64723 2
      vertex -12.4543 2.64723 2
    endloop
  endfacet
  facet normal 0 0 1
    outer loop
      vertex -12.6627 1.33091 2
      vertex -12.6627 -1.33091 2
      vertex -12.4543 -2.64723 2
    endloop
  endfacet
  facet normal 0 -0 1
    outer loop
      vertex -12.6627 -1.33091 2
      vertex -12.6627 1.33091 2
      vertex -12.7325 0 2
    endloop
  endfacet
  facet normal -0.965926 -0.258818 0
    outer loop
      vertex 12.4543 2.64723 2
      vertex 12.1093 3.93456 21
      vertex 12.1093 3.93456 2
    endloop
  endfacet
  facet normal -0.965926 -0.258818 0
    outer loop
      vertex 12.1093 3.93456 21
      vertex 12.4543 2.64723 2
      vertex 12.4543 2.64723 21
    endloop
  endfacet
  facet normal -0.987688 -0.156434 0
    outer loop
      vertex 12.6627 1.33091 2
      vertex 12.4543 2.64723 21
      vertex 12.4543 2.64723 2
    endloop
  endfacet
  facet normal -0.987688 -0.156434 0
    outer loop
      vertex 12.4543 2.64723 21
      vertex 12.6627 1.33091 2
      vertex 12.6627 1.33091 21
    endloop
  endfacet
  facet normal -0.83867 -0.544639 0
    outer loop
      vertex 11.0267 6.36625 2
      vertex 10.3008 7.48397 21
      vertex 10.3008 7.48397 2
    endloop
  endfacet
  facet normal -0.83867 -0.544639 0
    outer loop
      vertex 10.3008 7.48397 21
      vertex 11.0267 6.36625 2
      vertex 11.0267 6.36625 21
    endloop
  endfacet
  facet normal -0.891006 -0.453991 0
    outer loop
      vertex 11.6317 5.17877 2
      vertex 11.0267 6.36625 21
      vertex 11.0267 6.36625 2
    endloop
  endfacet
  facet normal -0.891006 -0.453991 0
    outer loop
      vertex 11.0267 6.36625 21
      vertex 11.6317 5.17877 2
      vertex 11.6317 5.17877 21
    endloop
  endfacet
  facet normal -0.258818 -0.965926 0
    outer loop
      vertex 2.64723 12.4543 2
      vertex 3.93456 12.1093 21
      vertex 2.64723 12.4543 21
    endloop
  endfacet
  facet normal -0.258818 -0.965926 -0
    outer loop
      vertex 3.93456 12.1093 21
      vertex 2.64723 12.4543 2
      vertex 3.93456 12.1093 2
    endloop
  endfacet
  facet normal -0.358368 -0.93358 0
    outer loop
      vertex 3.93456 12.1093 2
      vertex 5.17877 11.6317 21
      vertex 3.93456 12.1093 21
    endloop
  endfacet
  facet normal -0.358368 -0.93358 -0
    outer loop
      vertex 5.17877 11.6317 21
      vertex 3.93456 12.1093 2
      vertex 5.17877 11.6317 2
    endloop
  endfacet
  facet normal -0.156434 -0.987688 0
    outer loop
      vertex 1.33091 12.6627 2
      vertex 2.64723 12.4543 21
      vertex 1.33091 12.6627 21
    endloop
  endfacet
  facet normal -0.156434 -0.987688 -0
    outer loop
      vertex 2.64723 12.4543 21
      vertex 1.33091 12.6627 2
      vertex 2.64723 12.4543 2
    endloop
  endfacet
  facet normal 0.965926 -0.258818 0
    outer loop
      vertex -12.4543 2.64723 21
      vertex -12.1093 3.93456 2
      vertex -12.1093 3.93456 21
    endloop
  endfacet
  facet normal 0.965926 -0.258818 0
    outer loop
      vertex -12.1093 3.93456 2
      vertex -12.4543 2.64723 21
      vertex -12.4543 2.64723 2
    endloop
  endfacet
  facet normal 0.707107 -0.707107 0
    outer loop
      vertex -9.46209 8.5197 21
      vertex -8.5197 9.46209 2
      vertex -8.5197 9.46209 21
    endloop
  endfacet
  facet normal 0.707107 -0.707107 0
    outer loop
      vertex -8.5197 9.46209 2
      vertex -9.46209 8.5197 21
      vertex -9.46209 8.5197 2
    endloop
  endfacet
  facet normal 0.891006 -0.453991 0
    outer loop
      vertex -11.6317 5.17877 21
      vertex -11.0267 6.36625 2
      vertex -11.0267 6.36625 21
    endloop
  endfacet
  facet normal 0.891006 -0.453991 0
    outer loop
      vertex -11.0267 6.36625 2
      vertex -11.6317 5.17877 21
      vertex -11.6317 5.17877 2
    endloop
  endfacet
  facet normal 0.93358 -0.358368 0
    outer loop
      vertex -12.1093 3.93456 21
      vertex -11.6317 5.17877 2
      vertex -11.6317 5.17877 21
    endloop
  endfacet
  facet normal 0.93358 -0.358368 0
    outer loop
      vertex -11.6317 5.17877 2
      vertex -12.1093 3.93456 21
      vertex -12.1093 3.93456 2
    endloop
  endfacet
  facet normal 0.987688 -0.156434 0
    outer loop
      vertex -12.6627 1.33091 21
      vertex -12.4543 2.64723 2
      vertex -12.4543 2.64723 21
    endloop
  endfacet
  facet normal 0.987688 -0.156434 0
    outer loop
      vertex -12.4543 2.64723 2
      vertex -12.6627 1.33091 21
      vertex -12.6627 1.33091 2
    endloop
  endfacet
  facet normal 0.453991 -0.891006 0
    outer loop
      vertex -6.36625 11.0267 2
      vertex -5.17877 11.6317 21
      vertex -6.36625 11.0267 21
    endloop
  endfacet
  facet normal 0.453991 -0.891006 0
    outer loop
      vertex -5.17877 11.6317 21
      vertex -6.36625 11.0267 2
      vertex -5.17877 11.6317 2
    endloop
  endfacet
  facet normal 0.0523366 -0.99863 0
    outer loop
      vertex -1.33091 12.6627 2
      vertex 0 12.7325 21
      vertex -1.33091 12.6627 21
    endloop
  endfacet
  facet normal 0.0523366 -0.99863 0
    outer loop
      vertex 0 12.7325 21
      vertex -1.33091 12.6627 2
      vertex 0 12.7325 2
    endloop
  endfacet
  facet normal -0.99863 0.0523366 0
    outer loop
      vertex 12.6627 -1.33091 2
      vertex 12.7325 0 21
      vertex 12.7325 0 2
    endloop
  endfacet
  facet normal -0.99863 0.0523366 0
    outer loop
      vertex 12.7325 0 21
      vertex 12.6627 -1.33091 2
      vertex 12.6627 -1.33091 21
    endloop
  endfacet
  facet normal -0.0523366 0.99863 0
    outer loop
      vertex 1.33091 -12.6627 2
      vertex 0 -12.7325 21
      vertex 1.33091 -12.6627 21
    endloop
  endfacet
  facet normal -0.0523366 0.99863 0
    outer loop
      vertex 0 -12.7325 21
      vertex 1.33091 -12.6627 2
      vertex 0 -12.7325 2
    endloop
  endfacet
  facet normal -0.453991 0.891006 0
    outer loop
      vertex 6.36625 -11.0267 2
      vertex 5.17877 -11.6317 21
      vertex 6.36625 -11.0267 21
    endloop
  endfacet
  facet normal -0.453991 0.891006 0
    outer loop
      vertex 5.17877 -11.6317 21
      vertex 6.36625 -11.0267 2
      vertex 5.17877 -11.6317 2
    endloop
  endfacet
  facet normal -0.62932 0.777146 0
    outer loop
      vertex 8.5197 -9.46209 2
      vertex 7.48397 -10.3008 21
      vertex 8.5197 -9.46209 21
    endloop
  endfacet
  facet normal -0.62932 0.777146 0
    outer loop
      vertex 7.48397 -10.3008 21
      vertex 8.5197 -9.46209 2
      vertex 7.48397 -10.3008 2
    endloop
  endfacet
  facet normal -0.544639 0.83867 0
    outer loop
      vertex 7.48397 -10.3008 2
      vertex 6.36625 -11.0267 21
      vertex 7.48397 -10.3008 21
    endloop
  endfacet
  facet normal -0.544639 0.83867 0
    outer loop
      vertex 6.36625 -11.0267 21
      vertex 7.48397 -10.3008 2
      vertex 6.36625 -11.0267 2
    endloop
  endfacet
  facet normal -0.777146 0.62932 0
    outer loop
      vertex 9.46209 -8.5197 2
      vertex 10.3008 -7.48397 21
      vertex 10.3008 -7.48397 2
    endloop
  endfacet
  facet normal -0.777146 0.62932 0
    outer loop
      vertex 10.3008 -7.48397 21
      vertex 9.46209 -8.5197 2
      vertex 9.46209 -8.5197 21
    endloop
  endfacet
  facet normal -0.83867 0.544639 0
    outer loop
      vertex 10.3008 -7.48397 2
      vertex 11.0267 -6.36625 21
      vertex 11.0267 -6.36625 2
    endloop
  endfacet
  facet normal -0.83867 0.544639 0
    outer loop
      vertex 11.0267 -6.36625 21
      vertex 10.3008 -7.48397 2
      vertex 10.3008 -7.48397 21
    endloop
  endfacet
  facet normal 0.707107 0.707107 0
    outer loop
      vertex -8.5197 -9.46209 21
      vertex -9.46209 -8.5197 2
      vertex -9.46209 -8.5197 21
    endloop
  endfacet
  facet normal 0.707107 0.707107 0
    outer loop
      vertex -9.46209 -8.5197 2
      vertex -8.5197 -9.46209 21
      vertex -8.5197 -9.46209 2
    endloop
  endfacet
  facet normal 0.62932 0.777146 -0
    outer loop
      vertex -7.48397 -10.3008 2
      vertex -8.5197 -9.46209 21
      vertex -7.48397 -10.3008 21
    endloop
  endfacet
  facet normal 0.62932 0.777146 0
    outer loop
      vertex -8.5197 -9.46209 21
      vertex -7.48397 -10.3008 2
      vertex -8.5197 -9.46209 2
    endloop
  endfacet
  facet normal 0.544639 0.83867 -0
    outer loop
      vertex -6.36625 -11.0267 2
      vertex -7.48397 -10.3008 21
      vertex -6.36625 -11.0267 21
    endloop
  endfacet
  facet normal 0.544639 0.83867 0
    outer loop
      vertex -7.48397 -10.3008 21
      vertex -6.36625 -11.0267 2
      vertex -7.48397 -10.3008 2
    endloop
  endfacet
  facet normal 0.156434 0.987688 -0
    outer loop
      vertex -1.33091 -12.6627 2
      vertex -2.64723 -12.4543 21
      vertex -1.33091 -12.6627 21
    endloop
  endfacet
  facet normal 0.156434 0.987688 0
    outer loop
      vertex -2.64723 -12.4543 21
      vertex -1.33091 -12.6627 2
      vertex -2.64723 -12.4543 2
    endloop
  endfacet
  facet normal 0.891006 0.453991 0
    outer loop
      vertex -11.0267 -6.36625 21
      vertex -11.6317 -5.17877 2
      vertex -11.6317 -5.17877 21
    endloop
  endfacet
  facet normal 0.891006 0.453991 0
    outer loop
      vertex -11.6317 -5.17877 2
      vertex -11.0267 -6.36625 21
      vertex -11.0267 -6.36625 2
    endloop
  endfacet
  facet normal 0.99863 0.0523366 0
    outer loop
      vertex -12.6627 -1.33091 21
      vertex -12.7325 0 2
      vertex -12.7325 0 21
    endloop
  endfacet
  facet normal 0.99863 0.0523366 0
    outer loop
      vertex -12.7325 0 2
      vertex -12.6627 -1.33091 21
      vertex -12.6627 -1.33091 2
    endloop
  endfacet
  facet normal -0.777146 -0.62932 0
    outer loop
      vertex 10.3008 7.48397 2
      vertex 9.46209 8.5197 21
      vertex 9.46209 8.5197 2
    endloop
  endfacet
  facet normal -0.777146 -0.62932 0
    outer loop
      vertex 9.46209 8.5197 21
      vertex 10.3008 7.48397 2
      vertex 10.3008 7.48397 21
    endloop
  endfacet
  facet normal -0.544639 -0.83867 0
    outer loop
      vertex 6.36625 11.0267 2
      vertex 7.48397 10.3008 21
      vertex 6.36625 11.0267 21
    endloop
  endfacet
  facet normal -0.544639 -0.83867 -0
    outer loop
      vertex 7.48397 10.3008 21
      vertex 6.36625 11.0267 2
      vertex 7.48397 10.3008 2
    endloop
  endfacet
  facet normal 0.258818 -0.965926 0
    outer loop
      vertex -3.93456 12.1093 2
      vertex -2.64723 12.4543 21
      vertex -3.93456 12.1093 21
    endloop
  endfacet
  facet normal 0.258818 -0.965926 0
    outer loop
      vertex -2.64723 12.4543 21
      vertex -3.93456 12.1093 2
      vertex -2.64723 12.4543 2
    endloop
  endfacet
  facet normal -0.156434 0.987688 0
    outer loop
      vertex 2.64723 -12.4543 2
      vertex 1.33091 -12.6627 21
      vertex 2.64723 -12.4543 21
    endloop
  endfacet
  facet normal -0.156434 0.987688 0
    outer loop
      vertex 1.33091 -12.6627 21
      vertex 2.64723 -12.4543 2
      vertex 1.33091 -12.6627 2
    endloop
  endfacet
  facet normal -0.358368 0.93358 0
    outer loop
      vertex 5.17877 -11.6317 2
      vertex 3.93456 -12.1093 21
      vertex 5.17877 -11.6317 21
    endloop
  endfacet
  facet normal -0.358368 0.93358 0
    outer loop
      vertex 3.93456 -12.1093 21
      vertex 5.17877 -11.6317 2
      vertex 3.93456 -12.1093 2
    endloop
  endfacet
  facet normal -0.93358 0.358368 0
    outer loop
      vertex 11.6317 -5.17877 2
      vertex 12.1093 -3.93456 21
      vertex 12.1093 -3.93456 2
    endloop
  endfacet
  facet normal -0.93358 0.358368 0
    outer loop
      vertex 12.1093 -3.93456 21
      vertex 11.6317 -5.17877 2
      vertex 11.6317 -5.17877 21
    endloop
  endfacet
  facet normal -0.987688 0.156434 0
    outer loop
      vertex 12.4543 -2.64723 2
      vertex 12.6627 -1.33091 21
      vertex 12.6627 -1.33091 2
    endloop
  endfacet
  facet normal -0.987688 0.156434 0
    outer loop
      vertex 12.6627 -1.33091 21
      vertex 12.4543 -2.64723 2
      vertex 12.4543 -2.64723 21
    endloop
  endfacet
  facet normal 0.453991 0.891006 -0
    outer loop
      vertex -5.17877 -11.6317 2
      vertex -6.36625 -11.0267 21
      vertex -5.17877 -11.6317 21
    endloop
  endfacet
  facet normal 0.453991 0.891006 0
    outer loop
      vertex -6.36625 -11.0267 21
      vertex -5.17877 -11.6317 2
      vertex -6.36625 -11.0267 2
    endloop
  endfacet
  facet normal 0.258818 0.965926 -0
    outer loop
      vertex -2.64723 -12.4543 2
      vertex -3.93456 -12.1093 21
      vertex -2.64723 -12.4543 21
    endloop
  endfacet
  facet normal 0.258818 0.965926 0
    outer loop
      vertex -3.93456 -12.1093 21
      vertex -2.64723 -12.4543 2
      vertex -3.93456 -12.1093 2
    endloop
  endfacet
  facet normal 0.83867 0.544639 0
    outer loop
      vertex -10.3008 -7.48397 21
      vertex -11.0267 -6.36625 2
      vertex -11.0267 -6.36625 21
    endloop
  endfacet
  facet normal 0.83867 0.544639 0
    outer loop
      vertex -11.0267 -6.36625 2
      vertex -10.3008 -7.48397 21
      vertex -10.3008 -7.48397 2
    endloop
  endfacet
  facet normal 0.93358 0.358368 0
    outer loop
      vertex -11.6317 -5.17877 21
      vertex -12.1093 -3.93456 2
      vertex -12.1093 -3.93456 21
    endloop
  endfacet
  facet normal 0.93358 0.358368 0
    outer loop
      vertex -12.1093 -3.93456 2
      vertex -11.6317 -5.17877 21
      vertex -11.6317 -5.17877 2
    endloop
  endfacet
  facet normal 0.987688 0.156434 0
    outer loop
      vertex -12.4543 -2.64723 21
      vertex -12.6627 -1.33091 2
      vertex -12.6627 -1.33091 21
    endloop
  endfacet
  facet normal 0.987688 0.156434 0
    outer loop
      vertex -12.6627 -1.33091 2
      vertex -12.4543 -2.64723 21
      vertex -12.4543 -2.64723 2
    endloop
  endfacet
  facet normal 0 0 1
    outer loop
      vertex 15.4 0 21
      vertex 16 0 21
      vertex 15.9123 1.67245 21
    endloop
  endfacet
  facet normal 0 0 1
    outer loop
      vertex 15.3156 1.60974 21
      vertex 15.9123 1.67245 21
      vertex 15.6504 3.32659 21
    endloop
  endfacet
  facet normal 0 0 1
    outer loop
      vertex 16 0 21
      vertex 15.4 0 21
      vertex 15.9123 -1.67245 21
    endloop
  endfacet
  facet normal -0 0 1
    outer loop
      vertex 15.3156 -1.60974 21
      vertex 15.9123 -1.67245 21
      vertex 15.4 0 21
    endloop
  endfacet
  facet normal 0 0 1
    outer loop
      vertex 15.9123 1.67245 21
      vertex 15.3156 1.60974 21
      vertex 15.4 0 21
    endloop
  endfacet
  facet normal 0 0 1
    outer loop
      vertex 15.0635 3.20184 21
      vertex 15.6504 3.32659 21
      vertex 15.2169 4.94427 21
    endloop
  endfacet
  facet normal 0 0 1
    outer loop
      vertex 15.6504 3.32659 21
      vertex 15.0635 3.20184 21
      vertex 15.3156 1.60974 21
    endloop
  endfacet
  facet normal 0 0 1
    outer loop
      vertex 15.2169 4.94427 21
      vertex 14.6463 4.75886 21
      vertex 15.0635 3.20184 21
    endloop
  endfacet
  facet normal 0 0 1
    outer loop
      vertex 14.6167 6.50779 21
      vertex 14.6463 4.75886 21
      vertex 15.2169 4.94427 21
    endloop
  endfacet
  facet normal 0 0 1
    outer loop
      vertex 14.6167 6.50779 21
      vertex 14.0686 6.26374 21
      vertex 14.6463 4.75886 21
    endloop
  endfacet
  facet normal 0 0 1
    outer loop
      vertex 13.8564 8 21
      vertex 14.0686 6.26374 21
      vertex 14.6167 6.50779 21
    endloop
  endfacet
  facet normal 0 0 1
    outer loop
      vertex 13.8564 8 21
      vertex 13.3368 7.7 21
      vertex 14.0686 6.26374 21
    endloop
  endfacet
  facet normal 0 0 1
    outer loop
      vertex 12.9443 9.40456 21
      vertex 13.3368 7.7 21
      vertex 13.8564 8 21
    endloop
  endfacet
  facet normal 0 0 1
    outer loop
      vertex 12.9443 9.40456 21
      vertex 12.4589 9.05189 21
      vertex 13.3368 7.7 21
    endloop
  endfacet
  facet normal 0 0 1
    outer loop
      vertex 11.8903 10.7061 21
      vertex 12.4589 9.05189 21
      vertex 12.9443 9.40456 21
    endloop
  endfacet
  facet normal 0 0 1
    outer loop
      vertex 11.8903 10.7061 21
      vertex 11.4444 10.3046 21
      vertex 12.4589 9.05189 21
    endloop
  endfacet
  facet normal 0 0 1
    outer loop
      vertex 10.7061 11.8903 21
      vertex 11.4444 10.3046 21
      vertex 11.8903 10.7061 21
    endloop
  endfacet
  facet normal 0 0 1
    outer loop
      vertex 10.7061 11.8903 21
      vertex 10.3046 11.4444 21
      vertex 11.4444 10.3046 21
    endloop
  endfacet
  facet normal 0 0 1
    outer loop
      vertex 9.40456 12.9443 21
      vertex 10.3046 11.4444 21
      vertex 10.7061 11.8903 21
    endloop
  endfacet
  facet normal 0 0 1
    outer loop
      vertex 9.40456 12.9443 21
      vertex 9.05189 12.4589 21
      vertex 10.3046 11.4444 21
    endloop
  endfacet
  facet normal 0 0 1
    outer loop
      vertex 8 13.8564 21
      vertex 9.05189 12.4589 21
      vertex 9.40456 12.9443 21
    endloop
  endfacet
  facet normal 0 0 1
    outer loop
      vertex 8 13.8564 21
      vertex 7.7 13.3368 21
      vertex 9.05189 12.4589 21
    endloop
  endfacet
  facet normal 0 0 1
    outer loop
      vertex 6.50779 14.6167 21
      vertex 7.7 13.3368 21
      vertex 8 13.8564 21
    endloop
  endfacet
  facet normal 0 0 1
    outer loop
      vertex 6.50779 14.6167 21
      vertex 6.26374 14.0686 21
      vertex 7.7 13.3368 21
    endloop
  endfacet
  facet normal 0 0 1
    outer loop
      vertex 4.94427 15.2169 21
      vertex 6.26374 14.0686 21
      vertex 6.50779 14.6167 21
    endloop
  endfacet
  facet normal 0 0 1
    outer loop
      vertex 4.94427 15.2169 21
      vertex 4.75886 14.6463 21
      vertex 6.26374 14.0686 21
    endloop
  endfacet
  facet normal 0 0 1
    outer loop
      vertex 3.32659 15.6504 21
      vertex 4.75886 14.6463 21
      vertex 4.94427 15.2169 21
    endloop
  endfacet
  facet normal 0 0 1
    outer loop
      vertex 3.32659 15.6504 21
      vertex 3.20184 15.0635 21
      vertex 4.75886 14.6463 21
    endloop
  endfacet
  facet normal 0 0 1
    outer loop
      vertex 1.67245 15.9123 21
      vertex 3.20184 15.0635 21
      vertex 3.32659 15.6504 21
    endloop
  endfacet
  facet normal 0 0 1
    outer loop
      vertex 1.67245 15.9123 21
      vertex 1.60974 15.3156 21
      vertex 3.20184 15.0635 21
    endloop
  endfacet
  facet normal 0 0 1
    outer loop
      vertex 0 16 21
      vertex 1.60974 15.3156 21
      vertex 1.67245 15.9123 21
    endloop
  endfacet
  facet normal 0 0 1
    outer loop
      vertex 0 16 21
      vertex 0 15.4 21
      vertex 1.60974 15.3156 21
    endloop
  endfacet
  facet normal 0 0 1
    outer loop
      vertex 0 16 21
      vertex -1.60974 15.3156 21
      vertex 0 15.4 21
    endloop
  endfacet
  facet normal -0 0 1
    outer loop
      vertex -1.67245 15.9123 21
      vertex -1.60974 15.3156 21
      vertex 0 16 21
    endloop
  endfacet
  facet normal 0 0 1
    outer loop
      vertex -1.67245 15.9123 21
      vertex -3.20184 15.0635 21
      vertex -1.60974 15.3156 21
    endloop
  endfacet
  facet normal -0 0 1
    outer loop
      vertex -3.32659 15.6504 21
      vertex -3.20184 15.0635 21
      vertex -1.67245 15.9123 21
    endloop
  endfacet
  facet normal 0 0 1
    outer loop
      vertex -3.32659 15.6504 21
      vertex -4.75886 14.6463 21
      vertex -3.20184 15.0635 21
    endloop
  endfacet
  facet normal -0 0 1
    outer loop
      vertex -4.94427 15.2169 21
      vertex -4.75886 14.6463 21
      vertex -3.32659 15.6504 21
    endloop
  endfacet
  facet normal 0 0 1
    outer loop
      vertex -4.94427 15.2169 21
      vertex -6.26374 14.0686 21
      vertex -4.75886 14.6463 21
    endloop
  endfacet
  facet normal -0 0 1
    outer loop
      vertex -6.50779 14.6167 21
      vertex -6.26374 14.0686 21
      vertex -4.94427 15.2169 21
    endloop
  endfacet
  facet normal 0 0 1
    outer loop
      vertex -6.50779 14.6167 21
      vertex -7.7 13.3368 21
      vertex -6.26374 14.0686 21
    endloop
  endfacet
  facet normal -0 0 1
    outer loop
      vertex -8 13.8564 21
      vertex -7.7 13.3368 21
      vertex -6.50779 14.6167 21
    endloop
  endfacet
  facet normal 0 0 1
    outer loop
      vertex -8 13.8564 21
      vertex -9.05189 12.4589 21
      vertex -7.7 13.3368 21
    endloop
  endfacet
  facet normal -0 0 1
    outer loop
      vertex -9.40456 12.9443 21
      vertex -9.05189 12.4589 21
      vertex -8 13.8564 21
    endloop
  endfacet
  facet normal 0 0 1
    outer loop
      vertex -9.40456 12.9443 21
      vertex -10.3046 11.4444 21
      vertex -9.05189 12.4589 21
    endloop
  endfacet
  facet normal -0 0 1
    outer loop
      vertex -10.7061 11.8903 21
      vertex -10.3046 11.4444 21
      vertex -9.40456 12.9443 21
    endloop
  endfacet
  facet normal 0 0 1
    outer loop
      vertex -10.7061 11.8903 21
      vertex -11.4444 10.3046 21
      vertex -10.3046 11.4444 21
    endloop
  endfacet
  facet normal -0 0 1
    outer loop
      vertex -11.8903 10.7061 21
      vertex -11.4444 10.3046 21
      vertex -10.7061 11.8903 21
    endloop
  endfacet
  facet normal 0 0 1
    outer loop
      vertex -11.8903 10.7061 21
      vertex -12.4589 9.05189 21
      vertex -11.4444 10.3046 21
    endloop
  endfacet
  facet normal -0 0 1
    outer loop
      vertex -12.9443 9.40456 21
      vertex -12.4589 9.05189 21
      vertex -11.8903 10.7061 21
    endloop
  endfacet
  facet normal 0 0 1
    outer loop
      vertex -12.9443 9.40456 21
      vertex -13.3368 7.7 21
      vertex -12.4589 9.05189 21
    endloop
  endfacet
  facet normal -0 0 1
    outer loop
      vertex -13.8564 8 21
      vertex -13.3368 7.7 21
      vertex -12.9443 9.40456 21
    endloop
  endfacet
  facet normal 0 0 1
    outer loop
      vertex -13.8564 8 21
      vertex -14.0686 6.26374 21
      vertex -13.3368 7.7 21
    endloop
  endfacet
  facet normal -0 0 1
    outer loop
      vertex -14.6167 6.50779 21
      vertex -14.0686 6.26374 21
      vertex -13.8564 8 21
    endloop
  endfacet
  facet normal 0 0 1
    outer loop
      vertex -14.6167 6.50779 21
      vertex -14.6463 4.75886 21
      vertex -14.0686 6.26374 21
    endloop
  endfacet
  facet normal -0 0 1
    outer loop
      vertex -15.2169 4.94427 21
      vertex -14.6463 4.75886 21
      vertex -14.6167 6.50779 21
    endloop
  endfacet
  facet normal 0 0 1
    outer loop
      vertex -14.6463 4.75886 21
      vertex -15.2169 4.94427 21
      vertex -15.0635 3.20184 21
    endloop
  endfacet
  facet normal -0 0 1
    outer loop
      vertex -15.6504 3.32659 21
      vertex -15.0635 3.20184 21
      vertex -15.2169 4.94427 21
    endloop
  endfacet
  facet normal 0 0 1
    outer loop
      vertex -15.0635 3.20184 21
      vertex -15.6504 3.32659 21
      vertex -15.3156 1.60974 21
    endloop
  endfacet
  facet normal -0 0 1
    outer loop
      vertex -15.9123 1.67245 21
      vertex -15.3156 1.60974 21
      vertex -15.6504 3.32659 21
    endloop
  endfacet
  facet normal 0 0 1
    outer loop
      vertex 15.9123 -1.67245 21
      vertex 15.3156 -1.60974 21
      vertex 15.6504 -3.32659 21
    endloop
  endfacet
  facet normal -0 0 1
    outer loop
      vertex 15.0635 -3.20184 21
      vertex 15.6504 -3.32659 21
      vertex 15.3156 -1.60974 21
    endloop
  endfacet
  facet normal 0 0 1
    outer loop
      vertex 15.6504 -3.32659 21
      vertex 15.0635 -3.20184 21
      vertex 15.2169 -4.94427 21
    endloop
  endfacet
  facet normal -0 0 1
    outer loop
      vertex 14.6463 -4.75886 21
      vertex 15.2169 -4.94427 21
      vertex 15.0635 -3.20184 21
    endloop
  endfacet
  facet normal 0 0 1
    outer loop
      vertex 14.6463 -4.75886 21
      vertex 14.6167 -6.50779 21
      vertex 15.2169 -4.94427 21
    endloop
  endfacet
  facet normal -0 0 1
    outer loop
      vertex 14.0686 -6.26374 21
      vertex 14.6167 -6.50779 21
      vertex 14.6463 -4.75886 21
    endloop
  endfacet
  facet normal 0 0 1
    outer loop
      vertex 14.0686 -6.26374 21
      vertex 13.8564 -8 21
      vertex 14.6167 -6.50779 21
    endloop
  endfacet
  facet normal -0 0 1
    outer loop
      vertex 13.3368 -7.7 21
      vertex 13.8564 -8 21
      vertex 14.0686 -6.26374 21
    endloop
  endfacet
  facet normal 0 0 1
    outer loop
      vertex 13.3368 -7.7 21
      vertex 12.9443 -9.40456 21
      vertex 13.8564 -8 21
    endloop
  endfacet
  facet normal -0 0 1
    outer loop
      vertex 12.4589 -9.05189 21
      vertex 12.9443 -9.40456 21
      vertex 13.3368 -7.7 21
    endloop
  endfacet
  facet normal 0 0 1
    outer loop
      vertex 12.4589 -9.05189 21
      vertex 11.8903 -10.7061 21
      vertex 12.9443 -9.40456 21
    endloop
  endfacet
  facet normal -0 0 1
    outer loop
      vertex 11.4444 -10.3046 21
      vertex 11.8903 -10.7061 21
      vertex 12.4589 -9.05189 21
    endloop
  endfacet
  facet normal 0 0 1
    outer loop
      vertex 11.4444 -10.3046 21
      vertex 10.7061 -11.8903 21
      vertex 11.8903 -10.7061 21
    endloop
  endfacet
  facet normal -0 0 1
    outer loop
      vertex 10.3046 -11.4444 21
      vertex 10.7061 -11.8903 21
      vertex 11.4444 -10.3046 21
    endloop
  endfacet
  facet normal 0 0 1
    outer loop
      vertex 10.3046 -11.4444 21
      vertex 9.40456 -12.9443 21
      vertex 10.7061 -11.8903 21
    endloop
  endfacet
  facet normal -0 0 1
    outer loop
      vertex 9.05189 -12.4589 21
      vertex 9.40456 -12.9443 21
      vertex 10.3046 -11.4444 21
    endloop
  endfacet
  facet normal 0 0 1
    outer loop
      vertex 9.05189 -12.4589 21
      vertex 8 -13.8564 21
      vertex 9.40456 -12.9443 21
    endloop
  endfacet
  facet normal -0 0 1
    outer loop
      vertex 7.7 -13.3368 21
      vertex 8 -13.8564 21
      vertex 9.05189 -12.4589 21
    endloop
  endfacet
  facet normal 0 0 1
    outer loop
      vertex 7.7 -13.3368 21
      vertex 6.50779 -14.6167 21
      vertex 8 -13.8564 21
    endloop
  endfacet
  facet normal -0 0 1
    outer loop
      vertex 6.26374 -14.0686 21
      vertex 6.50779 -14.6167 21
      vertex 7.7 -13.3368 21
    endloop
  endfacet
  facet normal 0 0 1
    outer loop
      vertex 6.26374 -14.0686 21
      vertex 4.94427 -15.2169 21
      vertex 6.50779 -14.6167 21
    endloop
  endfacet
  facet normal -0 0 1
    outer loop
      vertex 4.75886 -14.6463 21
      vertex 4.94427 -15.2169 21
      vertex 6.26374 -14.0686 21
    endloop
  endfacet
  facet normal 0 0 1
    outer loop
      vertex 4.75886 -14.6463 21
      vertex 3.32659 -15.6504 21
      vertex 4.94427 -15.2169 21
    endloop
  endfacet
  facet normal -0 0 1
    outer loop
      vertex 3.20184 -15.0635 21
      vertex 3.32659 -15.6504 21
      vertex 4.75886 -14.6463 21
    endloop
  endfacet
  facet normal 0 0 1
    outer loop
      vertex 3.20184 -15.0635 21
      vertex 1.67245 -15.9123 21
      vertex 3.32659 -15.6504 21
    endloop
  endfacet
  facet normal -0 0 1
    outer loop
      vertex 1.60974 -15.3156 21
      vertex 1.67245 -15.9123 21
      vertex 3.20184 -15.0635 21
    endloop
  endfacet
  facet normal -0 0 1
    outer loop
      vertex 0 -15.4 21
      vertex 1.67245 -15.9123 21
      vertex 1.60974 -15.3156 21
    endloop
  endfacet
  facet normal 0 0 1
    outer loop
      vertex 0 -15.4 21
      vertex 0 -16 21
      vertex 1.67245 -15.9123 21
    endloop
  endfacet
  facet normal 0 0 1
    outer loop
      vertex -1.60974 -15.3156 21
      vertex 0 -16 21
      vertex 0 -15.4 21
    endloop
  endfacet
  facet normal 0 0 1
    outer loop
      vertex -1.60974 -15.3156 21
      vertex -1.67245 -15.9123 21
      vertex 0 -16 21
    endloop
  endfacet
  facet normal 0 0 1
    outer loop
      vertex -3.20184 -15.0635 21
      vertex -1.67245 -15.9123 21
      vertex -1.60974 -15.3156 21
    endloop
  endfacet
  facet normal 0 0 1
    outer loop
      vertex -3.20184 -15.0635 21
      vertex -3.32659 -15.6504 21
      vertex -1.67245 -15.9123 21
    endloop
  endfacet
  facet normal 0 0 1
    outer loop
      vertex -4.75886 -14.6463 21
      vertex -3.32659 -15.6504 21
      vertex -3.20184 -15.0635 21
    endloop
  endfacet
  facet normal 0 0 1
    outer loop
      vertex -4.75886 -14.6463 21
      vertex -4.94427 -15.2169 21
      vertex -3.32659 -15.6504 21
    endloop
  endfacet
  facet normal 0 0 1
    outer loop
      vertex -6.26374 -14.0686 21
      vertex -4.94427 -15.2169 21
      vertex -4.75886 -14.6463 21
    endloop
  endfacet
  facet normal 0 0 1
    outer loop
      vertex -6.26374 -14.0686 21
      vertex -6.50779 -14.6167 21
      vertex -4.94427 -15.2169 21
    endloop
  endfacet
  facet normal 0 0 1
    outer loop
      vertex -7.7 -13.3368 21
      vertex -6.50779 -14.6167 21
      vertex -6.26374 -14.0686 21
    endloop
  endfacet
  facet normal 0 0 1
    outer loop
      vertex -7.7 -13.3368 21
      vertex -8 -13.8564 21
      vertex -6.50779 -14.6167 21
    endloop
  endfacet
  facet normal 0 0 1
    outer loop
      vertex -9.05189 -12.4589 21
      vertex -8 -13.8564 21
      vertex -7.7 -13.3368 21
    endloop
  endfacet
  facet normal 0 0 1
    outer loop
      vertex -9.05189 -12.4589 21
      vertex -9.40456 -12.9443 21
      vertex -8 -13.8564 21
    endloop
  endfacet
  facet normal 0 0 1
    outer loop
      vertex -10.3046 -11.4444 21
      vertex -9.40456 -12.9443 21
      vertex -9.05189 -12.4589 21
    endloop
  endfacet
  facet normal 0 0 1
    outer loop
      vertex -10.3046 -11.4444 21
      vertex -10.7061 -11.8903 21
      vertex -9.40456 -12.9443 21
    endloop
  endfacet
  facet normal 0 0 1
    outer loop
      vertex -11.4444 -10.3046 21
      vertex -10.7061 -11.8903 21
      vertex -10.3046 -11.4444 21
    endloop
  endfacet
  facet normal 0 0 1
    outer loop
      vertex -11.4444 -10.3046 21
      vertex -11.8903 -10.7061 21
      vertex -10.7061 -11.8903 21
    endloop
  endfacet
  facet normal 0 0 1
    outer loop
      vertex -12.4589 -9.05189 21
      vertex -11.8903 -10.7061 21
      vertex -11.4444 -10.3046 21
    endloop
  endfacet
  facet normal 0 0 1
    outer loop
      vertex -12.4589 -9.05189 21
      vertex -12.9443 -9.40456 21
      vertex -11.8903 -10.7061 21
    endloop
  endfacet
  facet normal 0 0 1
    outer loop
      vertex -13.3368 -7.7 21
      vertex -12.9443 -9.40456 21
      vertex -12.4589 -9.05189 21
    endloop
  endfacet
  facet normal 0 0 1
    outer loop
      vertex -13.3368 -7.7 21
      vertex -13.8564 -8 21
      vertex -12.9443 -9.40456 21
    endloop
  endfacet
  facet normal 0 0 1
    outer loop
      vertex -14.0686 -6.26374 21
      vertex -13.8564 -8 21
      vertex -13.3368 -7.7 21
    endloop
  endfacet
  facet normal 0 0 1
    outer loop
      vertex -14.0686 -6.26374 21
      vertex -14.6167 -6.50779 21
      vertex -13.8564 -8 21
    endloop
  endfacet
  facet normal 0 0 1
    outer loop
      vertex -14.6463 -4.75886 21
      vertex -14.6167 -6.50779 21
      vertex -14.0686 -6.26374 21
    endloop
  endfacet
  facet normal 0 0 1
    outer loop
      vertex -15.2169 -4.94427 21
      vertex -14.6463 -4.75886 21
      vertex -15.0635 -3.20184 21
    endloop
  endfacet
  facet normal 0 0 1
    outer loop
      vertex -14.6463 -4.75886 21
      vertex -15.2169 -4.94427 21
      vertex -14.6167 -6.50779 21
    endloop
  endfacet
  facet normal 0 0 1
    outer loop
      vertex -15.6504 -3.32659 21
      vertex -15.0635 -3.20184 21
      vertex -15.3156 -1.60974 21
    endloop
  endfacet
  facet normal 0 0 1
    outer loop
      vertex -15.9123 -1.67245 21
      vertex -15.3156 -1.60974 21
      vertex -15.4 0 21
    endloop
  endfacet
  facet normal 0 0 1
    outer loop
      vertex -15.3156 1.60974 21
      vertex -15.9123 1.67245 21
      vertex -15.4 0 21
    endloop
  endfacet
  facet normal 0 0 1
    outer loop
      vertex -15.0635 -3.20184 21
      vertex -15.6504 -3.32659 21
      vertex -15.2169 -4.94427 21
    endloop
  endfacet
  facet normal 0 0 1
    outer loop
      vertex -16 0 21
      vertex -15.4 0 21
      vertex -15.9123 1.67245 21
    endloop
  endfacet
  facet normal 0 0 1
    outer loop
      vertex -15.3156 -1.60974 21
      vertex -15.9123 -1.67245 21
      vertex -15.6504 -3.32659 21
    endloop
  endfacet
  facet normal 0 0 1
    outer loop
      vertex -15.4 0 21
      vertex -16 0 21
      vertex -15.9123 -1.67245 21
    endloop
  endfacet
  facet normal 0 0 1
    outer loop
      vertex 12.7325 0 21
      vertex 15.4 0 21
      vertex 15.3156 1.60974 21
    endloop
  endfacet
  facet normal 0 0 1
    outer loop
      vertex 12.6627 1.33091 21
      vertex 15.3156 1.60974 21
      vertex 15.0635 3.20184 21
    endloop
  endfacet
  facet normal 0 0 1
    outer loop
      vertex 15.4 0 21
      vertex 12.7325 0 21
      vertex 15.3156 -1.60974 21
    endloop
  endfacet
  facet normal 0 0 1
    outer loop
      vertex 12.4543 2.64723 21
      vertex 15.0635 3.20184 21
      vertex 14.6463 4.75886 21
    endloop
  endfacet
  facet normal -0 0 1
    outer loop
      vertex 12.6627 -1.33091 21
      vertex 15.3156 -1.60974 21
      vertex 12.7325 0 21
    endloop
  endfacet
  facet normal 0 0 1
    outer loop
      vertex 12.1093 3.93456 21
      vertex 14.6463 4.75886 21
      vertex 14.0686 6.26374 21
    endloop
  endfacet
  facet normal 0 0 1
    outer loop
      vertex 15.3156 -1.60974 21
      vertex 12.6627 -1.33091 21
      vertex 15.0635 -3.20184 21
    endloop
  endfacet
  facet normal 0 0 1
    outer loop
      vertex 11.6317 5.17877 21
      vertex 14.0686 6.26374 21
      vertex 13.3368 7.7 21
    endloop
  endfacet
  facet normal -0 0 1
    outer loop
      vertex 12.4543 -2.64723 21
      vertex 15.0635 -3.20184 21
      vertex 12.6627 -1.33091 21
    endloop
  endfacet
  facet normal 0 0 1
    outer loop
      vertex 15.0635 -3.20184 21
      vertex 12.4543 -2.64723 21
      vertex 14.6463 -4.75886 21
    endloop
  endfacet
  facet normal 0 0 1
    outer loop
      vertex 15.3156 1.60974 21
      vertex 12.6627 1.33091 21
      vertex 12.7325 0 21
    endloop
  endfacet
  facet normal 0 0 1
    outer loop
      vertex 11.0267 6.36625 21
      vertex 13.3368 7.7 21
      vertex 12.4589 9.05189 21
    endloop
  endfacet
  facet normal 0 0 1
    outer loop
      vertex 15.0635 3.20184 21
      vertex 12.4543 2.64723 21
      vertex 12.6627 1.33091 21
    endloop
  endfacet
  facet normal 0 0 1
    outer loop
      vertex 14.6463 4.75886 21
      vertex 12.1093 3.93456 21
      vertex 12.4543 2.64723 21
    endloop
  endfacet
  facet normal 0 0 1
    outer loop
      vertex 14.0686 6.26374 21
      vertex 11.6317 5.17877 21
      vertex 12.1093 3.93456 21
    endloop
  endfacet
  facet normal 0 0 1
    outer loop
      vertex 10.3008 7.48397 21
      vertex 12.4589 9.05189 21
      vertex 11.4444 10.3046 21
    endloop
  endfacet
  facet normal 0 0 1
    outer loop
      vertex 13.3368 7.7 21
      vertex 11.0267 6.36625 21
      vertex 11.6317 5.17877 21
    endloop
  endfacet
  facet normal 0 0 1
    outer loop
      vertex 9.46209 8.5197 21
      vertex 11.4444 10.3046 21
      vertex 10.3046 11.4444 21
    endloop
  endfacet
  facet normal 0 0 1
    outer loop
      vertex 12.4589 9.05189 21
      vertex 10.3008 7.48397 21
      vertex 11.0267 6.36625 21
    endloop
  endfacet
  facet normal 0 0 1
    outer loop
      vertex 11.4444 10.3046 21
      vertex 9.46209 8.5197 21
      vertex 10.3008 7.48397 21
    endloop
  endfacet
  facet normal 0 0 1
    outer loop
      vertex 8.5197 9.46209 21
      vertex 10.3046 11.4444 21
      vertex 9.05189 12.4589 21
    endloop
  endfacet
  facet normal 0 0 1
    outer loop
      vertex 10.3046 11.4444 21
      vertex 8.5197 9.46209 21
      vertex 9.46209 8.5197 21
    endloop
  endfacet
  facet normal 0 0 1
    outer loop
      vertex 7.48397 10.3008 21
      vertex 9.05189 12.4589 21
      vertex 7.7 13.3368 21
    endloop
  endfacet
  facet normal 0 0 1
    outer loop
      vertex 9.05189 12.4589 21
      vertex 7.48397 10.3008 21
      vertex 8.5197 9.46209 21
    endloop
  endfacet
  facet normal 0 0 1
    outer loop
      vertex 7.7 13.3368 21
      vertex 6.36625 11.0267 21
      vertex 7.48397 10.3008 21
    endloop
  endfacet
  facet normal 0 0 1
    outer loop
      vertex 6.26374 14.0686 21
      vertex 6.36625 11.0267 21
      vertex 7.7 13.3368 21
    endloop
  endfacet
  facet normal 0 0 1
    outer loop
      vertex 6.26374 14.0686 21
      vertex 5.17877 11.6317 21
      vertex 6.36625 11.0267 21
    endloop
  endfacet
  facet normal 0 0 1
    outer loop
      vertex 4.75886 14.6463 21
      vertex 5.17877 11.6317 21
      vertex 6.26374 14.0686 21
    endloop
  endfacet
  facet normal 0 0 1
    outer loop
      vertex 4.75886 14.6463 21
      vertex 3.93456 12.1093 21
      vertex 5.17877 11.6317 21
    endloop
  endfacet
  facet normal 0 0 1
    outer loop
      vertex 3.20184 15.0635 21
      vertex 3.93456 12.1093 21
      vertex 4.75886 14.6463 21
    endloop
  endfacet
  facet normal 0 0 1
    outer loop
      vertex 3.20184 15.0635 21
      vertex 2.64723 12.4543 21
      vertex 3.93456 12.1093 21
    endloop
  endfacet
  facet normal 0 0 1
    outer loop
      vertex 1.60974 15.3156 21
      vertex 2.64723 12.4543 21
      vertex 3.20184 15.0635 21
    endloop
  endfacet
  facet normal 0 0 1
    outer loop
      vertex 1.60974 15.3156 21
      vertex 1.33091 12.6627 21
      vertex 2.64723 12.4543 21
    endloop
  endfacet
  facet normal 0 0 1
    outer loop
      vertex 0 15.4 21
      vertex 1.33091 12.6627 21
      vertex 1.60974 15.3156 21
    endloop
  endfacet
  facet normal 0 0 1
    outer loop
      vertex 0 15.4 21
      vertex 0 12.7325 21
      vertex 1.33091 12.6627 21
    endloop
  endfacet
  facet normal 0 0 1
    outer loop
      vertex 0 15.4 21
      vertex -1.33091 12.6627 21
      vertex 0 12.7325 21
    endloop
  endfacet
  facet normal -0 0 1
    outer loop
      vertex -1.60974 15.3156 21
      vertex -1.33091 12.6627 21
      vertex 0 15.4 21
    endloop
  endfacet
  facet normal 0 0 1
    outer loop
      vertex -1.60974 15.3156 21
      vertex -2.64723 12.4543 21
      vertex -1.33091 12.6627 21
    endloop
  endfacet
  facet normal -0 0 1
    outer loop
      vertex -3.20184 15.0635 21
      vertex -2.64723 12.4543 21
      vertex -1.60974 15.3156 21
    endloop
  endfacet
  facet normal 0 0 1
    outer loop
      vertex -3.20184 15.0635 21
      vertex -3.93456 12.1093 21
      vertex -2.64723 12.4543 21
    endloop
  endfacet
  facet normal -0 0 1
    outer loop
      vertex -4.75886 14.6463 21
      vertex -3.93456 12.1093 21
      vertex -3.20184 15.0635 21
    endloop
  endfacet
  facet normal 0 0 1
    outer loop
      vertex -4.75886 14.6463 21
      vertex -5.17877 11.6317 21
      vertex -3.93456 12.1093 21
    endloop
  endfacet
  facet normal -0 0 1
    outer loop
      vertex -6.26374 14.0686 21
      vertex -5.17877 11.6317 21
      vertex -4.75886 14.6463 21
    endloop
  endfacet
  facet normal 0 0 1
    outer loop
      vertex -6.26374 14.0686 21
      vertex -6.36625 11.0267 21
      vertex -5.17877 11.6317 21
    endloop
  endfacet
  facet normal -0 0 1
    outer loop
      vertex -7.7 13.3368 21
      vertex -6.36625 11.0267 21
      vertex -6.26374 14.0686 21
    endloop
  endfacet
  facet normal 0 0 1
    outer loop
      vertex -6.36625 11.0267 21
      vertex -7.7 13.3368 21
      vertex -7.48397 10.3008 21
    endloop
  endfacet
  facet normal -0 0 1
    outer loop
      vertex -9.05189 12.4589 21
      vertex -7.48397 10.3008 21
      vertex -7.7 13.3368 21
    endloop
  endfacet
  facet normal 0 0 1
    outer loop
      vertex -7.48397 10.3008 21
      vertex -9.05189 12.4589 21
      vertex -8.5197 9.46209 21
    endloop
  endfacet
  facet normal -0 0 1
    outer loop
      vertex -10.3046 11.4444 21
      vertex -8.5197 9.46209 21
      vertex -9.05189 12.4589 21
    endloop
  endfacet
  facet normal 0 0 1
    outer loop
      vertex -8.5197 9.46209 21
      vertex -10.3046 11.4444 21
      vertex -9.46209 8.5197 21
    endloop
  endfacet
  facet normal -0 0 1
    outer loop
      vertex -11.4444 10.3046 21
      vertex -9.46209 8.5197 21
      vertex -10.3046 11.4444 21
    endloop
  endfacet
  facet normal 0 0 1
    outer loop
      vertex -9.46209 8.5197 21
      vertex -11.4444 10.3046 21
      vertex -10.3008 7.48397 21
    endloop
  endfacet
  facet normal -0 0 1
    outer loop
      vertex -12.4589 9.05189 21
      vertex -10.3008 7.48397 21
      vertex -11.4444 10.3046 21
    endloop
  endfacet
  facet normal 0 0 1
    outer loop
      vertex -10.3008 7.48397 21
      vertex -12.4589 9.05189 21
      vertex -11.0267 6.36625 21
    endloop
  endfacet
  facet normal -0 0 1
    outer loop
      vertex -13.3368 7.7 21
      vertex -11.0267 6.36625 21
      vertex -12.4589 9.05189 21
    endloop
  endfacet
  facet normal 0 0 1
    outer loop
      vertex -11.0267 6.36625 21
      vertex -13.3368 7.7 21
      vertex -11.6317 5.17877 21
    endloop
  endfacet
  facet normal -0 0 1
    outer loop
      vertex -14.0686 6.26374 21
      vertex -11.6317 5.17877 21
      vertex -13.3368 7.7 21
    endloop
  endfacet
  facet normal 0 0 1
    outer loop
      vertex -11.6317 5.17877 21
      vertex -14.0686 6.26374 21
      vertex -12.1093 3.93456 21
    endloop
  endfacet
  facet normal -0 0 1
    outer loop
      vertex -14.6463 4.75886 21
      vertex -12.1093 3.93456 21
      vertex -14.0686 6.26374 21
    endloop
  endfacet
  facet normal 0 0 1
    outer loop
      vertex -12.1093 3.93456 21
      vertex -14.6463 4.75886 21
      vertex -12.4543 2.64723 21
    endloop
  endfacet
  facet normal -0 0 1
    outer loop
      vertex 12.1093 -3.93456 21
      vertex 14.6463 -4.75886 21
      vertex 12.4543 -2.64723 21
    endloop
  endfacet
  facet normal 0 0 1
    outer loop
      vertex 14.6463 -4.75886 21
      vertex 12.1093 -3.93456 21
      vertex 14.0686 -6.26374 21
    endloop
  endfacet
  facet normal -0 0 1
    outer loop
      vertex 11.6317 -5.17877 21
      vertex 14.0686 -6.26374 21
      vertex 12.1093 -3.93456 21
    endloop
  endfacet
  facet normal 0 0 1
    outer loop
      vertex 14.0686 -6.26374 21
      vertex 11.6317 -5.17877 21
      vertex 13.3368 -7.7 21
    endloop
  endfacet
  facet normal -0 0 1
    outer loop
      vertex 11.0267 -6.36625 21
      vertex 13.3368 -7.7 21
      vertex 11.6317 -5.17877 21
    endloop
  endfacet
  facet normal 0 0 1
    outer loop
      vertex 13.3368 -7.7 21
      vertex 11.0267 -6.36625 21
      vertex 12.4589 -9.05189 21
    endloop
  endfacet
  facet normal -0 0 1
    outer loop
      vertex 10.3008 -7.48397 21
      vertex 12.4589 -9.05189 21
      vertex 11.0267 -6.36625 21
    endloop
  endfacet
  facet normal 0 0 1
    outer loop
      vertex 12.4589 -9.05189 21
      vertex 10.3008 -7.48397 21
      vertex 11.4444 -10.3046 21
    endloop
  endfacet
  facet normal -0 0 1
    outer loop
      vertex 9.46209 -8.5197 21
      vertex 11.4444 -10.3046 21
      vertex 10.3008 -7.48397 21
    endloop
  endfacet
  facet normal 0 0 1
    outer loop
      vertex 11.4444 -10.3046 21
      vertex 9.46209 -8.5197 21
      vertex 10.3046 -11.4444 21
    endloop
  endfacet
  facet normal -0 0 1
    outer loop
      vertex 8.5197 -9.46209 21
      vertex 10.3046 -11.4444 21
      vertex 9.46209 -8.5197 21
    endloop
  endfacet
  facet normal 0 0 1
    outer loop
      vertex 10.3046 -11.4444 21
      vertex 8.5197 -9.46209 21
      vertex 9.05189 -12.4589 21
    endloop
  endfacet
  facet normal -0 0 1
    outer loop
      vertex 7.48397 -10.3008 21
      vertex 9.05189 -12.4589 21
      vertex 8.5197 -9.46209 21
    endloop
  endfacet
  facet normal 0 0 1
    outer loop
      vertex 9.05189 -12.4589 21
      vertex 7.48397 -10.3008 21
      vertex 7.7 -13.3368 21
    endloop
  endfacet
  facet normal -0 0 1
    outer loop
      vertex 6.36625 -11.0267 21
      vertex 7.7 -13.3368 21
      vertex 7.48397 -10.3008 21
    endloop
  endfacet
  facet normal 0 0 1
    outer loop
      vertex 6.36625 -11.0267 21
      vertex 6.26374 -14.0686 21
      vertex 7.7 -13.3368 21
    endloop
  endfacet
  facet normal -0 0 1
    outer loop
      vertex 5.17877 -11.6317 21
      vertex 6.26374 -14.0686 21
      vertex 6.36625 -11.0267 21
    endloop
  endfacet
  facet normal 0 0 1
    outer loop
      vertex 5.17877 -11.6317 21
      vertex 4.75886 -14.6463 21
      vertex 6.26374 -14.0686 21
    endloop
  endfacet
  facet normal -0 0 1
    outer loop
      vertex 3.93456 -12.1093 21
      vertex 4.75886 -14.6463 21
      vertex 5.17877 -11.6317 21
    endloop
  endfacet
  facet normal 0 0 1
    outer loop
      vertex 3.93456 -12.1093 21
      vertex 3.20184 -15.0635 21
      vertex 4.75886 -14.6463 21
    endloop
  endfacet
  facet normal -0 0 1
    outer loop
      vertex 2.64723 -12.4543 21
      vertex 3.20184 -15.0635 21
      vertex 3.93456 -12.1093 21
    endloop
  endfacet
  facet normal 0 0 1
    outer loop
      vertex 2.64723 -12.4543 21
      vertex 1.60974 -15.3156 21
      vertex 3.20184 -15.0635 21
    endloop
  endfacet
  facet normal -0 0 1
    outer loop
      vertex 1.33091 -12.6627 21
      vertex 1.60974 -15.3156 21
      vertex 2.64723 -12.4543 21
    endloop
  endfacet
  facet normal -0 0 1
    outer loop
      vertex 0 -12.7325 21
      vertex 1.60974 -15.3156 21
      vertex 1.33091 -12.6627 21
    endloop
  endfacet
  facet normal 0 0 1
    outer loop
      vertex 0 -12.7325 21
      vertex 0 -15.4 21
      vertex 1.60974 -15.3156 21
    endloop
  endfacet
  facet normal 0 0 1
    outer loop
      vertex -1.33091 -12.6627 21
      vertex 0 -15.4 21
      vertex 0 -12.7325 21
    endloop
  endfacet
  facet normal 0 0 1
    outer loop
      vertex -1.33091 -12.6627 21
      vertex -1.60974 -15.3156 21
      vertex 0 -15.4 21
    endloop
  endfacet
  facet normal 0 0 1
    outer loop
      vertex -2.64723 -12.4543 21
      vertex -1.60974 -15.3156 21
      vertex -1.33091 -12.6627 21
    endloop
  endfacet
  facet normal 0 0 1
    outer loop
      vertex -2.64723 -12.4543 21
      vertex -3.20184 -15.0635 21
      vertex -1.60974 -15.3156 21
    endloop
  endfacet
  facet normal 0 0 1
    outer loop
      vertex -3.93456 -12.1093 21
      vertex -3.20184 -15.0635 21
      vertex -2.64723 -12.4543 21
    endloop
  endfacet
  facet normal 0 0 1
    outer loop
      vertex -3.93456 -12.1093 21
      vertex -4.75886 -14.6463 21
      vertex -3.20184 -15.0635 21
    endloop
  endfacet
  facet normal 0 0 1
    outer loop
      vertex -5.17877 -11.6317 21
      vertex -4.75886 -14.6463 21
      vertex -3.93456 -12.1093 21
    endloop
  endfacet
  facet normal 0 0 1
    outer loop
      vertex -5.17877 -11.6317 21
      vertex -6.26374 -14.0686 21
      vertex -4.75886 -14.6463 21
    endloop
  endfacet
  facet normal 0 0 1
    outer loop
      vertex -6.36625 -11.0267 21
      vertex -6.26374 -14.0686 21
      vertex -5.17877 -11.6317 21
    endloop
  endfacet
  facet normal 0 0 1
    outer loop
      vertex -7.7 -13.3368 21
      vertex -6.36625 -11.0267 21
      vertex -7.48397 -10.3008 21
    endloop
  endfacet
  facet normal 0 0 1
    outer loop
      vertex -6.36625 -11.0267 21
      vertex -7.7 -13.3368 21
      vertex -6.26374 -14.0686 21
    endloop
  endfacet
  facet normal 0 0 1
    outer loop
      vertex -9.05189 -12.4589 21
      vertex -7.48397 -10.3008 21
      vertex -8.5197 -9.46209 21
    endloop
  endfacet
  facet normal 0 0 1
    outer loop
      vertex -7.48397 -10.3008 21
      vertex -9.05189 -12.4589 21
      vertex -7.7 -13.3368 21
    endloop
  endfacet
  facet normal 0 0 1
    outer loop
      vertex -10.3046 -11.4444 21
      vertex -8.5197 -9.46209 21
      vertex -9.46209 -8.5197 21
    endloop
  endfacet
  facet normal 0 0 1
    outer loop
      vertex -11.4444 -10.3046 21
      vertex -9.46209 -8.5197 21
      vertex -10.3008 -7.48397 21
    endloop
  endfacet
  facet normal 0 0 1
    outer loop
      vertex -8.5197 -9.46209 21
      vertex -10.3046 -11.4444 21
      vertex -9.05189 -12.4589 21
    endloop
  endfacet
  facet normal 0 0 1
    outer loop
      vertex -12.4589 -9.05189 21
      vertex -10.3008 -7.48397 21
      vertex -11.0267 -6.36625 21
    endloop
  endfacet
  facet normal 0 0 1
    outer loop
      vertex -9.46209 -8.5197 21
      vertex -11.4444 -10.3046 21
      vertex -10.3046 -11.4444 21
    endloop
  endfacet
  facet normal 0 0 1
    outer loop
      vertex -13.3368 -7.7 21
      vertex -11.0267 -6.36625 21
      vertex -11.6317 -5.17877 21
    endloop
  endfacet
  facet normal 0 0 1
    outer loop
      vertex -14.0686 -6.26374 21
      vertex -11.6317 -5.17877 21
      vertex -12.1093 -3.93456 21
    endloop
  endfacet
  facet normal 0 0 1
    outer loop
      vertex -14.6463 -4.75886 21
      vertex -12.1093 -3.93456 21
      vertex -12.4543 -2.64723 21
    endloop
  endfacet
  facet normal 0 0 1
    outer loop
      vertex -10.3008 -7.48397 21
      vertex -12.4589 -9.05189 21
      vertex -11.4444 -10.3046 21
    endloop
  endfacet
  facet normal 0 0 1
    outer loop
      vertex -15.0635 -3.20184 21
      vertex -12.4543 -2.64723 21
      vertex -12.6627 -1.33091 21
    endloop
  endfacet
  facet normal 0 0 1
    outer loop
      vertex -15.3156 -1.60974 21
      vertex -12.6627 -1.33091 21
      vertex -12.7325 0 21
    endloop
  endfacet
  facet normal -0 0 1
    outer loop
      vertex -15.0635 3.20184 21
      vertex -12.4543 2.64723 21
      vertex -14.6463 4.75886 21
    endloop
  endfacet
  facet normal 0 0 1
    outer loop
      vertex -11.0267 -6.36625 21
      vertex -13.3368 -7.7 21
      vertex -12.4589 -9.05189 21
    endloop
  endfacet
  facet normal 0 0 1
    outer loop
      vertex -12.4543 2.64723 21
      vertex -15.0635 3.20184 21
      vertex -12.6627 1.33091 21
    endloop
  endfacet
  facet normal 0 0 1
    outer loop
      vertex -11.6317 -5.17877 21
      vertex -14.0686 -6.26374 21
      vertex -13.3368 -7.7 21
    endloop
  endfacet
  facet normal -0 0 1
    outer loop
      vertex -15.3156 1.60974 21
      vertex -12.6627 1.33091 21
      vertex -15.0635 3.20184 21
    endloop
  endfacet
  facet normal 0 0 1
    outer loop
      vertex -12.1093 -3.93456 21
      vertex -14.6463 -4.75886 21
      vertex -14.0686 -6.26374 21
    endloop
  endfacet
  facet normal 0 0 1
    outer loop
      vertex -12.6627 1.33091 21
      vertex -15.3156 1.60974 21
      vertex -12.7325 0 21
    endloop
  endfacet
  facet normal 0 0 1
    outer loop
      vertex -12.4543 -2.64723 21
      vertex -15.0635 -3.20184 21
      vertex -14.6463 -4.75886 21
    endloop
  endfacet
  facet normal 0 0 1
    outer loop
      vertex -15.4 0 21
      vertex -12.7325 0 21
      vertex -15.3156 1.60974 21
    endloop
  endfacet
  facet normal 0 0 1
    outer loop
      vertex -12.6627 -1.33091 21
      vertex -15.3156 -1.60974 21
      vertex -15.0635 -3.20184 21
    endloop
  endfacet
  facet normal 0 0 1
    outer loop
      vertex -12.7325 0 21
      vertex -15.4 0 21
      vertex -15.3156 -1.60974 21
    endloop
  endfacet
  facet normal 0.99863 0.0523363 0
    outer loop
      vertex 16 0 21
      vertex 15.9123 1.67245 0
      vertex 15.9123 1.67245 21
    endloop
  endfacet
  facet normal 0.99863 0.0523363 0
    outer loop
      vertex 15.9123 1.67245 0
      vertex 16 0 21
      vertex 16 0 0
    endloop
  endfacet
  facet normal -0.99863 0.0523363 0
    outer loop
      vertex -16 0 0
      vertex -15.9123 1.67245 21
      vertex -15.9123 1.67245 0
    endloop
  endfacet
  facet normal -0.99863 0.0523363 0
    outer loop
      vertex -15.9123 1.67245 21
      vertex -16 0 0
      vertex -16 0 21
    endloop
  endfacet
  facet normal 0.0523363 0.99863 -0
    outer loop
      vertex 1.67245 15.9123 0
      vertex 0 16 21
      vertex 1.67245 15.9123 21
    endloop
  endfacet
  facet normal 0.0523363 0.99863 0
    outer loop
      vertex 0 16 21
      vertex 1.67245 15.9123 0
      vertex 0 16 0
    endloop
  endfacet
  facet normal -0.0523363 -0.99863 0
    outer loop
      vertex -1.67245 -15.9123 0
      vertex 0 -16 21
      vertex -1.67245 -15.9123 21
    endloop
  endfacet
  facet normal -0.0523363 -0.99863 -0
    outer loop
      vertex 0 -16 21
      vertex -1.67245 -15.9123 0
      vertex 0 -16 0
    endloop
  endfacet
  facet normal -0.777146 -0.62932 0
    outer loop
      vertex -11.8903 -10.7061 0
      vertex -12.9443 -9.40456 21
      vertex -12.9443 -9.40456 0
    endloop
  endfacet
  facet normal -0.777146 -0.62932 0
    outer loop
      vertex -12.9443 -9.40456 21
      vertex -11.8903 -10.7061 0
      vertex -11.8903 -10.7061 21
    endloop
  endfacet
  facet normal 0.707107 0.707107 0
    outer loop
      vertex 11.8903 10.7061 21
      vertex 10.7061 11.8903 0
      vertex 10.7061 11.8903 21
    endloop
  endfacet
  facet normal 0.707107 0.707107 0
    outer loop
      vertex 10.7061 11.8903 0
      vertex 11.8903 10.7061 21
      vertex 11.8903 10.7061 0
    endloop
  endfacet
  facet normal -0.62932 0.777146 0
    outer loop
      vertex -9.40456 12.9443 0
      vertex -10.7061 11.8903 21
      vertex -9.40456 12.9443 21
    endloop
  endfacet
  facet normal -0.62932 0.777146 0
    outer loop
      vertex -10.7061 11.8903 21
      vertex -9.40456 12.9443 0
      vertex -10.7061 11.8903 0
    endloop
  endfacet
  facet normal -0.358368 0.93358 0
    outer loop
      vertex -4.94427 15.2169 0
      vertex -6.50779 14.6167 21
      vertex -4.94427 15.2169 21
    endloop
  endfacet
  facet normal -0.358368 0.93358 0
    outer loop
      vertex -6.50779 14.6167 21
      vertex -4.94427 15.2169 0
      vertex -6.50779 14.6167 0
    endloop
  endfacet
  facet normal 0.93358 0.358368 0
    outer loop
      vertex 15.2169 4.94427 21
      vertex 14.6167 6.50779 0
      vertex 14.6167 6.50779 21
    endloop
  endfacet
  facet normal 0.93358 0.358368 0
    outer loop
      vertex 14.6167 6.50779 0
      vertex 15.2169 4.94427 21
      vertex 15.2169 4.94427 0
    endloop
  endfacet
  facet normal 0.987688 0.156434 0
    outer loop
      vertex 15.9123 1.67245 21
      vertex 15.6504 3.32659 0
      vertex 15.6504 3.32659 21
    endloop
  endfacet
  facet normal 0.987688 0.156434 0
    outer loop
      vertex 15.6504 3.32659 0
      vertex 15.9123 1.67245 21
      vertex 15.9123 1.67245 0
    endloop
  endfacet
  facet normal 0.45399 0.891007 -0
    outer loop
      vertex 8 13.8564 0
      vertex 6.50779 14.6167 21
      vertex 8 13.8564 21
    endloop
  endfacet
  facet normal 0.45399 0.891007 0
    outer loop
      vertex 6.50779 14.6167 21
      vertex 8 13.8564 0
      vertex 6.50779 14.6167 0
    endloop
  endfacet
  facet normal 0.544639 0.83867 -0
    outer loop
      vertex 9.40456 12.9443 0
      vertex 8 13.8564 21
      vertex 9.40456 12.9443 21
    endloop
  endfacet
  facet normal 0.544639 0.83867 0
    outer loop
      vertex 8 13.8564 21
      vertex 9.40456 12.9443 0
      vertex 8 13.8564 0
    endloop
  endfacet
  facet normal -0.891007 0.453991 0
    outer loop
      vertex -14.6167 6.50779 0
      vertex -13.8564 8 21
      vertex -13.8564 8 0
    endloop
  endfacet
  facet normal -0.891007 0.453991 0
    outer loop
      vertex -13.8564 8 21
      vertex -14.6167 6.50779 0
      vertex -14.6167 6.50779 21
    endloop
  endfacet
  facet normal -0.453991 0.891007 0
    outer loop
      vertex -6.50779 14.6167 0
      vertex -8 13.8564 21
      vertex -6.50779 14.6167 21
    endloop
  endfacet
  facet normal -0.453991 0.891007 0
    outer loop
      vertex -8 13.8564 21
      vertex -6.50779 14.6167 0
      vertex -8 13.8564 0
    endloop
  endfacet
  facet normal -0.156434 0.987688 0
    outer loop
      vertex -1.67245 15.9123 0
      vertex -3.32659 15.6504 21
      vertex -1.67245 15.9123 21
    endloop
  endfacet
  facet normal -0.156434 0.987688 0
    outer loop
      vertex -3.32659 15.6504 21
      vertex -1.67245 15.9123 0
      vertex -3.32659 15.6504 0
    endloop
  endfacet
  facet normal 0.93358 -0.358368 0
    outer loop
      vertex 14.6167 -6.50779 21
      vertex 15.2169 -4.94427 0
      vertex 15.2169 -4.94427 21
    endloop
  endfacet
  facet normal 0.93358 -0.358368 0
    outer loop
      vertex 15.2169 -4.94427 0
      vertex 14.6167 -6.50779 21
      vertex 14.6167 -6.50779 0
    endloop
  endfacet
  facet normal -0.891007 -0.453991 0
    outer loop
      vertex -13.8564 -8 0
      vertex -14.6167 -6.50779 21
      vertex -14.6167 -6.50779 0
    endloop
  endfacet
  facet normal -0.891007 -0.453991 0
    outer loop
      vertex -14.6167 -6.50779 21
      vertex -13.8564 -8 0
      vertex -13.8564 -8 21
    endloop
  endfacet
  facet normal 0 0 -1
    outer loop
      vertex 15.9123 -1.67245 0
      vertex 15.9123 1.67245 0
      vertex 16 0 0
    endloop
  endfacet
  facet normal 0 0 -1
    outer loop
      vertex 15.6504 -3.32659 0
      vertex 15.9123 1.67245 0
      vertex 15.9123 -1.67245 0
    endloop
  endfacet
  facet normal 0 0 -1
    outer loop
      vertex 15.6504 -3.32659 0
      vertex 15.6504 3.32659 0
      vertex 15.9123 1.67245 0
    endloop
  endfacet
  facet normal 0 0 -1
    outer loop
      vertex 15.2169 -4.94427 0
      vertex 15.6504 3.32659 0
      vertex 15.6504 -3.32659 0
    endloop
  endfacet
  facet normal 0 0 -1
    outer loop
      vertex 15.2169 -4.94427 0
      vertex 15.2169 4.94427 0
      vertex 15.6504 3.32659 0
    endloop
  endfacet
  facet normal 0 0 -1
    outer loop
      vertex 14.6167 -6.50779 0
      vertex 15.2169 4.94427 0
      vertex 15.2169 -4.94427 0
    endloop
  endfacet
  facet normal 0 0 -1
    outer loop
      vertex 14.6167 -6.50779 0
      vertex 14.6167 6.50779 0
      vertex 15.2169 4.94427 0
    endloop
  endfacet
  facet normal 0 0 -1
    outer loop
      vertex 13.8564 -8 0
      vertex 14.6167 6.50779 0
      vertex 14.6167 -6.50779 0
    endloop
  endfacet
  facet normal 0 0 -1
    outer loop
      vertex 13.8564 -8 0
      vertex 13.8564 8 0
      vertex 14.6167 6.50779 0
    endloop
  endfacet
  facet normal 0 0 -1
    outer loop
      vertex 12.9443 -9.40456 0
      vertex 13.8564 8 0
      vertex 13.8564 -8 0
    endloop
  endfacet
  facet normal 0 0 -1
    outer loop
      vertex 12.9443 -9.40456 0
      vertex 12.9443 9.40456 0
      vertex 13.8564 8 0
    endloop
  endfacet
  facet normal 0 0 -1
    outer loop
      vertex 11.8903 -10.7061 0
      vertex 12.9443 9.40456 0
      vertex 12.9443 -9.40456 0
    endloop
  endfacet
  facet normal 0 0 -1
    outer loop
      vertex 11.8903 -10.7061 0
      vertex 11.8903 10.7061 0
      vertex 12.9443 9.40456 0
    endloop
  endfacet
  facet normal 0 0 -1
    outer loop
      vertex 10.7061 -11.8903 0
      vertex 11.8903 10.7061 0
      vertex 11.8903 -10.7061 0
    endloop
  endfacet
  facet normal 0 0 -1
    outer loop
      vertex 10.7061 -11.8903 0
      vertex 10.7061 11.8903 0
      vertex 11.8903 10.7061 0
    endloop
  endfacet
  facet normal 0 0 -1
    outer loop
      vertex 9.40456 -12.9443 0
      vertex 10.7061 11.8903 0
      vertex 10.7061 -11.8903 0
    endloop
  endfacet
  facet normal 0 0 -1
    outer loop
      vertex 9.40456 -12.9443 0
      vertex 9.40456 12.9443 0
      vertex 10.7061 11.8903 0
    endloop
  endfacet
  facet normal 0 0 -1
    outer loop
      vertex 8 -13.8564 0
      vertex 9.40456 12.9443 0
      vertex 9.40456 -12.9443 0
    endloop
  endfacet
  facet normal 0 0 -1
    outer loop
      vertex 8 -13.8564 0
      vertex 8 13.8564 0
      vertex 9.40456 12.9443 0
    endloop
  endfacet
  facet normal 0 0 -1
    outer loop
      vertex 6.50779 -14.6167 0
      vertex 8 13.8564 0
      vertex 8 -13.8564 0
    endloop
  endfacet
  facet normal 0 0 -1
    outer loop
      vertex 6.50779 -14.6167 0
      vertex 6.50779 14.6167 0
      vertex 8 13.8564 0
    endloop
  endfacet
  facet normal 0 0 -1
    outer loop
      vertex 4.94427 -15.2169 0
      vertex 6.50779 14.6167 0
      vertex 6.50779 -14.6167 0
    endloop
  endfacet
  facet normal 0 0 -1
    outer loop
      vertex 4.94427 -15.2169 0
      vertex 4.94427 15.2169 0
      vertex 6.50779 14.6167 0
    endloop
  endfacet
  facet normal 0 0 -1
    outer loop
      vertex 3.32659 -15.6504 0
      vertex 4.94427 15.2169 0
      vertex 4.94427 -15.2169 0
    endloop
  endfacet
  facet normal 0 0 -1
    outer loop
      vertex 3.32659 -15.6504 0
      vertex 3.32659 15.6504 0
      vertex 4.94427 15.2169 0
    endloop
  endfacet
  facet normal 0 0 -1
    outer loop
      vertex 1.67245 -15.9123 0
      vertex 3.32659 15.6504 0
      vertex 3.32659 -15.6504 0
    endloop
  endfacet
  facet normal 0 0 -1
    outer loop
      vertex 1.67245 -15.9123 0
      vertex 1.67245 15.9123 0
      vertex 3.32659 15.6504 0
    endloop
  endfacet
  facet normal 0 0 -1
    outer loop
      vertex 0 -16 0
      vertex 1.67245 15.9123 0
      vertex 1.67245 -15.9123 0
    endloop
  endfacet
  facet normal 0 0 -1
    outer loop
      vertex 0 -16 0
      vertex 0 16 0
      vertex 1.67245 15.9123 0
    endloop
  endfacet
  facet normal 0 0 -1
    outer loop
      vertex -1.67245 -15.9123 0
      vertex 0 16 0
      vertex 0 -16 0
    endloop
  endfacet
  facet normal 0 0 -1
    outer loop
      vertex -1.67245 -15.9123 0
      vertex -1.67245 15.9123 0
      vertex 0 16 0
    endloop
  endfacet
  facet normal 0 0 -1
    outer loop
      vertex -3.32659 -15.6504 0
      vertex -1.67245 15.9123 0
      vertex -1.67245 -15.9123 0
    endloop
  endfacet
  facet normal 0 0 -1
    outer loop
      vertex -3.32659 -15.6504 0
      vertex -3.32659 15.6504 0
      vertex -1.67245 15.9123 0
    endloop
  endfacet
  facet normal 0 0 -1
    outer loop
      vertex -4.94427 -15.2169 0
      vertex -3.32659 15.6504 0
      vertex -3.32659 -15.6504 0
    endloop
  endfacet
  facet normal 0 0 -1
    outer loop
      vertex -4.94427 -15.2169 0
      vertex -4.94427 15.2169 0
      vertex -3.32659 15.6504 0
    endloop
  endfacet
  facet normal 0 0 -1
    outer loop
      vertex -6.50779 -14.6167 0
      vertex -4.94427 15.2169 0
      vertex -4.94427 -15.2169 0
    endloop
  endfacet
  facet normal 0 0 -1
    outer loop
      vertex -6.50779 -14.6167 0
      vertex -6.50779 14.6167 0
      vertex -4.94427 15.2169 0
    endloop
  endfacet
  facet normal 0 0 -1
    outer loop
      vertex -6.50779 -14.6167 0
      vertex -8 13.8564 0
      vertex -6.50779 14.6167 0
    endloop
  endfacet
  facet normal 0 0 -1
    outer loop
      vertex -8 -13.8564 0
      vertex -8 13.8564 0
      vertex -6.50779 -14.6167 0
    endloop
  endfacet
  facet normal 0 0 -1
    outer loop
      vertex -9.40456 -12.9443 0
      vertex -8 13.8564 0
      vertex -8 -13.8564 0
    endloop
  endfacet
  facet normal 0 0 -1
    outer loop
      vertex -9.40456 -12.9443 0
      vertex -9.40456 12.9443 0
      vertex -8 13.8564 0
    endloop
  endfacet
  facet normal 0 0 -1
    outer loop
      vertex -10.7061 -11.8903 0
      vertex -9.40456 12.9443 0
      vertex -9.40456 -12.9443 0
    endloop
  endfacet
  facet normal 0 0 -1
    outer loop
      vertex -10.7061 -11.8903 0
      vertex -10.7061 11.8903 0
      vertex -9.40456 12.9443 0
    endloop
  endfacet
  facet normal 0 0 -1
    outer loop
      vertex -11.8903 -10.7061 0
      vertex -10.7061 11.8903 0
      vertex -10.7061 -11.8903 0
    endloop
  endfacet
  facet normal 0 0 -1
    outer loop
      vertex -11.8903 -10.7061 0
      vertex -11.8903 10.7061 0
      vertex -10.7061 11.8903 0
    endloop
  endfacet
  facet normal 0 0 -1
    outer loop
      vertex -12.9443 -9.40456 0
      vertex -11.8903 10.7061 0
      vertex -11.8903 -10.7061 0
    endloop
  endfacet
  facet normal 0 0 -1
    outer loop
      vertex -12.9443 -9.40456 0
      vertex -12.9443 9.40456 0
      vertex -11.8903 10.7061 0
    endloop
  endfacet
  facet normal 0 0 -1
    outer loop
      vertex -13.8564 -8 0
      vertex -12.9443 9.40456 0
      vertex -12.9443 -9.40456 0
    endloop
  endfacet
  facet normal 0 0 -1
    outer loop
      vertex -13.8564 -8 0
      vertex -13.8564 8 0
      vertex -12.9443 9.40456 0
    endloop
  endfacet
  facet normal 0 0 -1
    outer loop
      vertex -14.6167 -6.50779 0
      vertex -13.8564 8 0
      vertex -13.8564 -8 0
    endloop
  endfacet
  facet normal 0 0 -1
    outer loop
      vertex -14.6167 -6.50779 0
      vertex -14.6167 6.50779 0
      vertex -13.8564 8 0
    endloop
  endfacet
  facet normal 0 0 -1
    outer loop
      vertex -15.2169 -4.94427 0
      vertex -14.6167 6.50779 0
      vertex -14.6167 -6.50779 0
    endloop
  endfacet
  facet normal 0 0 -1
    outer loop
      vertex -15.2169 -4.94427 0
      vertex -15.2169 4.94427 0
      vertex -14.6167 6.50779 0
    endloop
  endfacet
  facet normal 0 0 -1
    outer loop
      vertex -15.6504 -3.32659 0
      vertex -15.2169 4.94427 0
      vertex -15.2169 -4.94427 0
    endloop
  endfacet
  facet normal 0 0 -1
    outer loop
      vertex -15.6504 -3.32659 0
      vertex -15.6504 3.32659 0
      vertex -15.2169 4.94427 0
    endloop
  endfacet
  facet normal 0 0 -1
    outer loop
      vertex -15.9123 -1.67245 0
      vertex -15.6504 3.32659 0
      vertex -15.6504 -3.32659 0
    endloop
  endfacet
  facet normal 0 0 -1
    outer loop
      vertex -15.9123 -1.67245 0
      vertex -15.9123 1.67245 0
      vertex -15.6504 3.32659 0
    endloop
  endfacet
  facet normal 0 -0 -1
    outer loop
      vertex -15.9123 1.67245 0
      vertex -15.9123 -1.67245 0
      vertex -16 0 0
    endloop
  endfacet
  facet normal 0.965926 0.258819 0
    outer loop
      vertex 15.6504 3.32659 21
      vertex 15.2169 4.94427 0
      vertex 15.2169 4.94427 21
    endloop
  endfacet
  facet normal 0.965926 0.258819 0
    outer loop
      vertex 15.2169 4.94427 0
      vertex 15.6504 3.32659 21
      vertex 15.6504 3.32659 0
    endloop
  endfacet
  facet normal 0.838671 0.544639 0
    outer loop
      vertex 13.8564 8 21
      vertex 12.9443 9.40456 0
      vertex 12.9443 9.40456 21
    endloop
  endfacet
  facet normal 0.838671 0.544639 0
    outer loop
      vertex 12.9443 9.40456 0
      vertex 13.8564 8 21
      vertex 13.8564 8 0
    endloop
  endfacet
  facet normal 0.777146 0.62932 0
    outer loop
      vertex 12.9443 9.40456 21
      vertex 11.8903 10.7061 0
      vertex 11.8903 10.7061 21
    endloop
  endfacet
  facet normal 0.777146 0.62932 0
    outer loop
      vertex 11.8903 10.7061 0
      vertex 12.9443 9.40456 21
      vertex 12.9443 9.40456 0
    endloop
  endfacet
  facet normal 0.891007 0.453991 0
    outer loop
      vertex 14.6167 6.50779 21
      vertex 13.8564 8 0
      vertex 13.8564 8 21
    endloop
  endfacet
  facet normal 0.891007 0.453991 0
    outer loop
      vertex 13.8564 8 0
      vertex 14.6167 6.50779 21
      vertex 14.6167 6.50779 0
    endloop
  endfacet
  facet normal 0.258819 0.965926 -0
    outer loop
      vertex 4.94427 15.2169 0
      vertex 3.32659 15.6504 21
      vertex 4.94427 15.2169 21
    endloop
  endfacet
  facet normal 0.258819 0.965926 0
    outer loop
      vertex 3.32659 15.6504 21
      vertex 4.94427 15.2169 0
      vertex 3.32659 15.6504 0
    endloop
  endfacet
  facet normal 0.358368 0.93358 -0
    outer loop
      vertex 6.50779 14.6167 0
      vertex 4.94427 15.2169 21
      vertex 6.50779 14.6167 21
    endloop
  endfacet
  facet normal 0.358368 0.93358 0
    outer loop
      vertex 4.94427 15.2169 21
      vertex 6.50779 14.6167 0
      vertex 4.94427 15.2169 0
    endloop
  endfacet
  facet normal 0.156434 0.987688 -0
    outer loop
      vertex 3.32659 15.6504 0
      vertex 1.67245 15.9123 21
      vertex 3.32659 15.6504 21
    endloop
  endfacet
  facet normal 0.156434 0.987688 0
    outer loop
      vertex 1.67245 15.9123 21
      vertex 3.32659 15.6504 0
      vertex 1.67245 15.9123 0
    endloop
  endfacet
  facet normal 0.62932 0.777146 -0
    outer loop
      vertex 10.7061 11.8903 0
      vertex 9.40456 12.9443 21
      vertex 10.7061 11.8903 21
    endloop
  endfacet
  facet normal 0.62932 0.777146 0
    outer loop
      vertex 9.40456 12.9443 21
      vertex 10.7061 11.8903 0
      vertex 9.40456 12.9443 0
    endloop
  endfacet
  facet normal -0.965926 0.258819 0
    outer loop
      vertex -15.6504 3.32659 0
      vertex -15.2169 4.94427 21
      vertex -15.2169 4.94427 0
    endloop
  endfacet
  facet normal -0.965926 0.258819 0
    outer loop
      vertex -15.2169 4.94427 21
      vertex -15.6504 3.32659 0
      vertex -15.6504 3.32659 21
    endloop
  endfacet
  facet normal -0.777146 0.62932 0
    outer loop
      vertex -12.9443 9.40456 0
      vertex -11.8903 10.7061 21
      vertex -11.8903 10.7061 0
    endloop
  endfacet
  facet normal -0.777146 0.62932 0
    outer loop
      vertex -11.8903 10.7061 21
      vertex -12.9443 9.40456 0
      vertex -12.9443 9.40456 21
    endloop
  endfacet
  facet normal -0.707107 0.707107 0
    outer loop
      vertex -11.8903 10.7061 0
      vertex -10.7061 11.8903 21
      vertex -10.7061 11.8903 0
    endloop
  endfacet
  facet normal -0.707107 0.707107 0
    outer loop
      vertex -10.7061 11.8903 21
      vertex -11.8903 10.7061 0
      vertex -11.8903 10.7061 21
    endloop
  endfacet
  facet normal -0.838671 0.544639 0
    outer loop
      vertex -13.8564 8 0
      vertex -12.9443 9.40456 21
      vertex -12.9443 9.40456 0
    endloop
  endfacet
  facet normal -0.838671 0.544639 0
    outer loop
      vertex -12.9443 9.40456 21
      vertex -13.8564 8 0
      vertex -13.8564 8 21
    endloop
  endfacet
  facet normal -0.93358 0.358368 0
    outer loop
      vertex -15.2169 4.94427 0
      vertex -14.6167 6.50779 21
      vertex -14.6167 6.50779 0
    endloop
  endfacet
  facet normal -0.93358 0.358368 0
    outer loop
      vertex -14.6167 6.50779 21
      vertex -15.2169 4.94427 0
      vertex -15.2169 4.94427 21
    endloop
  endfacet
  facet normal -0.987688 0.156434 0
    outer loop
      vertex -15.9123 1.67245 0
      vertex -15.6504 3.32659 21
      vertex -15.6504 3.32659 0
    endloop
  endfacet
  facet normal -0.987688 0.156434 0
    outer loop
      vertex -15.6504 3.32659 21
      vertex -15.9123 1.67245 0
      vertex -15.9123 1.67245 21
    endloop
  endfacet
  facet normal -0.544639 0.838671 0
    outer loop
      vertex -8 13.8564 0
      vertex -9.40456 12.9443 21
      vertex -8 13.8564 21
    endloop
  endfacet
  facet normal -0.544639 0.838671 0
    outer loop
      vertex -9.40456 12.9443 21
      vertex -8 13.8564 0
      vertex -9.40456 12.9443 0
    endloop
  endfacet
  facet normal -0.258819 0.965926 0
    outer loop
      vertex -3.32659 15.6504 0
      vertex -4.94427 15.2169 21
      vertex -3.32659 15.6504 21
    endloop
  endfacet
  facet normal -0.258819 0.965926 0
    outer loop
      vertex -4.94427 15.2169 21
      vertex -3.32659 15.6504 0
      vertex -4.94427 15.2169 0
    endloop
  endfacet
  facet normal -0.0523363 0.99863 0
    outer loop
      vertex 0 16 0
      vertex -1.67245 15.9123 21
      vertex 0 16 21
    endloop
  endfacet
  facet normal -0.0523363 0.99863 0
    outer loop
      vertex -1.67245 15.9123 21
      vertex 0 16 0
      vertex -1.67245 15.9123 0
    endloop
  endfacet
  facet normal 0.99863 -0.0523363 0
    outer loop
      vertex 15.9123 -1.67245 21
      vertex 16 0 0
      vertex 16 0 21
    endloop
  endfacet
  facet normal 0.99863 -0.0523363 0
    outer loop
      vertex 16 0 0
      vertex 15.9123 -1.67245 21
      vertex 15.9123 -1.67245 0
    endloop
  endfacet
  facet normal 0.0523363 -0.99863 0
    outer loop
      vertex 0 -16 0
      vertex 1.67245 -15.9123 21
      vertex 0 -16 21
    endloop
  endfacet
  facet normal 0.0523363 -0.99863 0
    outer loop
      vertex 1.67245 -15.9123 21
      vertex 0 -16 0
      vertex 1.67245 -15.9123 0
    endloop
  endfacet
  facet normal 0.258819 -0.965926 0
    outer loop
      vertex 3.32659 -15.6504 0
      vertex 4.94427 -15.2169 21
      vertex 3.32659 -15.6504 21
    endloop
  endfacet
  facet normal 0.258819 -0.965926 0
    outer loop
      vertex 4.94427 -15.2169 21
      vertex 3.32659 -15.6504 0
      vertex 4.94427 -15.2169 0
    endloop
  endfacet
  facet normal 0.62932 -0.777146 0
    outer loop
      vertex 9.40456 -12.9443 0
      vertex 10.7061 -11.8903 21
      vertex 9.40456 -12.9443 21
    endloop
  endfacet
  facet normal 0.62932 -0.777146 0
    outer loop
      vertex 10.7061 -11.8903 21
      vertex 9.40456 -12.9443 0
      vertex 10.7061 -11.8903 0
    endloop
  endfacet
  facet normal 0.45399 -0.891007 0
    outer loop
      vertex 6.50779 -14.6167 0
      vertex 8 -13.8564 21
      vertex 6.50779 -14.6167 21
    endloop
  endfacet
  facet normal 0.45399 -0.891007 0
    outer loop
      vertex 8 -13.8564 21
      vertex 6.50779 -14.6167 0
      vertex 8 -13.8564 0
    endloop
  endfacet
  facet normal 0.777146 -0.62932 0
    outer loop
      vertex 11.8903 -10.7061 21
      vertex 12.9443 -9.40456 0
      vertex 12.9443 -9.40456 21
    endloop
  endfacet
  facet normal 0.777146 -0.62932 0
    outer loop
      vertex 12.9443 -9.40456 0
      vertex 11.8903 -10.7061 21
      vertex 11.8903 -10.7061 0
    endloop
  endfacet
  facet normal 0.891007 -0.453991 0
    outer loop
      vertex 13.8564 -8 21
      vertex 14.6167 -6.50779 0
      vertex 14.6167 -6.50779 21
    endloop
  endfacet
  facet normal 0.891007 -0.453991 0
    outer loop
      vertex 14.6167 -6.50779 0
      vertex 13.8564 -8 21
      vertex 13.8564 -8 0
    endloop
  endfacet
  facet normal -0.707107 -0.707107 0
    outer loop
      vertex -10.7061 -11.8903 0
      vertex -11.8903 -10.7061 21
      vertex -11.8903 -10.7061 0
    endloop
  endfacet
  facet normal -0.707107 -0.707107 0
    outer loop
      vertex -11.8903 -10.7061 21
      vertex -10.7061 -11.8903 0
      vertex -10.7061 -11.8903 21
    endloop
  endfacet
  facet normal -0.544639 -0.83867 0
    outer loop
      vertex -9.40456 -12.9443 0
      vertex -8 -13.8564 21
      vertex -9.40456 -12.9443 21
    endloop
  endfacet
  facet normal -0.544639 -0.83867 -0
    outer loop
      vertex -8 -13.8564 21
      vertex -9.40456 -12.9443 0
      vertex -8 -13.8564 0
    endloop
  endfacet
  facet normal -0.358368 -0.93358 0
    outer loop
      vertex -6.50779 -14.6167 0
      vertex -4.94427 -15.2169 21
      vertex -6.50779 -14.6167 21
    endloop
  endfacet
  facet normal -0.358368 -0.93358 -0
    outer loop
      vertex -4.94427 -15.2169 21
      vertex -6.50779 -14.6167 0
      vertex -4.94427 -15.2169 0
    endloop
  endfacet
  facet normal -0.156434 -0.987688 0
    outer loop
      vertex -3.32659 -15.6504 0
      vertex -1.67245 -15.9123 21
      vertex -3.32659 -15.6504 21
    endloop
  endfacet
  facet normal -0.156434 -0.987688 -0
    outer loop
      vertex -1.67245 -15.9123 21
      vertex -3.32659 -15.6504 0
      vertex -1.67245 -15.9123 0
    endloop
  endfacet
  facet normal -0.838671 -0.544639 0
    outer loop
      vertex -12.9443 -9.40456 0
      vertex -13.8564 -8 21
      vertex -13.8564 -8 0
    endloop
  endfacet
  facet normal -0.838671 -0.544639 0
    outer loop
      vertex -13.8564 -8 21
      vertex -12.9443 -9.40456 0
      vertex -12.9443 -9.40456 21
    endloop
  endfacet
  facet normal -0.965926 -0.258819 0
    outer loop
      vertex -15.2169 -4.94427 0
      vertex -15.6504 -3.32659 21
      vertex -15.6504 -3.32659 0
    endloop
  endfacet
  facet normal -0.965926 -0.258819 0
    outer loop
      vertex -15.6504 -3.32659 21
      vertex -15.2169 -4.94427 0
      vertex -15.2169 -4.94427 21
    endloop
  endfacet
  facet normal -0.99863 -0.0523363 0
    outer loop
      vertex -15.9123 -1.67245 0
      vertex -16 0 21
      vertex -16 0 0
    endloop
  endfacet
  facet normal -0.99863 -0.0523363 0
    outer loop
      vertex -16 0 21
      vertex -15.9123 -1.67245 0
      vertex -15.9123 -1.67245 21
    endloop
  endfacet
  facet normal 0.156434 -0.987688 0
    outer loop
      vertex 1.67245 -15.9123 0
      vertex 3.32659 -15.6504 21
      vertex 1.67245 -15.9123 21
    endloop
  endfacet
  facet normal 0.156434 -0.987688 0
    outer loop
      vertex 3.32659 -15.6504 21
      vertex 1.67245 -15.9123 0
      vertex 3.32659 -15.6504 0
    endloop
  endfacet
  facet normal 0.358368 -0.93358 0
    outer loop
      vertex 4.94427 -15.2169 0
      vertex 6.50779 -14.6167 21
      vertex 4.94427 -15.2169 21
    endloop
  endfacet
  facet normal 0.358368 -0.93358 0
    outer loop
      vertex 6.50779 -14.6167 21
      vertex 4.94427 -15.2169 0
      vertex 6.50779 -14.6167 0
    endloop
  endfacet
  facet normal 0.707107 -0.707107 0
    outer loop
      vertex 10.7061 -11.8903 21
      vertex 11.8903 -10.7061 0
      vertex 11.8903 -10.7061 21
    endloop
  endfacet
  facet normal 0.707107 -0.707107 0
    outer loop
      vertex 11.8903 -10.7061 0
      vertex 10.7061 -11.8903 21
      vertex 10.7061 -11.8903 0
    endloop
  endfacet
  facet normal 0.544639 -0.83867 0
    outer loop
      vertex 8 -13.8564 0
      vertex 9.40456 -12.9443 21
      vertex 8 -13.8564 21
    endloop
  endfacet
  facet normal 0.544639 -0.83867 0
    outer loop
      vertex 9.40456 -12.9443 21
      vertex 8 -13.8564 0
      vertex 9.40456 -12.9443 0
    endloop
  endfacet
  facet normal 0.838671 -0.544639 0
    outer loop
      vertex 12.9443 -9.40456 21
      vertex 13.8564 -8 0
      vertex 13.8564 -8 21
    endloop
  endfacet
  facet normal 0.838671 -0.544639 0
    outer loop
      vertex 13.8564 -8 0
      vertex 12.9443 -9.40456 21
      vertex 12.9443 -9.40456 0
    endloop
  endfacet
  facet normal 0.987688 -0.156434 0
    outer loop
      vertex 15.6504 -3.32659 21
      vertex 15.9123 -1.67245 0
      vertex 15.9123 -1.67245 21
    endloop
  endfacet
  facet normal 0.987688 -0.156434 0
    outer loop
      vertex 15.9123 -1.67245 0
      vertex 15.6504 -3.32659 21
      vertex 15.6504 -3.32659 0
    endloop
  endfacet
  facet normal 0.965926 -0.258819 0
    outer loop
      vertex 15.2169 -4.94427 21
      vertex 15.6504 -3.32659 0
      vertex 15.6504 -3.32659 21
    endloop
  endfacet
  facet normal 0.965926 -0.258819 0
    outer loop
      vertex 15.6504 -3.32659 0
      vertex 15.2169 -4.94427 21
      vertex 15.2169 -4.94427 0
    endloop
  endfacet
  facet normal -0.62932 -0.777146 0
    outer loop
      vertex -10.7061 -11.8903 0
      vertex -9.40456 -12.9443 21
      vertex -10.7061 -11.8903 21
    endloop
  endfacet
  facet normal -0.62932 -0.777146 -0
    outer loop
      vertex -9.40456 -12.9443 21
      vertex -10.7061 -11.8903 0
      vertex -9.40456 -12.9443 0
    endloop
  endfacet
  facet normal -0.45399 -0.891007 0
    outer loop
      vertex -8 -13.8564 0
      vertex -6.50779 -14.6167 21
      vertex -8 -13.8564 21
    endloop
  endfacet
  facet normal -0.45399 -0.891007 -0
    outer loop
      vertex -6.50779 -14.6167 21
      vertex -8 -13.8564 0
      vertex -6.50779 -14.6167 0
    endloop
  endfacet
  facet normal -0.258819 -0.965926 0
    outer loop
      vertex -4.94427 -15.2169 0
      vertex -3.32659 -15.6504 21
      vertex -4.94427 -15.2169 21
    endloop
  endfacet
  facet normal -0.258819 -0.965926 -0
    outer loop
      vertex -3.32659 -15.6504 21
      vertex -4.94427 -15.2169 0
      vertex -3.32659 -15.6504 0
    endloop
  endfacet
  facet normal -0.93358 -0.358368 0
    outer loop
      vertex -14.6167 -6.50779 0
      vertex -15.2169 -4.94427 21
      vertex -15.2169 -4.94427 0
    endloop
  endfacet
  facet normal -0.93358 -0.358368 0
    outer loop
      vertex -15.2169 -4.94427 21
      vertex -14.6167 -6.50779 0
      vertex -14.6167 -6.50779 21
    endloop
  endfacet
  facet normal -0.987688 -0.156434 0
    outer loop
      vertex -15.6504 -3.32659 0
      vertex -15.9123 -1.67245 21
      vertex -15.9123 -1.67245 0
    endloop
  endfacet
  facet normal -0.987688 -0.156434 0
    outer loop
      vertex -15.9123 -1.67245 21
      vertex -15.6504 -3.32659 0
      vertex -15.6504 -3.32659 21
    endloop
  endfacet
endsolid OpenSCAD_Model
